<?xml version="1.0" encoding="UTF-8"?>
<!DOCTYPE svg PUBLIC "-//W3C//DTD SVG 1.1//EN" "http://www.w3.org/Graphics/SVG/1.1/DTD/svg11.dtd">
<svg xmlns="http://www.w3.org/2000/svg" version="1.1" width="2322px" height="449px" style="shape-rendering:geometricPrecision; text-rendering:geometricPrecision; image-rendering:optimizeQuality; fill-rule:evenodd; clip-rule:evenodd" xmlns:xlink="http://www.w3.org/1999/xlink">
<g><path style="opacity:0.888" fill="#bce3e0" d="M 137.5,16.5 C 143.167,22.5 148.833,28.5 154.5,34.5C 152.167,34.5 149.833,34.5 147.5,34.5C 142.5,29.1667 137.5,23.8333 132.5,18.5C 133.93,17.4625 135.597,16.7959 137.5,16.5 Z"/></g>
<g><path style="opacity:0.932" fill="#bfe4e1" d="M 137.5,16.5 C 142.5,16.5 147.5,16.5 152.5,16.5C 158.167,22.5 163.833,28.5 169.5,34.5C 164.5,34.5 159.5,34.5 154.5,34.5C 148.833,28.5 143.167,22.5 137.5,16.5 Z"/></g>
<g><path style="opacity:0.945" fill="#c3e6e3" d="M 152.5,16.5 C 157.833,16.5 163.167,16.5 168.5,16.5C 174.167,22.5 179.833,28.5 185.5,34.5C 180.167,34.5 174.833,34.5 169.5,34.5C 163.833,28.5 158.167,22.5 152.5,16.5 Z"/></g>
<g><path style="opacity:0.945" fill="#c6e8e4" d="M 168.5,16.5 C 170.833,16.5 173.167,16.5 175.5,16.5C 181.167,22.5 186.833,28.5 192.5,34.5C 190.167,34.5 187.833,34.5 185.5,34.5C 179.833,28.5 174.167,22.5 168.5,16.5 Z"/></g>
<g><path style="opacity:0.945" fill="#cae9e6" d="M 175.5,16.5 C 182.167,16.5 188.833,16.5 195.5,16.5C 201.167,22.5 206.833,28.5 212.5,34.5C 205.833,34.5 199.167,34.5 192.5,34.5C 186.833,28.5 181.167,22.5 175.5,16.5 Z"/></g>
<g><path style="opacity:0.945" fill="#cdeae8" d="M 195.5,16.5 C 197.833,16.5 200.167,16.5 202.5,16.5C 208.167,22.5 213.833,28.5 219.5,34.5C 217.167,34.5 214.833,34.5 212.5,34.5C 206.833,28.5 201.167,22.5 195.5,16.5 Z"/></g>
<g><path style="opacity:0.945" fill="#d1ece9" d="M 202.5,16.5 C 210.5,16.5 218.5,16.5 226.5,16.5C 232.167,22.5 237.833,28.5 243.5,34.5C 235.5,34.5 227.5,34.5 219.5,34.5C 213.833,28.5 208.167,22.5 202.5,16.5 Z"/></g>
<g><path style="opacity:0.945" fill="#d6eeec" d="M 226.5,16.5 C 233.5,16.5 240.5,16.5 247.5,16.5C 253.167,22.5 258.833,28.5 264.5,34.5C 257.5,34.5 250.5,34.5 243.5,34.5C 237.833,28.5 232.167,22.5 226.5,16.5 Z"/></g>
<g><path style="opacity:0.945" fill="#d9f0ed" d="M 247.5,16.5 C 249.167,16.5 250.833,16.5 252.5,16.5C 258.167,22.5 263.833,28.5 269.5,34.5C 267.833,34.5 266.167,34.5 264.5,34.5C 258.833,28.5 253.167,22.5 247.5,16.5 Z"/></g>
<g><path style="opacity:0.945" fill="#ddf1ef" d="M 252.5,16.5 C 261.167,16.5 269.833,16.5 278.5,16.5C 284.167,22.5 289.833,28.5 295.5,34.5C 286.833,34.5 278.167,34.5 269.5,34.5C 263.833,28.5 258.167,22.5 252.5,16.5 Z"/></g>
<g><path style="opacity:0.945" fill="#e1f3f1" d="M 278.5,16.5 C 282.5,16.5 286.5,16.5 290.5,16.5C 296.167,22.5 301.833,28.5 307.5,34.5C 303.5,34.5 299.5,34.5 295.5,34.5C 289.833,28.5 284.167,22.5 278.5,16.5 Z"/></g>
<g><path style="opacity:0.945" fill="#e4f4f2" d="M 290.5,16.5 C 295.833,16.5 301.167,16.5 306.5,16.5C 312.167,22.5 317.833,28.5 323.5,34.5C 318.167,34.5 312.833,34.5 307.5,34.5C 301.833,28.5 296.167,22.5 290.5,16.5 Z"/></g>
<g><path style="opacity:0.945" fill="#e6f5f3" d="M 306.5,16.5 C 308.5,16.5 310.5,16.5 312.5,16.5C 318.167,22.5 323.833,28.5 329.5,34.5C 327.5,34.5 325.5,34.5 323.5,34.5C 317.833,28.5 312.167,22.5 306.5,16.5 Z"/></g>
<g><path style="opacity:0.945" fill="#eaf6f5" d="M 312.5,16.5 C 322.833,16.5 333.167,16.5 343.5,16.5C 349.167,22.5 354.833,28.5 360.5,34.5C 350.167,34.5 339.833,34.5 329.5,34.5C 323.833,28.5 318.167,22.5 312.5,16.5 Z"/></g>
<g><path style="opacity:0.924" fill="#eff8f7" d="M 343.5,16.5 C 351.5,16.5 359.5,16.5 367.5,16.5C 386.833,36.5 406.5,56.1667 426.5,75.5C 435.655,89.8018 444.821,104.135 454,118.5C 456.676,122.849 458.509,127.515 459.5,132.5C 443.5,116.833 427.5,101.167 411.5,85.5C 401.885,71.023 392.385,56.3564 383,41.5C 376.406,36.4698 368.906,34.1364 360.5,34.5C 354.833,28.5 349.167,22.5 343.5,16.5 Z"/></g>
<g><path style="opacity:0.923" fill="#f2faf9" d="M 367.5,16.5 C 371.042,16.1872 374.375,16.5206 377.5,17.5C 388.5,29.1667 399.833,40.5 411.5,51.5C 417.01,59.1884 422.01,67.1884 426.5,75.5C 406.5,56.1667 386.833,36.5 367.5,16.5 Z"/></g>
<g><path style="opacity:0.877" fill="#f3faf9" d="M 377.5,17.5 C 378.609,17.5569 379.609,17.8902 380.5,18.5C 389.167,27.8333 398.167,36.8333 407.5,45.5C 409.326,47.1475 410.66,49.1475 411.5,51.5C 399.833,40.5 388.5,29.1667 377.5,17.5 Z"/></g>
<g><path style="opacity:0.894" fill="#b8e2de" d="M 132.5,18.5 C 137.5,23.8333 142.5,29.1667 147.5,34.5C 141.367,34.6873 136.034,36.6873 131.5,40.5C 127.167,35.8333 122.833,31.1667 118.5,26.5C 122.212,22.3063 126.879,19.6396 132.5,18.5 Z"/></g>
<g><path style="opacity:0.683" fill="#f4fafa" d="M 380.5,18.5 C 393.466,23.4657 402.466,32.4657 407.5,45.5C 398.167,36.8333 389.167,27.8333 380.5,18.5 Z"/></g>
<g><path style="opacity:0.988" fill="#fefffe" d="M 2043.5,24.5 C 2058.97,23.8592 2074.3,24.8592 2089.5,27.5C 2088.02,41.152 2086.69,54.8187 2085.5,68.5C 2078.25,66.8016 2070.92,66.3016 2063.5,67C 2051.65,70.1992 2045.82,78.0325 2046,90.5C 2045.5,101.828 2045.33,113.162 2045.5,124.5C 2060.17,124.5 2074.83,124.5 2089.5,124.5C 2089.5,138.167 2089.5,151.833 2089.5,165.5C 2074.83,165.5 2060.17,165.5 2045.5,165.5C 2045.5,218.5 2045.5,271.5 2045.5,324.5C 2028.83,324.5 2012.17,324.5 1995.5,324.5C 1995.5,271.5 1995.5,218.5 1995.5,165.5C 1986.17,165.5 1976.83,165.5 1967.5,165.5C 1968.39,151.787 1969.73,138.12 1971.5,124.5C 1979.5,124.5 1987.5,124.5 1995.5,124.5C 1995.33,107.163 1995.5,89.8301 1996,72.5C 1999.97,44.692 2015.81,28.692 2043.5,24.5 Z"/></g>
<g><path style="opacity:0.894" fill="#b5e1dc" d="M 118.5,26.5 C 122.833,31.1667 127.167,35.8333 131.5,40.5C 130.833,40.8333 130.167,41.1667 129.5,41.5C 124.833,37.5 120.5,33.1667 116.5,28.5C 116.833,27.5 117.5,26.8333 118.5,26.5 Z"/></g>
<g><path style="opacity:0.894" fill="#b2dfdb" d="M 116.5,28.5 C 120.5,33.1667 124.833,37.5 129.5,41.5C 127.975,44.563 125.975,47.2297 123.5,49.5C 119.5,44.8333 115.167,40.5 110.5,36.5C 111.985,33.4307 113.985,30.764 116.5,28.5 Z"/></g>
<g><path style="opacity:0.886" fill="#afdeda" d="M 110.5,36.5 C 115.167,40.5 119.5,44.8333 123.5,49.5C 123.727,51.9328 122.727,53.5994 120.5,54.5C 116.5,49.8333 112.167,45.5 107.5,41.5C 107.75,39.326 108.75,37.6594 110.5,36.5 Z"/></g>
<g><path style="opacity:0.899" fill="#abdcd8" d="M 107.5,41.5 C 112.167,45.5 116.5,49.8333 120.5,54.5C 118.222,59.1028 115.555,63.4362 112.5,67.5C 107.833,63.5 103.5,59.1667 99.5,54.5C 101.803,49.8929 104.47,45.5596 107.5,41.5 Z"/></g>
<g><path style="opacity:0.982" fill="#fefffe" d="M 1887.5,44.5 C 1904.17,44.5 1920.83,44.5 1937.5,44.5C 1937.5,61.1667 1937.5,77.8333 1937.5,94.5C 1920.83,94.5 1904.17,94.5 1887.5,94.5C 1887.5,77.8333 1887.5,61.1667 1887.5,44.5 Z"/></g>
<g><path style="opacity:0.89" fill="#a7dbd6" d="M 99.5,54.5 C 103.5,59.1667 107.833,63.5 112.5,67.5C 112.071,70.1473 110.738,72.1473 108.5,73.5C 104.5,68.8333 100.167,64.5 95.5,60.5C 96.0568,57.9501 97.3901,55.9501 99.5,54.5 Z"/></g>
<g><path style="opacity:0.899" fill="#a4dad4" d="M 95.5,60.5 C 100.167,64.5 104.5,68.8333 108.5,73.5C 108.107,75.2838 107.441,76.9505 106.5,78.5C 101.5,74.1667 96.8333,69.5 92.5,64.5C 93.5116,63.1283 94.5116,61.795 95.5,60.5 Z"/></g>
<g><path style="opacity:0.882" fill="#a3d9d4" d="M 92.5,64.5 C 96.8333,69.5 101.5,74.1667 106.5,78.5C 105.833,79.8333 104.833,80.8333 103.5,81.5C 99.5,76.8333 95.1667,72.5 90.5,68.5C 90.9887,67.0048 91.6554,65.6715 92.5,64.5 Z"/></g>
<g><path style="opacity:0.893" fill="#9fd7d2" d="M 90.5,68.5 C 95.1667,72.5 99.5,76.8333 103.5,81.5C 101.6,86.2988 98.9334,90.6321 95.5,94.5C 91.5,89.8333 87.1667,85.5 82.5,81.5C 84.9172,76.9962 87.5838,72.6628 90.5,68.5 Z"/></g>
<g><path style="opacity:0.987" fill="#fefffe" d="M 1809.5,74.5 C 1811.49,90.7998 1812.15,107.466 1811.5,124.5C 1826.17,124.5 1840.83,124.5 1855.5,124.5C 1855.5,138.167 1855.5,151.833 1855.5,165.5C 1840.83,165.5 1826.17,165.5 1811.5,165.5C 1811.33,195.835 1811.5,226.168 1812,256.5C 1812.2,263.885 1812.87,271.218 1814,278.5C 1815.72,282.783 1818.89,285.283 1823.5,286C 1834.14,287.149 1844.8,287.649 1855.5,287.5C 1854.61,301.213 1853.27,314.88 1851.5,328.5C 1833.45,328.931 1815.45,328.431 1797.5,327C 1777.11,320.081 1765.27,305.914 1762,284.5C 1761.5,244.835 1761.33,205.168 1761.5,165.5C 1752.17,165.5 1742.83,165.5 1733.5,165.5C 1734.39,151.787 1735.73,138.12 1737.5,124.5C 1745.5,124.5 1753.5,124.5 1761.5,124.5C 1761.5,109.5 1761.5,94.5 1761.5,79.5C 1777.71,78.4797 1793.71,76.8131 1809.5,74.5 Z"/></g>
<g><path style="opacity:0.917" fill="#9ad5cf" d="M 82.5,81.5 C 87.1667,85.5 91.5,89.8333 95.5,94.5C 95.16,96.679 94.16,98.5123 92.5,100C 95.8168,100.498 99.1501,100.665 102.5,100.5C 108.5,106.833 114.5,113.167 120.5,119.5C 114.167,119.5 107.833,119.5 101.5,119.5C 92.8333,110.5 84.1667,101.5 75.5,92.5C 77.5867,88.6559 79.92,84.9893 82.5,81.5 Z"/></g>
<g><path style="opacity:0.919" fill="#eaf6f5" d="M 411.5,85.5 C 427.5,101.167 443.5,116.833 459.5,132.5C 460.29,133.609 460.79,134.942 461,136.5C 461.5,146.161 461.666,155.828 461.5,165.5C 455.5,159.833 449.5,154.167 443.5,148.5C 443.805,135.519 438.138,126.352 426.5,121C 422.49,120.499 418.49,119.999 414.5,119.5C 408.5,113.167 402.5,106.833 396.5,100.5C 404.196,100.831 411.862,100.497 419.5,99.5C 416.285,95.0606 413.618,90.394 411.5,85.5 Z"/></g>
<g><path style="opacity:0.94" fill="#96d4ce" d="M 75.5,92.5 C 84.1667,101.5 92.8333,110.5 101.5,119.5C 99.1667,119.5 96.8333,119.5 94.5,119.5C 87.1667,111.833 79.8333,104.167 72.5,96.5C 73.5116,95.1283 74.5116,93.795 75.5,92.5 Z"/></g>
<g><path style="opacity:0.913" fill="#92d2cc" d="M 72.5,96.5 C 79.8333,104.167 87.1667,111.833 94.5,119.5C 92.0314,120.317 89.3647,120.817 86.5,121C 84.0302,121.989 81.6968,123.155 79.5,124.5C 74.1667,119.833 69.1667,114.833 64.5,109.5C 67.2327,105.124 69.8994,100.791 72.5,96.5 Z"/></g>
<g><path style="opacity:0.895" fill="#9fd7d2" d="M 102.5,100.5 C 109.5,100.5 116.5,100.5 123.5,100.5C 129.5,106.833 135.5,113.167 141.5,119.5C 134.5,119.5 127.5,119.5 120.5,119.5C 114.5,113.167 108.5,106.833 102.5,100.5 Z"/></g>
<g><path style="opacity:0.895" fill="#a3d9d4" d="M 123.5,100.5 C 125.167,100.5 126.833,100.5 128.5,100.5C 134.5,106.833 140.5,113.167 146.5,119.5C 144.833,119.5 143.167,119.5 141.5,119.5C 135.5,113.167 129.5,106.833 123.5,100.5 Z"/></g>
<g><path style="opacity:0.895" fill="#a4dad4" d="M 128.5,100.5 C 131.167,100.5 133.833,100.5 136.5,100.5C 142.5,106.833 148.5,113.167 154.5,119.5C 151.833,119.5 149.167,119.5 146.5,119.5C 140.5,113.167 134.5,106.833 128.5,100.5 Z"/></g>
<g><path style="opacity:0.895" fill="#a7dbd6" d="M 136.5,100.5 C 139.5,100.5 142.5,100.5 145.5,100.5C 151.5,106.833 157.5,113.167 163.5,119.5C 160.5,119.5 157.5,119.5 154.5,119.5C 148.5,113.167 142.5,106.833 136.5,100.5 Z"/></g>
<g><path style="opacity:0.895" fill="#abdcd8" d="M 145.5,100.5 C 152.833,100.5 160.167,100.5 167.5,100.5C 173.5,106.833 179.5,113.167 185.5,119.5C 178.167,119.5 170.833,119.5 163.5,119.5C 157.5,113.167 151.5,106.833 145.5,100.5 Z"/></g>
<g><path style="opacity:0.895" fill="#afdeda" d="M 167.5,100.5 C 170.167,100.5 172.833,100.5 175.5,100.5C 181.5,106.833 187.5,113.167 193.5,119.5C 190.833,119.5 188.167,119.5 185.5,119.5C 179.5,113.167 173.5,106.833 167.5,100.5 Z"/></g>
<g><path style="opacity:0.895" fill="#b2dfdb" d="M 175.5,100.5 C 179.833,100.5 184.167,100.5 188.5,100.5C 194.5,106.833 200.5,113.167 206.5,119.5C 202.167,119.5 197.833,119.5 193.5,119.5C 187.5,113.167 181.5,106.833 175.5,100.5 Z"/></g>
<g><path style="opacity:0.895" fill="#b5e1dc" d="M 188.5,100.5 C 189.833,100.5 191.167,100.5 192.5,100.5C 198.5,106.833 204.5,113.167 210.5,119.5C 209.167,119.5 207.833,119.5 206.5,119.5C 200.5,113.167 194.5,106.833 188.5,100.5 Z"/></g>
<g><path style="opacity:0.895" fill="#b8e2de" d="M 192.5,100.5 C 199.833,100.5 207.167,100.5 214.5,100.5C 220.5,106.833 226.5,113.167 232.5,119.5C 225.167,119.5 217.833,119.5 210.5,119.5C 204.5,113.167 198.5,106.833 192.5,100.5 Z"/></g>
<g><path style="opacity:0.895" fill="#bce3e0" d="M 214.5,100.5 C 216.833,100.5 219.167,100.5 221.5,100.5C 227.5,106.833 233.5,113.167 239.5,119.5C 237.167,119.5 234.833,119.5 232.5,119.5C 226.5,113.167 220.5,106.833 214.5,100.5 Z"/></g>
<g><path style="opacity:0.895" fill="#bfe4e1" d="M 221.5,100.5 C 226.5,100.5 231.5,100.5 236.5,100.5C 242.5,106.833 248.5,113.167 254.5,119.5C 249.5,119.5 244.5,119.5 239.5,119.5C 233.5,113.167 227.5,106.833 221.5,100.5 Z"/></g>
<g><path style="opacity:0.895" fill="#c3e6e3" d="M 236.5,100.5 C 241.833,100.5 247.167,100.5 252.5,100.5C 258.5,106.833 264.5,113.167 270.5,119.5C 265.167,119.5 259.833,119.5 254.5,119.5C 248.5,113.167 242.5,106.833 236.5,100.5 Z"/></g>
<g><path style="opacity:0.895" fill="#c6e8e4" d="M 252.5,100.5 C 254.833,100.5 257.167,100.5 259.5,100.5C 265.5,106.833 271.5,113.167 277.5,119.5C 275.167,119.5 272.833,119.5 270.5,119.5C 264.5,113.167 258.5,106.833 252.5,100.5 Z"/></g>
<g><path style="opacity:0.895" fill="#cae9e6" d="M 259.5,100.5 C 266.167,100.5 272.833,100.5 279.5,100.5C 285.5,106.833 291.5,113.167 297.5,119.5C 290.833,119.5 284.167,119.5 277.5,119.5C 271.5,113.167 265.5,106.833 259.5,100.5 Z"/></g>
<g><path style="opacity:0.895" fill="#cdeae8" d="M 279.5,100.5 C 281.833,100.5 284.167,100.5 286.5,100.5C 292.5,106.833 298.5,113.167 304.5,119.5C 302.167,119.5 299.833,119.5 297.5,119.5C 291.5,113.167 285.5,106.833 279.5,100.5 Z"/></g>
<g><path style="opacity:0.895" fill="#d1ece9" d="M 286.5,100.5 C 294.5,100.5 302.5,100.5 310.5,100.5C 316.5,106.833 322.5,113.167 328.5,119.5C 320.5,119.5 312.5,119.5 304.5,119.5C 298.5,113.167 292.5,106.833 286.5,100.5 Z"/></g>
<g><path style="opacity:0.895" fill="#d6eeec" d="M 310.5,100.5 C 317.5,100.5 324.5,100.5 331.5,100.5C 337.5,106.833 343.5,113.167 349.5,119.5C 342.5,119.5 335.5,119.5 328.5,119.5C 322.5,113.167 316.5,106.833 310.5,100.5 Z"/></g>
<g><path style="opacity:0.895" fill="#d9f0ed" d="M 331.5,100.5 C 333.167,100.5 334.833,100.5 336.5,100.5C 342.5,106.833 348.5,113.167 354.5,119.5C 352.833,119.5 351.167,119.5 349.5,119.5C 343.5,113.167 337.5,106.833 331.5,100.5 Z"/></g>
<g><path style="opacity:0.895" fill="#ddf1ef" d="M 336.5,100.5 C 345.167,100.5 353.833,100.5 362.5,100.5C 368.5,106.833 374.5,113.167 380.5,119.5C 371.833,119.5 363.167,119.5 354.5,119.5C 348.5,113.167 342.5,106.833 336.5,100.5 Z"/></g>
<g><path style="opacity:0.895" fill="#e1f3f1" d="M 362.5,100.5 C 366.5,100.5 370.5,100.5 374.5,100.5C 380.5,106.833 386.5,113.167 392.5,119.5C 388.5,119.5 384.5,119.5 380.5,119.5C 374.5,113.167 368.5,106.833 362.5,100.5 Z"/></g>
<g><path style="opacity:0.895" fill="#e4f4f2" d="M 374.5,100.5 C 379.833,100.5 385.167,100.5 390.5,100.5C 396.5,106.833 402.5,113.167 408.5,119.5C 403.167,119.5 397.833,119.5 392.5,119.5C 386.5,113.167 380.5,106.833 374.5,100.5 Z"/></g>
<g><path style="opacity:0.895" fill="#e6f5f3" d="M 390.5,100.5 C 392.5,100.5 394.5,100.5 396.5,100.5C 402.5,106.833 408.5,113.167 414.5,119.5C 412.5,119.5 410.5,119.5 408.5,119.5C 402.5,113.167 396.5,106.833 390.5,100.5 Z"/></g>
<g><path style="opacity:0.892" fill="#8cd0c9" d="M 64.5,109.5 C 69.1667,114.833 74.1667,119.833 79.5,124.5C 74.9805,128.209 71.9805,132.876 70.5,138.5C 65.5,133.833 60.5,129.167 55.5,124.5C 58.2763,119.266 61.2763,114.266 64.5,109.5 Z"/></g>
<g><path style="opacity:0.975" fill="#fefffe" d="M 622.5,120.5 C 647.026,117.907 670.36,121.907 692.5,132.5C 692.833,132.833 693.167,133.167 693.5,133.5C 691.772,146.777 690.439,160.11 689.5,173.5C 677.968,168.491 665.968,164.991 653.5,163C 609.511,160.322 586.177,180.988 583.5,225C 583.83,243.658 590.497,259.658 603.5,273C 619.049,285.637 636.716,289.97 656.5,286C 662.668,284.944 668.668,283.277 674.5,281C 679.447,278.524 684.447,276.358 689.5,274.5C 690.905,287.149 692.239,299.815 693.5,312.5C 693.167,314.167 692.833,315.833 692.5,317.5C 669.189,327.624 644.855,331.124 619.5,328C 574.234,321.402 546.068,295.902 535,251.5C 527.459,215.031 534.792,182.031 557,152.5C 574.881,133.642 596.714,122.976 622.5,120.5 Z"/></g>
<g><path style="opacity:0.977" fill="#fefffe" d="M 800.5,120.5 C 839.3,115.48 871.467,127.48 897,156.5C 919.444,189.173 924.778,224.507 913,262.5C 898.912,300.586 871.745,322.42 831.5,328C 791.509,333.569 758.676,321.069 733,290.5C 711.484,257.028 707.151,221.361 720,183.5C 735.009,147.261 761.842,126.261 800.5,120.5 Z M 809.5,161.5 C 841.729,160.885 860.562,176.551 866,208.5C 870.658,232.565 865.658,254.232 851,273.5C 834.122,287.73 815.288,290.897 794.5,283C 782.881,277.381 774.715,268.547 770,256.5C 763.096,236.274 762.762,215.94 769,195.5C 776.015,176.267 789.515,164.934 809.5,161.5 Z"/></g>
<g><path style="opacity:0.982" fill="#fefffe" d="M 1051.5,120.5 C 1076.79,119.073 1097.29,128.073 1113,147.5C 1130.65,129.187 1152.31,120.187 1178,120.5C 1223.16,121.659 1248.83,144.659 1255,189.5C 1256.46,234.473 1256.96,279.473 1256.5,324.5C 1239.83,324.5 1223.17,324.5 1206.5,324.5C 1206.67,286.165 1206.5,247.832 1206,209.5C 1206,197.834 1203.33,186.834 1198,176.5C 1191.14,166.655 1181.64,161.989 1169.5,162.5C 1148.59,163.243 1136.09,173.91 1132,194.5C 1130.93,200.449 1130.26,206.449 1130,212.5C 1129.5,249.832 1129.33,287.165 1129.5,324.5C 1112.83,324.5 1096.17,324.5 1079.5,324.5C 1079.67,285.165 1079.5,245.832 1079,206.5C 1076.69,169.204 1057.53,155.704 1021.5,166C 1014.5,169 1008.67,173.5 1004,179.5C 1003.5,227.832 1003.33,276.166 1003.5,324.5C 986.5,324.5 969.5,324.5 952.5,324.5C 952.5,257.833 952.5,191.167 952.5,124.5C 967.167,124.5 981.833,124.5 996.5,124.5C 996.45,129.552 996.95,134.552 998,139.5C 1014.21,128.265 1032.05,121.931 1051.5,120.5 Z"/></g>
<g><path style="opacity:0.983" fill="#fefffe" d="M 1400.5,120.5 C 1440.06,119.604 1468.23,136.938 1485,172.5C 1500.93,212.964 1498.6,252.298 1478,290.5C 1456.8,320.836 1427.63,333.336 1390.5,328C 1375.9,326.943 1362.73,322.11 1351,313.5C 1350.5,349.498 1350.33,385.498 1350.5,421.5C 1333.83,421.5 1317.17,421.5 1300.5,421.5C 1300.5,322.5 1300.5,223.5 1300.5,124.5C 1314.17,124.5 1327.83,124.5 1341.5,124.5C 1342.57,130.442 1344.4,136.109 1347,141.5C 1362.44,128.189 1380.27,121.189 1400.5,120.5 Z M 1389.5,162.5 C 1412.7,160.512 1428.87,170.179 1438,191.5C 1444.51,211.631 1445.18,231.964 1440,252.5C 1428.68,283.74 1407.18,293.907 1375.5,283C 1358.84,272.199 1350,256.699 1349,236.5C 1346.68,217.095 1350.01,198.761 1359,181.5C 1366.79,171.188 1376.95,164.855 1389.5,162.5 Z"/></g>
<g><path style="opacity:0.911" fill="#89cfc7" d="M 55.5,124.5 C 60.5,129.167 65.5,133.833 70.5,138.5C 70.6716,139.492 70.3382,140.158 69.5,140.5C 64.5,136.167 59.8333,131.5 55.5,126.5C 55.5,125.833 55.5,125.167 55.5,124.5 Z"/></g>
<g><path style="opacity:0.98" fill="#fefffe" d="M 1527.5,124.5 C 1544.17,124.5 1560.83,124.5 1577.5,124.5C 1577.33,163.835 1577.5,203.168 1578,242.5C 1581.5,280.983 1601.67,294.15 1638.5,282C 1643.79,278.768 1648.62,274.935 1653,270.5C 1653.5,221.834 1653.67,173.168 1653.5,124.5C 1670.5,124.5 1687.5,124.5 1704.5,124.5C 1704.5,191.167 1704.5,257.833 1704.5,324.5C 1688.5,324.5 1672.5,324.5 1656.5,324.5C 1656.67,320.818 1656.5,317.152 1656,313.5C 1637.93,326.717 1617.76,331.55 1595.5,328C 1562.2,323.281 1541.03,304.781 1532,272.5C 1530.02,264.944 1528.69,257.277 1528,249.5C 1527.5,207.835 1527.33,166.168 1527.5,124.5 Z"/></g>
<g><path style="opacity:0.992" fill="#fefffe" d="M 1887.5,124.5 C 1904.17,124.5 1920.83,124.5 1937.5,124.5C 1937.5,191.167 1937.5,257.833 1937.5,324.5C 1920.83,324.5 1904.17,324.5 1887.5,324.5C 1887.5,257.833 1887.5,191.167 1887.5,124.5 Z"/></g>
<g><path style="opacity:0.978" fill="#fefffe" d="M 2096.5,125.5 C 2115.33,124.503 2134.33,124.17 2153.5,124.5C 2169.57,166.712 2186.24,208.712 2203.5,250.5C 2220.76,208.977 2237.76,167.31 2254.5,125.5C 2273.49,124.334 2292.49,124.167 2311.5,125C 2269.7,223.427 2228.04,321.927 2186.5,420.5C 2169.5,421.833 2152.5,421.833 2135.5,420.5C 2150.26,384.04 2164.93,347.54 2179.5,311C 2152.2,248.899 2124.53,187.066 2096.5,125.5 Z"/></g>
<g><path style="opacity:0.917" fill="#88cec7" d="M 55.5,126.5 C 59.8333,131.5 64.5,136.167 69.5,140.5C 69.5,141.5 69.5,142.5 69.5,143.5C 64.1667,138.833 59.1667,133.833 54.5,128.5C 54.3284,127.508 54.6618,126.842 55.5,126.5 Z"/></g>
<g><path style="opacity:0.906" fill="#85cdc6" d="M 54.5,128.5 C 59.1667,133.833 64.1667,138.833 69.5,143.5C 69.5,149.167 69.5,154.833 69.5,160.5C 63.5,154.833 57.5,149.167 51.5,143.5C 51.3347,139.818 51.5014,136.152 52,132.5C 52.6082,130.934 53.4415,129.6 54.5,128.5 Z"/></g>
<g><path style="opacity:0.928" fill="#92d2cc" d="M 111.5,135.5 C 119.833,144.5 128.5,153.167 137.5,161.5C 137.572,165.689 136.739,169.689 135,173.5C 134.34,175.324 133.173,176.657 131.5,177.5C 127.5,172.833 123.167,168.5 118.5,164.5C 119.538,158.666 117.038,154.999 111,153.5C 110.329,154.252 109.496,154.586 108.5,154.5C 104.167,149.833 99.8333,145.167 95.5,140.5C 100.065,136.84 105.398,135.173 111.5,135.5 Z"/></g>
<g><path style="opacity:0.923" fill="#96d4ce" d="M 111.5,135.5 C 114.206,135.575 116.873,135.908 119.5,136.5C 124.5,142.167 129.833,147.5 135.5,152.5C 136.913,155.219 137.58,158.219 137.5,161.5C 128.5,153.167 119.833,144.5 111.5,135.5 Z"/></g>
<g><path style="opacity:0.935" fill="#bfe5e1" d="M 271.5,135.5 C 277.167,141.5 282.833,147.5 288.5,153.5C 283.5,153.5 278.5,153.5 273.5,153.5C 268.5,148.167 263.5,142.833 258.5,137.5C 262.596,135.72 266.929,135.054 271.5,135.5 Z"/></g>
<g><path style="opacity:0.938" fill="#c3e6e3" d="M 271.5,135.5 C 276.833,135.5 282.167,135.5 287.5,135.5C 293.167,141.5 298.833,147.5 304.5,153.5C 299.167,153.5 293.833,153.5 288.5,153.5C 282.833,147.5 277.167,141.5 271.5,135.5 Z"/></g>
<g><path style="opacity:0.938" fill="#c6e8e4" d="M 287.5,135.5 C 289.833,135.5 292.167,135.5 294.5,135.5C 300.167,141.5 305.833,147.5 311.5,153.5C 309.167,153.5 306.833,153.5 304.5,153.5C 298.833,147.5 293.167,141.5 287.5,135.5 Z"/></g>
<g><path style="opacity:0.938" fill="#cae9e6" d="M 294.5,135.5 C 301.167,135.5 307.833,135.5 314.5,135.5C 320.167,141.5 325.833,147.5 331.5,153.5C 324.833,153.5 318.167,153.5 311.5,153.5C 305.833,147.5 300.167,141.5 294.5,135.5 Z"/></g>
<g><path style="opacity:0.938" fill="#cdeae8" d="M 314.5,135.5 C 316.833,135.5 319.167,135.5 321.5,135.5C 327.167,141.5 332.833,147.5 338.5,153.5C 336.167,153.5 333.833,153.5 331.5,153.5C 325.833,147.5 320.167,141.5 314.5,135.5 Z"/></g>
<g><path style="opacity:0.938" fill="#d1ece9" d="M 321.5,135.5 C 329.5,135.5 337.5,135.5 345.5,135.5C 351.167,141.5 356.833,147.5 362.5,153.5C 354.5,153.5 346.5,153.5 338.5,153.5C 332.833,147.5 327.167,141.5 321.5,135.5 Z"/></g>
<g><path style="opacity:0.938" fill="#d6eeec" d="M 345.5,135.5 C 352.5,135.5 359.5,135.5 366.5,135.5C 372.167,141.5 377.833,147.5 383.5,153.5C 376.5,153.5 369.5,153.5 362.5,153.5C 356.833,147.5 351.167,141.5 345.5,135.5 Z"/></g>
<g><path style="opacity:0.938" fill="#d9f0ed" d="M 366.5,135.5 C 368.167,135.5 369.833,135.5 371.5,135.5C 377.167,141.5 382.833,147.5 388.5,153.5C 386.833,153.5 385.167,153.5 383.5,153.5C 377.833,147.5 372.167,141.5 366.5,135.5 Z"/></g>
<g><path style="opacity:0.931" fill="#ddf1ef" d="M 371.5,135.5 C 380.167,135.5 388.833,135.5 397.5,135.5C 401.5,139.833 405.5,144.167 409.5,148.5C 408.953,151.212 407.287,152.712 404.5,153C 399.177,153.499 393.844,153.666 388.5,153.5C 382.833,147.5 377.167,141.5 371.5,135.5 Z"/></g>
<g><path style="opacity:0.76" fill="#e1f3f1" d="M 397.5,135.5 C 407.778,134.489 411.778,138.822 409.5,148.5C 405.5,144.167 401.5,139.833 397.5,135.5 Z"/></g>
<g><path style="opacity:0.581" fill="#98d5ce" d="M 119.5,136.5 C 127.833,138.833 133.167,144.167 135.5,152.5C 129.833,147.5 124.5,142.167 119.5,136.5 Z"/></g>
<g><path style="opacity:0.893" fill="#bce3e0" d="M 258.5,137.5 C 263.5,142.833 268.5,148.167 273.5,153.5C 271.167,153.5 268.833,153.5 266.5,153.5C 263.167,149.5 259.5,145.833 255.5,142.5C 256.11,140.566 257.11,138.899 258.5,137.5 Z"/></g>
<g><path style="opacity:0.906" fill="#8ccfc9" d="M 95.5,140.5 C 99.8333,145.167 104.167,149.833 108.5,154.5C 102.309,158.5 101.975,163 107.5,168C 110.167,168.667 112.833,168.667 115.5,168C 116.163,166.482 117.163,165.315 118.5,164.5C 123.167,168.5 127.5,172.833 131.5,177.5C 129.954,179.649 128.288,181.816 126.5,184C 123.904,185.136 121.237,185.969 118.5,186.5C 107.5,175.833 96.5,165.167 85.5,154.5C 86.9294,148.414 90.2627,143.748 95.5,140.5 Z"/></g>
<g><path style="opacity:0.692" fill="#bae3df" d="M 255.5,142.5 C 259.5,145.833 263.167,149.5 266.5,153.5C 258.784,153.784 255.117,150.117 255.5,142.5 Z"/></g>
<g><path style="opacity:0.942" fill="#7fcac3" d="M 51.5,143.5 C 57.5,149.167 63.5,154.833 69.5,160.5C 69.0118,170.308 69.6785,179.974 71.5,189.5C 64.8333,183.167 58.1667,176.833 51.5,170.5C 51.5,161.5 51.5,152.5 51.5,143.5 Z"/></g>
<g><path style="opacity:0.954" fill="#e6f5f3" d="M 443.5,148.5 C 449.5,154.167 455.5,159.833 461.5,165.5C 461.5,167.5 461.5,169.5 461.5,171.5C 455.5,165.833 449.5,160.167 443.5,154.5C 443.5,152.5 443.5,150.5 443.5,148.5 Z"/></g>
<g><path style="opacity:0.945" fill="#89cfc7" d="M 85.5,154.5 C 96.5,165.167 107.5,175.833 118.5,186.5C 117.791,187.404 116.791,187.737 115.5,187.5C 105.833,177.167 95.8333,167.167 85.5,157.5C 85.5,156.5 85.5,155.5 85.5,154.5 Z"/></g>
<g><path style="opacity:0.945" fill="#e4f4f2" d="M 443.5,154.5 C 449.5,160.167 455.5,165.833 461.5,171.5C 461.821,176.695 461.487,181.695 460.5,186.5C 454.833,181.167 449.167,175.833 443.5,170.5C 443.5,165.167 443.5,159.833 443.5,154.5 Z"/></g>
<g><path style="opacity:0.944" fill="#88cec7" d="M 85.5,157.5 C 95.8333,167.167 105.833,177.167 115.5,187.5C 114.833,187.833 114.167,188.167 113.5,188.5C 104.167,178.5 94.5,168.833 84.5,159.5C 84.8333,158.833 85.1667,158.167 85.5,157.5 Z"/></g>
<g><path style="opacity:0.829" fill="#86cdc6" d="M 84.5,159.5 C 94.5,168.833 104.167,178.5 113.5,188.5C 95.1936,187.507 85.5269,177.841 84.5,159.5 Z"/></g>
<g><path style="opacity:0.882" fill="#b5e1dc" d="M 261.5,169.5 C 267.5,175.833 273.5,182.167 279.5,188.5C 278.167,188.5 276.833,188.5 275.5,188.5C 270.167,182.833 264.833,177.167 259.5,171.5C 259.833,170.5 260.5,169.833 261.5,169.5 Z"/></g>
<g><path style="opacity:0.894" fill="#b8e2de" d="M 261.5,169.5 C 268.833,169.5 276.167,169.5 283.5,169.5C 289.5,175.833 295.5,182.167 301.5,188.5C 294.167,188.5 286.833,188.5 279.5,188.5C 273.5,182.167 267.5,175.833 261.5,169.5 Z"/></g>
<g><path style="opacity:0.895" fill="#bce3e0" d="M 283.5,169.5 C 285.833,169.5 288.167,169.5 290.5,169.5C 296.5,175.833 302.5,182.167 308.5,188.5C 306.167,188.5 303.833,188.5 301.5,188.5C 295.5,182.167 289.5,175.833 283.5,169.5 Z"/></g>
<g><path style="opacity:0.895" fill="#bfe4e1" d="M 290.5,169.5 C 295.5,169.5 300.5,169.5 305.5,169.5C 311.5,175.833 317.5,182.167 323.5,188.5C 318.5,188.5 313.5,188.5 308.5,188.5C 302.5,182.167 296.5,175.833 290.5,169.5 Z"/></g>
<g><path style="opacity:0.895" fill="#c3e6e3" d="M 305.5,169.5 C 310.833,169.5 316.167,169.5 321.5,169.5C 327.5,175.833 333.5,182.167 339.5,188.5C 334.167,188.5 328.833,188.5 323.5,188.5C 317.5,182.167 311.5,175.833 305.5,169.5 Z"/></g>
<g><path style="opacity:0.895" fill="#c6e8e4" d="M 321.5,169.5 C 323.833,169.5 326.167,169.5 328.5,169.5C 334.5,175.833 340.5,182.167 346.5,188.5C 344.167,188.5 341.833,188.5 339.5,188.5C 333.5,182.167 327.5,175.833 321.5,169.5 Z"/></g>
<g><path style="opacity:0.895" fill="#cae9e6" d="M 328.5,169.5 C 335.167,169.5 341.833,169.5 348.5,169.5C 354.5,175.833 360.5,182.167 366.5,188.5C 359.833,188.5 353.167,188.5 346.5,188.5C 340.5,182.167 334.5,175.833 328.5,169.5 Z"/></g>
<g><path style="opacity:0.895" fill="#cdeae8" d="M 348.5,169.5 C 350.833,169.5 353.167,169.5 355.5,169.5C 361.5,175.833 367.5,182.167 373.5,188.5C 371.167,188.5 368.833,188.5 366.5,188.5C 360.5,182.167 354.5,175.833 348.5,169.5 Z"/></g>
<g><path style="opacity:0.895" fill="#d1ece9" d="M 355.5,169.5 C 363.5,169.5 371.5,169.5 379.5,169.5C 385.5,175.833 391.5,182.167 397.5,188.5C 389.5,188.5 381.5,188.5 373.5,188.5C 367.5,182.167 361.5,175.833 355.5,169.5 Z"/></g>
<g><path style="opacity:0.902" fill="#d6eeec" d="M 379.5,169.5 C 386.5,169.5 393.5,169.5 400.5,169.5C 403.5,173.167 406.833,176.5 410.5,179.5C 408.857,186.169 404.524,189.169 397.5,188.5C 391.5,182.167 385.5,175.833 379.5,169.5 Z"/></g>
<g><path style="opacity:0.647" fill="#d9f0ed" d="M 400.5,169.5 C 407.167,169.5 410.5,172.833 410.5,179.5C 406.833,176.5 403.5,173.167 400.5,169.5 Z"/></g>
<g><path style="opacity:0.942" fill="#7bc9c1" d="M 51.5,170.5 C 58.1667,176.833 64.8333,183.167 71.5,189.5C 73.1366,191.316 74.6366,193.316 76,195.5C 78.3279,196.999 80.4946,198.666 82.5,200.5C 89.1667,207.5 95.8333,214.5 102.5,221.5C 100.5,221.5 98.5,221.5 96.5,221.5C 81.8333,206.167 66.8333,191.167 51.5,176.5C 51.5,174.5 51.5,172.5 51.5,170.5 Z"/></g>
<g><path style="opacity:0.932" fill="#e1f3f1" d="M 443.5,170.5 C 449.167,175.833 454.833,181.167 460.5,186.5C 460.196,189.522 459.696,192.522 459,195.5C 458.617,196.056 458.117,196.389 457.5,196.5C 453.167,191.5 448.5,186.833 443.5,182.5C 443.5,178.5 443.5,174.5 443.5,170.5 Z"/></g>
<g><path style="opacity:0.82" fill="#b2dfdb" d="M 259.5,171.5 C 264.833,177.167 270.167,182.833 275.5,188.5C 271.486,188.666 267.486,188.499 263.5,188C 256.455,186.08 253.955,181.58 256,174.5C 257.039,173.29 258.206,172.29 259.5,171.5 Z"/></g>
<g><path style="opacity:0.965" fill="#79c8c0" d="M 51.5,176.5 C 66.8333,191.167 81.8333,206.167 96.5,221.5C 92.6575,221.971 88.9909,222.971 85.5,224.5C 75.1667,213.5 64.5,202.833 53.5,192.5C 52.7784,192.082 52.2784,191.416 52,190.5C 51.5008,185.845 51.3342,181.179 51.5,176.5 Z"/></g>
<g><path style="opacity:0.896" fill="#ddf1ef" d="M 443.5,182.5 C 448.5,186.833 453.167,191.5 457.5,196.5C 456.788,198.928 455.788,201.261 454.5,203.5C 452.371,206.691 449.704,209.358 446.5,211.5C 442.5,206.833 438.167,202.5 433.5,198.5C 438.119,193.986 441.452,188.653 443.5,182.5 Z"/></g>
<g><path style="opacity:0.935" fill="#77c7bf" d="M 53.5,192.5 C 64.5,202.833 75.1667,213.5 85.5,224.5C 84.5,224.5 83.5,224.5 82.5,224.5C 73.5,215.833 64.5,207.167 55.5,198.5C 54.3702,196.685 53.7036,194.685 53.5,192.5 Z"/></g>
<g><path style="opacity:0.846" fill="#73c5be" d="M 55.5,198.5 C 64.5,207.167 73.5,215.833 82.5,224.5C 77.2992,228.584 73.2992,233.584 70.5,239.5C 66.1667,234.5 61.5,229.833 56.5,225.5C 59.0433,220.615 62.3766,216.282 66.5,212.5C 61.8736,208.577 58.2069,203.91 55.5,198.5 Z"/></g>
<g><path style="opacity:0.744" fill="#d9f0ed" d="M 433.5,198.5 C 438.167,202.5 442.5,206.833 446.5,211.5C 446.789,214.412 448.289,216.412 451,217.5C 452.75,219.734 454.25,222.068 455.5,224.5C 447.167,216.833 439.167,208.833 431.5,200.5C 431.5,199.167 432.167,198.5 433.5,198.5 Z"/></g>
<g><path style="opacity:0.931" fill="#7fcac3" d="M 82.5,200.5 C 92.236,203.29 102.236,204.29 112.5,203.5C 118.167,209.5 123.833,215.5 129.5,221.5C 120.5,221.5 111.5,221.5 102.5,221.5C 95.8333,214.5 89.1667,207.5 82.5,200.5 Z"/></g>
<g><path style="opacity:0.953" fill="#d6eeec" d="M 431.5,200.5 C 439.167,208.833 447.167,216.833 455.5,224.5C 460.36,232.773 462.36,241.773 461.5,251.5C 445.167,235.833 429.167,219.833 413.5,203.5C 416.85,203.665 420.183,203.498 423.5,203C 425.909,201.293 428.575,200.46 431.5,200.5 Z"/></g>
<g><path style="opacity:0.939" fill="#85cdc6" d="M 112.5,203.5 C 118.167,203.5 123.833,203.5 129.5,203.5C 135.167,209.5 140.833,215.5 146.5,221.5C 140.833,221.5 135.167,221.5 129.5,221.5C 123.833,215.5 118.167,209.5 112.5,203.5 Z"/></g>
<g><path style="opacity:0.939" fill="#88cec7" d="M 129.5,203.5 C 130.5,203.5 131.5,203.5 132.5,203.5C 138.167,209.5 143.833,215.5 149.5,221.5C 148.5,221.5 147.5,221.5 146.5,221.5C 140.833,215.5 135.167,209.5 129.5,203.5 Z"/></g>
<g><path style="opacity:0.939" fill="#89cfc7" d="M 132.5,203.5 C 133.5,203.5 134.5,203.5 135.5,203.5C 141.167,209.5 146.833,215.5 152.5,221.5C 151.5,221.5 150.5,221.5 149.5,221.5C 143.833,215.5 138.167,209.5 132.5,203.5 Z"/></g>
<g><path style="opacity:0.939" fill="#8cd0c9" d="M 135.5,203.5 C 143.167,203.5 150.833,203.5 158.5,203.5C 164.167,209.5 169.833,215.5 175.5,221.5C 167.833,221.5 160.167,221.5 152.5,221.5C 146.833,215.5 141.167,209.5 135.5,203.5 Z"/></g>
<g><path style="opacity:0.939" fill="#92d2cc" d="M 158.5,203.5 C 165.5,203.5 172.5,203.5 179.5,203.5C 185.167,209.5 190.833,215.5 196.5,221.5C 189.5,221.5 182.5,221.5 175.5,221.5C 169.833,215.5 164.167,209.5 158.5,203.5 Z"/></g>
<g><path style="opacity:0.939" fill="#96d4ce" d="M 179.5,203.5 C 181.833,203.5 184.167,203.5 186.5,203.5C 192.167,209.5 197.833,215.5 203.5,221.5C 201.167,221.5 198.833,221.5 196.5,221.5C 190.833,215.5 185.167,209.5 179.5,203.5 Z"/></g>
<g><path style="opacity:0.939" fill="#99d5cf" d="M 186.5,203.5 C 192.833,203.5 199.167,203.5 205.5,203.5C 211.167,209.5 216.833,215.5 222.5,221.5C 216.167,221.5 209.833,221.5 203.5,221.5C 197.833,215.5 192.167,209.5 186.5,203.5 Z"/></g>
<g><path style="opacity:0.939" fill="#9fd7d2" d="M 205.5,203.5 C 212.5,203.5 219.5,203.5 226.5,203.5C 232.167,209.5 237.833,215.5 243.5,221.5C 236.5,221.5 229.5,221.5 222.5,221.5C 216.833,215.5 211.167,209.5 205.5,203.5 Z"/></g>
<g><path style="opacity:0.939" fill="#a3d9d4" d="M 226.5,203.5 C 228.167,203.5 229.833,203.5 231.5,203.5C 237.167,209.5 242.833,215.5 248.5,221.5C 246.833,221.5 245.167,221.5 243.5,221.5C 237.833,215.5 232.167,209.5 226.5,203.5 Z"/></g>
<g><path style="opacity:0.939" fill="#a4dad4" d="M 231.5,203.5 C 234.167,203.5 236.833,203.5 239.5,203.5C 245.167,209.5 250.833,215.5 256.5,221.5C 253.833,221.5 251.167,221.5 248.5,221.5C 242.833,215.5 237.167,209.5 231.5,203.5 Z"/></g>
<g><path style="opacity:0.939" fill="#a7dbd6" d="M 239.5,203.5 C 242.5,203.5 245.5,203.5 248.5,203.5C 254.167,209.5 259.833,215.5 265.5,221.5C 262.5,221.5 259.5,221.5 256.5,221.5C 250.833,215.5 245.167,209.5 239.5,203.5 Z"/></g>
<g><path style="opacity:0.939" fill="#abdcd8" d="M 248.5,203.5 C 255.833,203.5 263.167,203.5 270.5,203.5C 276.167,209.5 281.833,215.5 287.5,221.5C 280.167,221.5 272.833,221.5 265.5,221.5C 259.833,215.5 254.167,209.5 248.5,203.5 Z"/></g>
<g><path style="opacity:0.939" fill="#afdeda" d="M 270.5,203.5 C 273.167,203.5 275.833,203.5 278.5,203.5C 284.167,209.5 289.833,215.5 295.5,221.5C 292.833,221.5 290.167,221.5 287.5,221.5C 281.833,215.5 276.167,209.5 270.5,203.5 Z"/></g>
<g><path style="opacity:0.939" fill="#b2dfdb" d="M 278.5,203.5 C 282.833,203.5 287.167,203.5 291.5,203.5C 297.167,209.5 302.833,215.5 308.5,221.5C 304.167,221.5 299.833,221.5 295.5,221.5C 289.833,215.5 284.167,209.5 278.5,203.5 Z"/></g>
<g><path style="opacity:0.939" fill="#b5e1dc" d="M 291.5,203.5 C 292.833,203.5 294.167,203.5 295.5,203.5C 301.167,209.5 306.833,215.5 312.5,221.5C 311.167,221.5 309.833,221.5 308.5,221.5C 302.833,215.5 297.167,209.5 291.5,203.5 Z"/></g>
<g><path style="opacity:0.939" fill="#b8e2de" d="M 295.5,203.5 C 302.833,203.5 310.167,203.5 317.5,203.5C 323.167,209.5 328.833,215.5 334.5,221.5C 327.167,221.5 319.833,221.5 312.5,221.5C 306.833,215.5 301.167,209.5 295.5,203.5 Z"/></g>
<g><path style="opacity:0.939" fill="#bce3e0" d="M 317.5,203.5 C 319.833,203.5 322.167,203.5 324.5,203.5C 330.167,209.5 335.833,215.5 341.5,221.5C 339.167,221.5 336.833,221.5 334.5,221.5C 328.833,215.5 323.167,209.5 317.5,203.5 Z"/></g>
<g><path style="opacity:0.939" fill="#bfe4e1" d="M 324.5,203.5 C 329.5,203.5 334.5,203.5 339.5,203.5C 345.167,209.5 350.833,215.5 356.5,221.5C 351.5,221.5 346.5,221.5 341.5,221.5C 335.833,215.5 330.167,209.5 324.5,203.5 Z"/></g>
<g><path style="opacity:0.939" fill="#c3e6e3" d="M 339.5,203.5 C 344.833,203.5 350.167,203.5 355.5,203.5C 361.167,209.5 366.833,215.5 372.5,221.5C 367.167,221.5 361.833,221.5 356.5,221.5C 350.833,215.5 345.167,209.5 339.5,203.5 Z"/></g>
<g><path style="opacity:0.939" fill="#c6e8e4" d="M 355.5,203.5 C 357.833,203.5 360.167,203.5 362.5,203.5C 368.167,209.5 373.833,215.5 379.5,221.5C 377.167,221.5 374.833,221.5 372.5,221.5C 366.833,215.5 361.167,209.5 355.5,203.5 Z"/></g>
<g><path style="opacity:0.939" fill="#cae9e6" d="M 362.5,203.5 C 369.167,203.5 375.833,203.5 382.5,203.5C 388.167,209.5 393.833,215.5 399.5,221.5C 392.833,221.5 386.167,221.5 379.5,221.5C 373.833,215.5 368.167,209.5 362.5,203.5 Z"/></g>
<g><path style="opacity:0.939" fill="#cdeae8" d="M 382.5,203.5 C 384.833,203.5 387.167,203.5 389.5,203.5C 395.167,209.5 400.833,215.5 406.5,221.5C 404.167,221.5 401.833,221.5 399.5,221.5C 393.833,215.5 388.167,209.5 382.5,203.5 Z"/></g>
<g><path style="opacity:0.916" fill="#d1ece9" d="M 389.5,203.5 C 397.5,203.5 405.5,203.5 413.5,203.5C 429.167,219.833 445.167,235.833 461.5,251.5C 461.5,259.5 461.5,267.5 461.5,275.5C 455.5,269.833 449.5,264.167 443.5,258.5C 445.224,232.355 432.89,220.022 406.5,221.5C 400.833,215.5 395.167,209.5 389.5,203.5 Z"/></g>
<g><path style="opacity:0.904" fill="#6fc4bc" d="M 56.5,225.5 C 61.5,229.833 66.1667,234.5 70.5,239.5C 69.8413,242.455 69.5079,245.455 69.5,248.5C 63.8333,243.5 58.5,238.167 53.5,232.5C 54.2638,229.982 55.2638,227.649 56.5,225.5 Z"/></g>
<g><path style="opacity:0.913" fill="#6cc2ba" d="M 53.5,232.5 C 58.5,238.167 63.8333,243.5 69.5,248.5C 69.5,253.833 69.5,259.167 69.5,264.5C 63.5,258.833 57.5,253.167 51.5,247.5C 51.3345,243.486 51.5012,239.486 52,235.5C 52.2321,234.263 52.7321,233.263 53.5,232.5 Z"/></g>
<g><path style="opacity:0.947" fill="#79c8c0" d="M 113.5,237.5 C 121.167,245.833 129.167,253.833 137.5,261.5C 137.809,265.705 137.143,269.705 135.5,273.5C 123.833,262.5 112.5,251.167 101.5,239.5C 105.3,237.857 109.3,237.19 113.5,237.5 Z"/></g>
<g><path style="opacity:0.876" fill="#7bc9c2" d="M 113.5,237.5 C 116.785,237.928 119.785,238.928 122.5,240.5C 126.5,245.167 130.833,249.5 135.5,253.5C 136.371,256.112 137.037,258.779 137.5,261.5C 129.167,253.833 121.167,245.833 113.5,237.5 Z"/></g>
<g><path style="opacity:0.897" fill="#a3d9d4" d="M 265.5,237.5 C 271.5,243.833 277.5,250.167 283.5,256.5C 281.833,256.5 280.167,256.5 278.5,256.5C 272.833,250.5 267.167,244.5 261.5,238.5C 262.568,237.566 263.901,237.232 265.5,237.5 Z"/></g>
<g><path style="opacity:0.9" fill="#a4dad4" d="M 265.5,237.5 C 268.167,237.5 270.833,237.5 273.5,237.5C 279.5,243.833 285.5,250.167 291.5,256.5C 288.833,256.5 286.167,256.5 283.5,256.5C 277.5,250.167 271.5,243.833 265.5,237.5 Z"/></g>
<g><path style="opacity:0.9" fill="#a7dbd6" d="M 273.5,237.5 C 276.5,237.5 279.5,237.5 282.5,237.5C 288.5,243.833 294.5,250.167 300.5,256.5C 297.5,256.5 294.5,256.5 291.5,256.5C 285.5,250.167 279.5,243.833 273.5,237.5 Z"/></g>
<g><path style="opacity:0.9" fill="#abdcd8" d="M 282.5,237.5 C 289.833,237.5 297.167,237.5 304.5,237.5C 310.5,243.833 316.5,250.167 322.5,256.5C 315.167,256.5 307.833,256.5 300.5,256.5C 294.5,250.167 288.5,243.833 282.5,237.5 Z"/></g>
<g><path style="opacity:0.9" fill="#afdeda" d="M 304.5,237.5 C 307.167,237.5 309.833,237.5 312.5,237.5C 318.5,243.833 324.5,250.167 330.5,256.5C 327.833,256.5 325.167,256.5 322.5,256.5C 316.5,250.167 310.5,243.833 304.5,237.5 Z"/></g>
<g><path style="opacity:0.9" fill="#b2dfdb" d="M 312.5,237.5 C 316.833,237.5 321.167,237.5 325.5,237.5C 331.5,243.833 337.5,250.167 343.5,256.5C 339.167,256.5 334.833,256.5 330.5,256.5C 324.5,250.167 318.5,243.833 312.5,237.5 Z"/></g>
<g><path style="opacity:0.9" fill="#b5e1dc" d="M 325.5,237.5 C 326.833,237.5 328.167,237.5 329.5,237.5C 335.5,243.833 341.5,250.167 347.5,256.5C 346.167,256.5 344.833,256.5 343.5,256.5C 337.5,250.167 331.5,243.833 325.5,237.5 Z"/></g>
<g><path style="opacity:0.9" fill="#b8e2de" d="M 329.5,237.5 C 336.833,237.5 344.167,237.5 351.5,237.5C 357.5,243.833 363.5,250.167 369.5,256.5C 362.167,256.5 354.833,256.5 347.5,256.5C 341.5,250.167 335.5,243.833 329.5,237.5 Z"/></g>
<g><path style="opacity:0.9" fill="#bce3e0" d="M 351.5,237.5 C 353.833,237.5 356.167,237.5 358.5,237.5C 364.5,243.833 370.5,250.167 376.5,256.5C 374.167,256.5 371.833,256.5 369.5,256.5C 363.5,250.167 357.5,243.833 351.5,237.5 Z"/></g>
<g><path style="opacity:0.9" fill="#bfe4e1" d="M 358.5,237.5 C 363.5,237.5 368.5,237.5 373.5,237.5C 379.5,243.833 385.5,250.167 391.5,256.5C 386.5,256.5 381.5,256.5 376.5,256.5C 370.5,250.167 364.5,243.833 358.5,237.5 Z"/></g>
<g><path style="opacity:0.898" fill="#c3e6e3" d="M 373.5,237.5 C 378.833,237.5 384.167,237.5 389.5,237.5C 394.833,243.5 400.5,249.167 406.5,254.5C 406.082,255.222 405.416,255.722 404.5,256C 400.179,256.499 395.846,256.666 391.5,256.5C 385.5,250.167 379.5,243.833 373.5,237.5 Z"/></g>
<g><path style="opacity:0.895" fill="#c6e8e4" d="M 389.5,237.5 C 391.833,237.5 394.167,237.5 396.5,237.5C 400.833,242.167 405.167,246.833 409.5,251.5C 408.833,252.833 407.833,253.833 406.5,254.5C 400.5,249.167 394.833,243.5 389.5,237.5 Z"/></g>
<g><path style="opacity:0.742" fill="#c8e8e5" d="M 396.5,237.5 C 407.353,236.671 411.686,241.338 409.5,251.5C 405.167,246.833 400.833,242.167 396.5,237.5 Z"/></g>
<g><path style="opacity:0.816" fill="#a0d8d2" d="M 261.5,238.5 C 267.167,244.5 272.833,250.5 278.5,256.5C 272.824,256.666 267.157,256.499 261.5,256C 255.831,253.185 253.998,248.685 256,242.5C 257.451,240.536 259.284,239.203 261.5,238.5 Z"/></g>
<g><path style="opacity:0.908" fill="#77c7bf" d="M 101.5,239.5 C 112.5,251.167 123.833,262.5 135.5,273.5C 135.737,274.791 135.404,275.791 134.5,276.5C 129.167,271.5 123.833,266.5 118.5,261.5C 117.167,259.5 115.5,257.833 113.5,256.5C 108.5,251.167 103.5,245.833 98.5,240.5C 99.609,240.443 100.609,240.11 101.5,239.5 Z"/></g>
<g><path style="opacity:0.902" fill="#73c5bd" d="M 98.5,240.5 C 103.5,245.833 108.5,251.167 113.5,256.5C 106.001,256.654 103.001,260.321 104.5,267.5C 111.136,273.614 116.136,272.448 119.5,264C 118.748,263.329 118.414,262.496 118.5,261.5C 123.833,266.5 129.167,271.5 134.5,276.5C 131.219,282.794 126.219,286.794 119.5,288.5C 108.833,277.167 97.8333,266.167 86.5,255.5C 86.9612,253.45 87.6279,251.45 88.5,249.5C 91.4468,246.034 94.7801,243.034 98.5,240.5 Z"/></g>
<g><path style="opacity:0.429" fill="#7dcac2" d="M 122.5,240.5 C 129.174,242.508 133.508,246.841 135.5,253.5C 130.833,249.5 126.5,245.167 122.5,240.5 Z"/></g>
<g><path style="opacity:0.945" fill="#69c2b9" d="M 51.5,247.5 C 57.5,253.167 63.5,258.833 69.5,264.5C 69.5,266.833 69.5,269.167 69.5,271.5C 63.5,265.833 57.5,260.167 51.5,254.5C 51.5,252.167 51.5,249.833 51.5,247.5 Z"/></g>
<g><path style="opacity:0.932" fill="#66c0b7" d="M 51.5,254.5 C 57.5,260.167 63.5,265.833 69.5,271.5C 67.8479,295.848 79.1813,307.181 103.5,305.5C 109.5,311.833 115.5,318.167 121.5,324.5C 112.5,324.5 103.5,324.5 94.5,324.5C 80.5,309.833 66.1667,295.5 51.5,281.5C 51.5,272.5 51.5,263.5 51.5,254.5 Z"/></g>
<g><path style="opacity:0.946" fill="#6fc4bc" d="M 86.5,255.5 C 97.8333,266.167 108.833,277.167 119.5,288.5C 116.727,289.657 113.727,290.324 110.5,290.5C 102.167,281.5 93.5,272.833 84.5,264.5C 84.6997,261.37 85.3664,258.37 86.5,255.5 Z"/></g>
<g><path style="opacity:0.953" fill="#cdeae8" d="M 443.5,258.5 C 449.5,264.167 455.5,269.833 461.5,275.5C 461.5,277.833 461.5,280.167 461.5,282.5C 455.5,276.833 449.5,271.167 443.5,265.5C 443.5,263.167 443.5,260.833 443.5,258.5 Z"/></g>
<g><path style="opacity:0.81" fill="#6dc3ba" d="M 84.5,264.5 C 93.5,272.833 102.167,281.5 110.5,290.5C 94.8707,288.871 86.204,280.204 84.5,264.5 Z"/></g>
<g><path style="opacity:0.933" fill="#cae9e6" d="M 443.5,265.5 C 449.5,271.167 455.5,276.833 461.5,282.5C 461.357,288.564 460.024,294.231 457.5,299.5C 452.833,294.5 448.167,289.5 443.5,284.5C 443.5,278.167 443.5,271.833 443.5,265.5 Z"/></g>
<g><path style="opacity:0.914" fill="#abdcd8" d="M 317.5,273.5 C 324.648,272.508 331.981,272.175 339.5,272.5C 348.5,281.833 357.5,291.167 366.5,300.5C 361.256,297.913 355.923,295.413 350.5,293C 345.205,291.842 339.872,291.009 334.5,290.5C 329.167,284.5 323.5,278.833 317.5,273.5 Z"/></g>
<g><path style="opacity:0.947" fill="#afded9" d="M 339.5,272.5 C 342.713,272.19 345.713,272.523 348.5,273.5C 365.167,290.5 381.833,307.5 398.5,324.5C 395.833,324.5 393.167,324.5 390.5,324.5C 387.167,320.5 383.5,316.833 379.5,313.5C 375.446,308.956 371.113,304.623 366.5,300.5C 357.5,291.167 348.5,281.833 339.5,272.5 Z"/></g>
<g><path style="opacity:0.903" fill="#a7dbd6" d="M 317.5,273.5 C 323.5,278.833 329.167,284.5 334.5,290.5C 331.833,290.5 329.167,290.5 326.5,290.5C 321.167,285.5 315.833,280.5 310.5,275.5C 312.515,274.076 314.848,273.41 317.5,273.5 Z"/></g>
<g><path style="opacity:0.952" fill="#b2dfdb" d="M 348.5,273.5 C 355.57,274.84 362.237,277.173 368.5,280.5C 383.5,295.833 398.5,311.167 413.5,326.5C 408.659,324.848 403.659,324.182 398.5,324.5C 381.833,307.5 365.167,290.5 348.5,273.5 Z"/></g>
<g><path style="opacity:0.885" fill="#a4dad4" d="M 310.5,275.5 C 315.833,280.5 321.167,285.5 326.5,290.5C 324.343,291.407 322.01,292.073 319.5,292.5C 314.5,287.167 309.5,281.833 304.5,276.5C 306.5,276.167 308.5,275.833 310.5,275.5 Z"/></g>
<g><path style="opacity:0.909" fill="#a3d9d4" d="M 304.5,276.5 C 309.5,281.833 314.5,287.167 319.5,292.5C 318.167,292.5 316.833,292.5 315.5,292.5C 310.5,288.167 305.833,283.5 301.5,278.5C 302.5,277.833 303.5,277.167 304.5,276.5 Z"/></g>
<g><path style="opacity:0.887" fill="#9fd7d2" d="M 301.5,278.5 C 305.833,283.5 310.5,288.167 315.5,292.5C 310.971,295.13 306.305,297.463 301.5,299.5C 296.833,295.167 292.167,290.833 287.5,286.5C 291.833,283.331 296.5,280.664 301.5,278.5 Z"/></g>
<g><path style="opacity:0.855" fill="#b5e1dc" d="M 368.5,280.5 C 373.323,283.078 377.989,285.911 382.5,289C 387.974,294.07 392.974,299.57 397.5,305.5C 404.833,313.167 412.167,320.833 419.5,328.5C 417.315,328.296 415.315,327.63 413.5,326.5C 398.5,311.167 383.5,295.833 368.5,280.5 Z"/></g>
<g><path style="opacity:0.969" fill="#62beb6" d="M 51.5,281.5 C 66.1667,295.5 80.5,309.833 94.5,324.5C 91.2457,324.207 88.2457,324.874 85.5,326.5C 74.8333,315.167 63.8333,304.167 52.5,293.5C 51.5701,289.6 51.2367,285.6 51.5,281.5 Z"/></g>
<g><path style="opacity:0.91" fill="#c6e8e4" d="M 443.5,284.5 C 448.167,289.5 452.833,294.5 457.5,299.5C 456.488,300.872 455.488,302.205 454.5,303.5C 450.167,298.833 445.833,294.167 441.5,289.5C 442.024,287.694 442.691,286.028 443.5,284.5 Z"/></g>
<g><path style="opacity:0.893" fill="#99d5cf" d="M 287.5,286.5 C 292.167,290.833 296.833,295.167 301.5,299.5C 297.689,302.25 294.022,305.25 290.5,308.5C 286.5,303.833 282.167,299.5 277.5,295.5C 280.415,292.041 283.748,289.041 287.5,286.5 Z"/></g>
<g><path style="opacity:0.792" fill="#c4e6e3" d="M 441.5,289.5 C 445.833,294.167 450.167,298.833 454.5,303.5C 451.024,304.643 447.358,304.81 443.5,304C 439.04,299.615 438.373,294.782 441.5,289.5 Z"/></g>
<g><path style="opacity:0.864" fill="#5fbdb4" d="M 52.5,293.5 C 63.8333,304.167 74.8333,315.167 85.5,326.5C 81.0394,328.106 77.3727,330.772 74.5,334.5C 69.8333,330.167 65.1667,325.833 60.5,321.5C 62.492,319.072 64.8253,316.906 67.5,315C 60.3426,309.342 55.3426,302.175 52.5,293.5 Z"/></g>
<g><path style="opacity:0.896" fill="#96d4ce" d="M 277.5,295.5 C 282.167,299.5 286.5,303.833 290.5,308.5C 289.833,309.833 288.833,310.833 287.5,311.5C 282.833,307.5 278.5,303.167 274.5,298.5C 275.167,297.167 276.167,296.167 277.5,295.5 Z"/></g>
<g><path style="opacity:0.892" fill="#92d2cc" d="M 274.5,298.5 C 278.5,303.167 282.833,307.5 287.5,311.5C 284.828,315.88 282.161,320.213 279.5,324.5C 274.833,320.167 270.167,315.833 265.5,311.5C 267.753,306.592 270.753,302.259 274.5,298.5 Z"/></g>
<g><path style="opacity:0.907" fill="#69c2b9" d="M 103.5,305.5 C 105.833,305.5 108.167,305.5 110.5,305.5C 116.5,311.833 122.5,318.167 128.5,324.5C 126.167,324.5 123.833,324.5 121.5,324.5C 115.5,318.167 109.5,311.833 103.5,305.5 Z"/></g>
<g><path style="opacity:0.907" fill="#6cc2ba" d="M 110.5,305.5 C 115.833,305.5 121.167,305.5 126.5,305.5C 132.5,311.833 138.5,318.167 144.5,324.5C 139.167,324.5 133.833,324.5 128.5,324.5C 122.5,318.167 116.5,311.833 110.5,305.5 Z"/></g>
<g><path style="opacity:0.907" fill="#6fc4bc" d="M 126.5,305.5 C 130.167,305.5 133.833,305.5 137.5,305.5C 143.5,311.833 149.5,318.167 155.5,324.5C 151.833,324.5 148.167,324.5 144.5,324.5C 138.5,318.167 132.5,311.833 126.5,305.5 Z"/></g>
<g><path style="opacity:0.907" fill="#73c5bd" d="M 137.5,305.5 C 146.167,305.5 154.833,305.5 163.5,305.5C 169.5,311.833 175.5,318.167 181.5,324.5C 172.833,324.5 164.167,324.5 155.5,324.5C 149.5,318.167 143.5,311.833 137.5,305.5 Z"/></g>
<g><path style="opacity:0.907" fill="#77c7bf" d="M 163.5,305.5 C 164.833,305.5 166.167,305.5 167.5,305.5C 173.5,311.833 179.5,318.167 185.5,324.5C 184.167,324.5 182.833,324.5 181.5,324.5C 175.5,318.167 169.5,311.833 163.5,305.5 Z"/></g>
<g><path style="opacity:0.907" fill="#79c8c0" d="M 167.5,305.5 C 172.167,305.5 176.833,305.5 181.5,305.5C 187.5,311.833 193.5,318.167 199.5,324.5C 194.833,324.5 190.167,324.5 185.5,324.5C 179.5,318.167 173.5,311.833 167.5,305.5 Z"/></g>
<g><path style="opacity:0.907" fill="#7bc9c1" d="M 181.5,305.5 C 183.5,305.5 185.5,305.5 187.5,305.5C 193.5,311.833 199.5,318.167 205.5,324.5C 203.5,324.5 201.5,324.5 199.5,324.5C 193.5,318.167 187.5,311.833 181.5,305.5 Z"/></g>
<g><path style="opacity:0.907" fill="#7fcac3" d="M 187.5,305.5 C 196.5,305.5 205.5,305.5 214.5,305.5C 220.5,311.833 226.5,318.167 232.5,324.5C 223.5,324.5 214.5,324.5 205.5,324.5C 199.5,318.167 193.5,311.833 187.5,305.5 Z"/></g>
<g><path style="opacity:0.894" fill="#85cdc6" d="M 214.5,305.5 C 220.167,305.5 225.833,305.5 231.5,305.5C 235.833,310.5 240.5,315.167 245.5,319.5C 242.419,323.96 238.086,325.627 232.5,324.5C 226.5,318.167 220.5,311.833 214.5,305.5 Z"/></g>
<g><path style="opacity:0.866" fill="#88cec7" d="M 231.5,305.5 C 232.5,305.5 233.5,305.5 234.5,305.5C 238.167,309.5 241.833,313.5 245.5,317.5C 245.5,318.167 245.5,318.833 245.5,319.5C 240.5,315.167 235.833,310.5 231.5,305.5 Z"/></g>
<g><path style="opacity:0.785" fill="#89cfc8" d="M 234.5,305.5 C 242.948,305.598 246.615,309.598 245.5,317.5C 241.833,313.5 238.167,309.5 234.5,305.5 Z"/></g>
<g><path style="opacity:0.934" fill="#b8e2de" d="M 397.5,305.5 C 406.846,305.557 415.846,307.224 424.5,310.5C 434.833,321.5 445.5,332.167 456.5,342.5C 457.558,343.6 458.392,344.934 459,346.5C 460.977,354.039 461.811,361.706 461.5,369.5C 454.167,362.5 446.833,355.5 439.5,348.5C 434.896,339.896 428.229,333.229 419.5,328.5C 412.167,320.833 404.833,313.167 397.5,305.5 Z"/></g>
<g><path style="opacity:0.738" fill="#bce3e0" d="M 424.5,310.5 C 439.613,316.73 450.28,327.397 456.5,342.5C 445.5,332.167 434.833,321.5 424.5,310.5 Z"/></g>
<g><path style="opacity:0.895" fill="#8cd0c9" d="M 265.5,311.5 C 270.167,315.833 274.833,320.167 279.5,324.5C 276.982,330.372 275.315,336.372 274.5,342.5C 269.167,337.5 263.833,332.5 258.5,327.5C 260.337,321.838 262.67,316.505 265.5,311.5 Z"/></g>
<g><path style="opacity:0.458" fill="#added8" d="M 379.5,313.5 C 383.5,316.833 387.167,320.5 390.5,324.5C 388.692,324.509 387.025,324.009 385.5,323C 383.645,319.665 381.645,316.498 379.5,313.5 Z"/></g>
<g><path style="opacity:0.901" fill="#5bbcb2" d="M 60.5,321.5 C 65.1667,325.833 69.8333,330.167 74.5,334.5C 71.6542,338.701 69.9875,343.368 69.5,348.5C 64.1667,343.5 58.8333,338.5 53.5,333.5C 55.3339,329.159 57.6673,325.159 60.5,321.5 Z"/></g>
<g><path style="opacity:0.906" fill="#89cfc7" d="M 258.5,327.5 C 263.833,332.5 269.167,337.5 274.5,342.5C 274.5,343.5 274.5,344.5 274.5,345.5C 268.833,340.5 263.5,335.167 258.5,329.5C 258.5,328.833 258.5,328.167 258.5,327.5 Z"/></g>
<g><path style="opacity:0.879" fill="#88cec7" d="M 258.5,329.5 C 263.5,335.167 268.833,340.5 274.5,345.5C 274.5,346.5 274.5,347.5 274.5,348.5C 268.833,343.167 263.167,337.833 257.5,332.5C 257.263,331.209 257.596,330.209 258.5,329.5 Z"/></g>
<g><path style="opacity:0.903" fill="#85cdc6" d="M 257.5,332.5 C 263.167,337.833 268.833,343.167 274.5,348.5C 274.201,353.779 271.535,357.113 266.5,358.5C 261.5,353.167 256.5,347.833 251.5,342.5C 255.485,340.556 257.485,337.223 257.5,332.5 Z"/></g>
<g><path style="opacity:0.907" fill="#58bab1" d="M 53.5,333.5 C 58.8333,338.5 64.1667,343.5 69.5,348.5C 69.5,354.167 69.5,359.833 69.5,365.5C 63.5,359.833 57.5,354.167 51.5,348.5C 51.0915,343.303 51.7581,338.303 53.5,333.5 Z"/></g>
<g><path style="opacity:0.955" fill="#62beb6" d="M 111.5,340.5 C 119.833,349.5 128.5,358.167 137.5,366.5C 137.793,369.754 137.126,372.754 135.5,375.5C 123.833,364.5 112.5,353.167 101.5,341.5C 104.764,340.676 108.098,340.342 111.5,340.5 Z"/></g>
<g><path style="opacity:0.829" fill="#64bfb7" d="M 111.5,340.5 C 127.739,341.405 136.405,350.072 137.5,366.5C 128.5,358.167 119.833,349.5 111.5,340.5 Z"/></g>
<g><path style="opacity:0.9" fill="#5fbdb4" d="M 101.5,341.5 C 112.5,353.167 123.833,364.5 135.5,375.5C 135.509,377.308 135.009,378.975 134,380.5C 132.272,383.33 130.105,385.663 127.5,387.5C 122.5,383.167 117.833,378.5 113.5,373.5C 121.485,367.377 120.651,362.377 111,358.5C 107.865,359.311 105.365,360.977 103.5,363.5C 98.8333,359.5 94.5,355.167 90.5,350.5C 93.2452,346.426 96.9119,343.426 101.5,341.5 Z"/></g>
<g><path style="opacity:0.894" fill="#80cbc3" d="M 251.5,342.5 C 256.5,347.833 261.5,353.167 266.5,358.5C 259.359,358.861 253.026,361.194 247.5,365.5C 242.833,361.5 238.5,357.167 234.5,352.5C 239.09,347.37 244.757,344.037 251.5,342.5 Z"/></g>
<g><path style="opacity:0.945" fill="#54b9af" d="M 51.5,348.5 C 57.5,354.167 63.5,359.833 69.5,365.5C 65.3402,398.262 79.6735,412.596 112.5,408.5C 118.167,414.5 123.833,420.5 129.5,426.5C 117.833,426.5 106.167,426.5 94.5,426.5C 80.5,411.833 66.1667,397.5 51.5,383.5C 51.5,371.833 51.5,360.167 51.5,348.5 Z"/></g>
<g><path style="opacity:0.891" fill="#b5e1dc" d="M 439.5,348.5 C 446.833,355.5 454.167,362.5 461.5,369.5C 461.5,370.833 461.5,372.167 461.5,373.5C 454.833,367.167 448.167,360.833 441.5,354.5C 440.27,352.703 439.604,350.703 439.5,348.5 Z"/></g>
<g><path style="opacity:0.924" fill="#5bbcb2" d="M 90.5,350.5 C 94.5,355.167 98.8333,359.5 103.5,363.5C 103.167,370.5 106.5,373.833 113.5,373.5C 117.833,378.5 122.5,383.167 127.5,387.5C 123.205,390.932 118.205,392.598 112.5,392.5C 103.5,382.833 94.1667,373.5 84.5,364.5C 85.3573,360.44 86.524,356.44 88,352.5C 88.7083,351.619 89.5416,350.953 90.5,350.5 Z"/></g>
<g><path style="opacity:0.874" fill="#7bc9c1" d="M 234.5,352.5 C 238.5,357.167 242.833,361.5 247.5,365.5C 247.5,367.5 246.5,368.5 244.5,368.5C 240.167,364.5 235.833,360.5 231.5,356.5C 231.738,354.596 232.738,353.262 234.5,352.5 Z"/></g>
<g><path style="opacity:0.924" fill="#b2dfdb" d="M 441.5,354.5 C 448.167,360.833 454.833,367.167 461.5,373.5C 460.674,377.136 460.008,380.803 459.5,384.5C 454.167,379.5 448.833,374.5 443.5,369.5C 443.708,364.365 443.041,359.365 441.5,354.5 Z"/></g>
<g><path style="opacity:0.909" fill="#79c8c0" d="M 231.5,356.5 C 235.833,360.5 240.167,364.5 244.5,368.5C 243.169,371.829 241.836,375.162 240.5,378.5C 235.5,374.167 230.833,369.5 226.5,364.5C 226.701,360.87 228.368,358.203 231.5,356.5 Z"/></g>
<g><path style="opacity:0.844" fill="#59bbb1" d="M 84.5,364.5 C 94.1667,373.5 103.5,382.833 112.5,392.5C 94.9275,391.594 85.5942,382.261 84.5,364.5 Z"/></g>
<g><path style="opacity:0.912" fill="#77c7bf" d="M 226.5,364.5 C 230.833,369.5 235.5,374.167 240.5,378.5C 240.443,379.609 240.11,380.609 239.5,381.5C 234.5,376.833 229.5,372.167 224.5,367.5C 224.427,365.973 225.094,364.973 226.5,364.5 Z"/></g>
<g><path style="opacity:0.934" fill="#73c5bd" d="M 224.5,367.5 C 229.5,372.167 234.5,376.833 239.5,381.5C 240.849,398.182 249.849,407.182 266.5,408.5C 272.167,414.5 277.833,420.5 283.5,426.5C 274.318,426.827 265.318,426.493 256.5,425.5C 245.5,413.833 234.167,402.5 222.5,391.5C 220.899,383.239 221.565,375.239 224.5,367.5 Z"/></g>
<g><path style="opacity:0.912" fill="#afdeda" d="M 443.5,369.5 C 448.833,374.5 454.167,379.5 459.5,384.5C 458.87,386.75 457.87,388.75 456.5,390.5C 452.167,385.5 447.5,380.833 442.5,376.5C 442.674,374.139 443.007,371.806 443.5,369.5 Z"/></g>
<g><path style="opacity:0.893" fill="#abdcd8" d="M 442.5,376.5 C 447.5,380.833 452.167,385.5 456.5,390.5C 456.108,392.179 455.608,393.846 455,395.5C 452.812,398.567 450.645,401.567 448.5,404.5C 444.5,399.833 440.167,395.5 435.5,391.5C 437.986,386.524 440.319,381.524 442.5,376.5 Z"/></g>
<g><path style="opacity:0.981" fill="#52b8ad" d="M 51.5,383.5 C 66.1667,397.5 80.5,411.833 94.5,426.5C 92.5,426.5 90.5,426.5 88.5,426.5C 76.5,413.833 64.1667,401.5 51.5,389.5C 51.5,387.5 51.5,385.5 51.5,383.5 Z"/></g>
<g><path style="opacity:0.846" fill="#50b7ad" d="M 51.5,389.5 C 64.1667,401.5 76.5,413.833 88.5,426.5C 67.5161,422.898 55.1827,410.564 51.5,389.5 Z"/></g>
<g><path style="opacity:0.836" fill="#6fc4bc" d="M 222.5,391.5 C 234.167,402.5 245.5,413.833 256.5,425.5C 237.541,421.875 226.208,410.541 222.5,391.5 Z"/></g>
<g><path style="opacity:0.898" fill="#a7dbd6" d="M 435.5,391.5 C 440.167,395.5 444.5,399.833 448.5,404.5C 447.527,406.139 446.194,407.473 444.5,408.5C 440.167,404.5 435.833,400.5 431.5,396.5C 431.343,393.656 432.676,391.989 435.5,391.5 Z"/></g>
<g><path style="opacity:0.892" fill="#a4dad4" d="M 431.5,396.5 C 435.833,400.5 440.167,404.5 444.5,408.5C 443.415,410.587 441.749,411.92 439.5,412.5C 435.5,408.167 431.5,403.833 427.5,399.5C 427.694,397.088 429.027,396.088 431.5,396.5 Z"/></g>
<g><path style="opacity:0.898" fill="#a3d9d4" d="M 427.5,399.5 C 431.5,403.833 435.5,408.167 439.5,412.5C 439.5,413.833 438.833,414.5 437.5,414.5C 432.833,410.167 428.167,405.833 423.5,401.5C 424.671,400.655 426.005,399.989 427.5,399.5 Z"/></g>
<g><path style="opacity:0.895" fill="#9fd7d2" d="M 423.5,401.5 C 428.167,405.833 432.833,410.167 437.5,414.5C 433.591,418.39 428.925,421.057 423.5,422.5C 418.833,417.5 414.167,412.5 409.5,407.5C 414.304,405.8 418.971,403.8 423.5,401.5 Z"/></g>
<g><path style="opacity:0.929" fill="#99d5cf" d="M 409.5,407.5 C 414.167,412.5 418.833,417.5 423.5,422.5C 418.745,424.325 413.745,425.658 408.5,426.5C 402.833,420.5 397.167,414.5 391.5,408.5C 397.559,408.746 403.559,408.413 409.5,407.5 Z"/></g>
<g><path style="opacity:0.954" fill="#58bab1" d="M 112.5,408.5 C 118.167,408.5 123.833,408.5 129.5,408.5C 135.167,414.5 140.833,420.5 146.5,426.5C 140.833,426.5 135.167,426.5 129.5,426.5C 123.833,420.5 118.167,414.5 112.5,408.5 Z"/></g>
<g><path style="opacity:0.954" fill="#5bbcb2" d="M 129.5,408.5 C 135.833,408.5 142.167,408.5 148.5,408.5C 154.167,414.5 159.833,420.5 165.5,426.5C 159.167,426.5 152.833,426.5 146.5,426.5C 140.833,420.5 135.167,414.5 129.5,408.5 Z"/></g>
<g><path style="opacity:0.954" fill="#5fbdb4" d="M 148.5,408.5 C 155.167,408.5 161.833,408.5 168.5,408.5C 174.167,414.5 179.833,420.5 185.5,426.5C 178.833,426.5 172.167,426.5 165.5,426.5C 159.833,420.5 154.167,414.5 148.5,408.5 Z"/></g>
<g><path style="opacity:0.954" fill="#62beb6" d="M 168.5,408.5 C 172.167,408.5 175.833,408.5 179.5,408.5C 185.167,414.5 190.833,420.5 196.5,426.5C 192.833,426.5 189.167,426.5 185.5,426.5C 179.833,420.5 174.167,414.5 168.5,408.5 Z"/></g>
<g><path style="opacity:0.93" fill="#66c0b7" d="M 179.5,408.5 C 188.5,408.5 197.5,408.5 206.5,408.5C 209.167,411.833 212.167,414.833 215.5,417.5C 215.342,421.172 213.675,424.005 210.5,426C 205.845,426.499 201.179,426.666 196.5,426.5C 190.833,420.5 185.167,414.5 179.5,408.5 Z"/></g>
<g><path style="opacity:0.532" fill="#69c2b8" d="M 206.5,408.5 C 211.833,409.167 214.833,412.167 215.5,417.5C 212.167,414.833 209.167,411.833 206.5,408.5 Z"/></g>
<g><path style="opacity:0.954" fill="#77c7bf" d="M 266.5,408.5 C 267.833,408.5 269.167,408.5 270.5,408.5C 276.167,414.5 281.833,420.5 287.5,426.5C 286.167,426.5 284.833,426.5 283.5,426.5C 277.833,420.5 272.167,414.5 266.5,408.5 Z"/></g>
<g><path style="opacity:0.954" fill="#79c8c0" d="M 270.5,408.5 C 275.167,408.5 279.833,408.5 284.5,408.5C 290.167,414.5 295.833,420.5 301.5,426.5C 296.833,426.5 292.167,426.5 287.5,426.5C 281.833,420.5 276.167,414.5 270.5,408.5 Z"/></g>
<g><path style="opacity:0.954" fill="#7bc9c1" d="M 284.5,408.5 C 286.5,408.5 288.5,408.5 290.5,408.5C 296.167,414.5 301.833,420.5 307.5,426.5C 305.5,426.5 303.5,426.5 301.5,426.5C 295.833,420.5 290.167,414.5 284.5,408.5 Z"/></g>
<g><path style="opacity:0.954" fill="#7fcac3" d="M 290.5,408.5 C 299.5,408.5 308.5,408.5 317.5,408.5C 323.167,414.5 328.833,420.5 334.5,426.5C 325.5,426.5 316.5,426.5 307.5,426.5C 301.833,420.5 296.167,414.5 290.5,408.5 Z"/></g>
<g><path style="opacity:0.954" fill="#85cdc6" d="M 317.5,408.5 C 323.167,408.5 328.833,408.5 334.5,408.5C 340.167,414.5 345.833,420.5 351.5,426.5C 345.833,426.5 340.167,426.5 334.5,426.5C 328.833,420.5 323.167,414.5 317.5,408.5 Z"/></g>
<g><path style="opacity:0.954" fill="#88cec7" d="M 334.5,408.5 C 335.5,408.5 336.5,408.5 337.5,408.5C 343.167,414.5 348.833,420.5 354.5,426.5C 353.5,426.5 352.5,426.5 351.5,426.5C 345.833,420.5 340.167,414.5 334.5,408.5 Z"/></g>
<g><path style="opacity:0.954" fill="#89cfc7" d="M 337.5,408.5 C 338.5,408.5 339.5,408.5 340.5,408.5C 346.167,414.5 351.833,420.5 357.5,426.5C 356.5,426.5 355.5,426.5 354.5,426.5C 348.833,420.5 343.167,414.5 337.5,408.5 Z"/></g>
<g><path style="opacity:0.954" fill="#8cd0c9" d="M 340.5,408.5 C 348.167,408.5 355.833,408.5 363.5,408.5C 369.167,414.5 374.833,420.5 380.5,426.5C 372.833,426.5 365.167,426.5 357.5,426.5C 351.833,420.5 346.167,414.5 340.5,408.5 Z"/></g>
<g><path style="opacity:0.954" fill="#92d2cc" d="M 363.5,408.5 C 370.5,408.5 377.5,408.5 384.5,408.5C 390.167,414.5 395.833,420.5 401.5,426.5C 394.5,426.5 387.5,426.5 380.5,426.5C 374.833,420.5 369.167,414.5 363.5,408.5 Z"/></g>
<g><path style="opacity:0.945" fill="#96d4ce" d="M 384.5,408.5 C 386.833,408.5 389.167,408.5 391.5,408.5C 397.167,414.5 402.833,420.5 408.5,426.5C 406.167,426.5 403.833,426.5 401.5,426.5C 395.833,420.5 390.167,414.5 384.5,408.5 Z"/></g>
</svg>
