<?xml version="1.0" encoding="UTF-8"?>
<!DOCTYPE svg PUBLIC "-//W3C//DTD SVG 1.1//EN" "http://www.w3.org/Graphics/SVG/1.1/DTD/svg11.dtd">
<svg xmlns="http://www.w3.org/2000/svg" version="1.1" width="400px" height="77px" style="shape-rendering:geometricPrecision; text-rendering:geometricPrecision; image-rendering:optimizeQuality; fill-rule:evenodd; clip-rule:evenodd" xmlns:xlink="http://www.w3.org/1999/xlink">
<g><path style="opacity:0.507" fill="#496d69" d="M 24.5,1.5 C 26.1667,1.5 27.8333,1.5 29.5,1.5C 30.8333,3.16667 32.1667,4.83333 33.5,6.5C 30.8333,6.5 28.1667,6.5 25.5,6.5C 25.4894,4.98261 24.8228,3.81595 23.5,3C 24.056,2.61742 24.3893,2.11742 24.5,1.5 Z"/></g>
<g><path style="opacity:0.533" fill="#4a6865" d="M 29.5,1.5 C 30.8333,1.5 32.1667,1.5 33.5,1.5C 34.7079,4.04419 36.7079,5.37752 39.5,5.5C 39.5,5.83333 39.5,6.16667 39.5,6.5C 37.5,6.5 35.5,6.5 33.5,6.5C 32.1667,4.83333 30.8333,3.16667 29.5,1.5 Z"/></g>
<g><path style="opacity:0.71" fill="#4a6562" d="M 33.5,1.5 C 34.8333,1.5 36.1667,1.5 37.5,1.5C 38.6005,2.60486 39.2671,3.93819 39.5,5.5C 36.7079,5.37752 34.7079,4.04419 33.5,1.5 Z"/></g>
<g><path style="opacity:0.566" fill="#4a605e" d="M 37.5,1.5 C 39.8333,1.5 42.1667,1.5 44.5,1.5C 46.4011,2.93504 46.7345,4.60171 45.5,6.5C 43.5,6.5 41.5,6.5 39.5,6.5C 39.5,6.16667 39.5,5.83333 39.5,5.5C 39.2671,3.93819 38.6005,2.60486 37.5,1.5 Z"/></g>
<g><path style="opacity:0.526" fill="#495a59" d="M 44.5,1.5 C 47.1667,1.5 49.8333,1.5 52.5,1.5C 53.9418,2.81953 54.6085,4.4862 54.5,6.5C 51.5,6.5 48.5,6.5 45.5,6.5C 46.7345,4.60171 46.4011,2.93504 44.5,1.5 Z"/></g>
<g><path style="opacity:0.572" fill="#485554" d="M 52.5,1.5 C 54.8333,1.5 57.1667,1.5 59.5,1.5C 60.925,2.92203 61.925,4.5887 62.5,6.5C 59.8333,6.5 57.1667,6.5 54.5,6.5C 54.6085,4.4862 53.9418,2.81953 52.5,1.5 Z"/></g>
<g><path style="opacity:0.6" fill="#48504f" d="M 59.5,1.5 C 62.3198,1.24751 64.9865,1.74751 67.5,3C 71.8137,8.46833 75.4803,14.3017 78.5,20.5C 76.2034,18.7059 74.0367,16.7059 72,14.5C 71.7216,15.4158 71.2216,16.0825 70.5,16.5C 68.857,12.2064 66.1903,8.87303 62.5,6.5C 61.925,4.5887 60.925,2.92203 59.5,1.5 Z"/></g>
<g><path style="opacity:0.821" fill="#484848" d="M 352.5,2.5 C 355.127,3.09157 357.794,3.4249 360.5,3.5C 360.167,6.16667 359.833,8.83333 359.5,11.5C 353.174,11.1737 350.841,14.1737 352.5,20.5C 358.868,20.1703 365.202,20.5037 371.5,21.5C 374,27.8333 376.5,34.1667 379,40.5C 381.837,33.9829 384.671,27.4829 387.5,21C 391.211,20.1747 394.878,20.3414 398.5,21.5C 391.26,38.3918 383.927,55.2251 376.5,72C 373.118,72.8236 369.784,72.657 366.5,71.5C 369.073,65.275 371.74,59.1084 374.5,53C 369.81,43.2683 365.31,33.435 361,23.5C 360.506,25.1341 360.34,26.8008 360.5,28.5C 357.833,28.5 355.167,28.5 352.5,28.5C 352.5,37.8333 352.5,47.1667 352.5,56.5C 349.223,56.7839 346.057,56.4505 343,55.5C 342.5,46.5062 342.334,37.5062 342.5,28.5C 340.833,28.5 339.167,28.5 337.5,28.5C 337.833,25.8333 338.167,23.1667 338.5,20.5C 339.833,20.5 341.167,20.5 342.5,20.5C 340.463,11.1359 343.796,5.13591 352.5,2.5 Z"/></g>
<g><path style="opacity:1" fill="#4a7470" d="M 24.5,1.5 C 24.3893,2.11742 24.056,2.61742 23.5,3C 24.8228,3.81595 25.4894,4.98261 25.5,6.5C 24.5,6.5 23.5,6.5 22.5,6.5C 20.9731,6.57298 19.9731,5.90632 19.5,4.5C 20.6594,2.74973 22.326,1.74973 24.5,1.5 Z"/></g>
<g><path style="opacity:0.997" fill="#4a7975" d="M 19.5,4.5 C 19.9731,5.90632 20.9731,6.57298 22.5,6.5C 21.7368,8.36841 20.7368,10.0351 19.5,11.5C 18.8333,10.1667 17.8333,9.16667 16.5,8.5C 16.7376,6.59565 17.7376,5.26231 19.5,4.5 Z"/></g>
<g><path style="opacity:0.671" fill="#484848" d="M 324.5,6.5 C 327.833,6.5 331.167,6.5 334.5,6.5C 334.5,9.83333 334.5,13.1667 334.5,16.5C 324.614,19.2539 321.281,15.9206 324.5,6.5 Z"/></g>
<g><path style="opacity:0.934" fill="#4a7f7a" d="M 16.5,8.5 C 17.8333,9.16667 18.8333,10.1667 19.5,11.5C 19.1667,12.1667 18.8333,12.8333 18.5,13.5C 16.847,13.3404 15.5137,12.6737 14.5,11.5C 14.9321,10.2905 15.5987,9.29049 16.5,8.5 Z"/></g>
<g><path style="opacity:0.827" fill="#484848" d="M 308.5,11.5 C 309.833,11.5 311.167,11.5 312.5,11.5C 312.5,14.5 312.5,17.5 312.5,20.5C 315.167,20.5 317.833,20.5 320.5,20.5C 320.5,23.1667 320.5,25.8333 320.5,28.5C 317.833,28.5 315.167,28.5 312.5,28.5C 312.17,34.8682 312.504,41.2015 313.5,47.5C 315.776,48.2132 318.109,48.7132 320.5,49C 319.565,51.3806 319.232,53.8806 319.5,56.5C 315.486,56.6655 311.486,56.4988 307.5,56C 305.274,54.7727 303.774,52.9393 303,50.5C 302.5,43.1742 302.334,35.8409 302.5,28.5C 300.833,28.5 299.167,28.5 297.5,28.5C 297.337,26.1432 297.503,23.8098 298,21.5C 299.356,20.6198 300.856,20.2865 302.5,20.5C 302.5,17.8333 302.5,15.1667 302.5,12.5C 304.735,12.7947 306.735,12.4614 308.5,11.5 Z"/></g>
<g><path style="opacity:0.815" fill="#4a857f" d="M 14.5,11.5 C 15.5137,12.6737 16.847,13.3404 18.5,13.5C 15.6935,16.0443 16.3601,17.0443 20.5,16.5C 21.5,17.8333 22.5,19.1667 23.5,20.5C 20.8333,20.5 18.1667,20.5 15.5,20.5C 14.1363,18.8089 12.803,17.1423 11.5,15.5C 12.5116,14.1283 13.5116,12.795 14.5,11.5 Z"/></g>
<g><path style="opacity:0.777" fill="#485453" d="M 78.5,20.5 C 79.4731,22.9479 79.8064,25.6146 79.5,28.5C 78.3951,27.3995 77.0618,26.7329 75.5,26.5C 75.6322,22.9678 73.9656,20.9678 70.5,20.5C 69.5,19.1667 68.5,17.8333 67.5,16.5C 68.5,16.5 69.5,16.5 70.5,16.5C 71.2216,16.0825 71.7216,15.4158 72,14.5C 74.0367,16.7059 76.2034,18.7059 78.5,20.5 Z"/></g>
<g><path style="opacity:0.657" fill="#4b8c86" d="M 11.5,15.5 C 12.803,17.1423 14.1363,18.8089 15.5,20.5C 14.5,21.1667 13.5,21.8333 12.5,22.5C 11.1667,21.8333 10.1667,20.8333 9.5,19.5C 10.1667,18.1667 10.8333,16.8333 11.5,15.5 Z"/></g>
<g><path style="opacity:0.696" fill="#4a736f" d="M 32.5,16.5 C 34.5,16.5 36.5,16.5 38.5,16.5C 38.7329,18.0618 39.3995,19.3951 40.5,20.5C 38.1667,20.5 35.8333,20.5 33.5,20.5C 33.1667,19.1667 32.8333,17.8333 32.5,16.5 Z"/></g>
<g><path style="opacity:0.749" fill="#496e6a" d="M 38.5,16.5 C 40.8333,16.5 43.1667,16.5 45.5,16.5C 45.8333,17.8333 46.1667,19.1667 46.5,20.5C 44.5,20.5 42.5,20.5 40.5,20.5C 39.3995,19.3951 38.7329,18.0618 38.5,16.5 Z"/></g>
<g><path style="opacity:0.749" fill="#4a6865" d="M 45.5,16.5 C 46.5,16.5 47.5,16.5 48.5,16.5C 49.6005,17.6049 50.2671,18.9382 50.5,20.5C 49.1667,20.5 47.8333,20.5 46.5,20.5C 46.1667,19.1667 45.8333,17.8333 45.5,16.5 Z"/></g>
<g><path style="opacity:0.714" fill="#4a6562" d="M 48.5,16.5 C 50.1667,16.5 51.8333,16.5 53.5,16.5C 53.8333,17.8333 54.1667,19.1667 54.5,20.5C 53.1667,20.5 51.8333,20.5 50.5,20.5C 50.2671,18.9382 49.6005,17.6049 48.5,16.5 Z"/></g>
<g><path style="opacity:0.732" fill="#49605e" d="M 53.5,16.5 C 55.5,16.5 57.5,16.5 59.5,16.5C 60.6005,17.6049 61.2671,18.9382 61.5,20.5C 59.1667,20.5 56.8333,20.5 54.5,20.5C 54.1667,19.1667 53.8333,17.8333 53.5,16.5 Z"/></g>
<g><path style="opacity:0.742" fill="#495a58" d="M 59.5,16.5 C 62.1667,16.5 64.8333,16.5 67.5,16.5C 68.5,17.8333 69.5,19.1667 70.5,20.5C 67.5,20.5 64.5,20.5 61.5,20.5C 61.2671,18.9382 60.6005,17.6049 59.5,16.5 Z"/></g>
<g><path style="opacity:0.8" fill="#4a7e7a" d="M 20.5,16.5 C 22.5,16.5 24.5,16.5 26.5,16.5C 26.7706,18.4305 27.7706,19.7638 29.5,20.5C 27.5,20.5 25.5,20.5 23.5,20.5C 22.5,19.1667 21.5,17.8333 20.5,16.5 Z"/></g>
<g><path style="opacity:1" fill="#4a7975" d="M 26.5,16.5 C 28.5,16.5 30.5,16.5 32.5,16.5C 32.8333,17.8333 33.1667,19.1667 33.5,20.5C 32.1667,20.5 30.8333,20.5 29.5,20.5C 27.7706,19.7638 26.7706,18.4305 26.5,16.5 Z"/></g>
<g><path style="opacity:0.556" fill="#4b938c" d="M 9.5,19.5 C 10.1667,20.8333 11.1667,21.8333 12.5,22.5C 12.5,25.1667 12.5,27.8333 12.5,30.5C 10.8333,29.1667 9.16667,27.8333 7.5,26.5C 7.17057,23.7718 7.83724,21.4385 9.5,19.5 Z"/></g>
<g><path style="opacity:0.803" fill="#484848" d="M 104.5,19.5 C 109.337,19.1162 114.003,19.7829 118.5,21.5C 119.48,24.0865 119.813,26.7531 119.5,29.5C 115.192,28.6324 110.859,28.4657 106.5,29C 99.3644,34.6106 99.0311,40.6106 105.5,47C 107,47.5 108.5,48 110,48.5C 113.094,47.4345 116.26,46.7678 119.5,46.5C 119.664,49.1873 119.497,51.854 119,54.5C 108.814,58.6621 100.147,56.6621 93,48.5C 87.582,34.8873 91.4154,25.2206 104.5,19.5 Z"/></g>
<g><path style="opacity:0.819" fill="#484848" d="M 134.5,19.5 C 144.373,17.7275 151.873,21.0609 157,29.5C 161.167,50.6667 152.667,59.1667 131.5,55C 122.504,49.0122 119.67,40.8455 123,30.5C 125.412,25.2523 129.246,21.5857 134.5,19.5 Z M 136.5,28.5 C 144.15,26.9785 148.15,30.1452 148.5,38C 147.86,46.667 143.527,49.667 135.5,47C 134.299,46.0975 133.465,44.9308 133,43.5C 132.333,39.8333 132.333,36.1667 133,32.5C 134.032,30.9733 135.199,29.64 136.5,28.5 Z"/></g>
<g><path style="opacity:0.8" fill="#484848" d="M 177.5,19.5 C 182.795,18.7411 187.462,20.0744 191.5,23.5C 197.84,18.8749 204.506,18.3749 211.5,22C 213.894,23.9522 215.394,26.4522 216,29.5C 216.5,38.4938 216.666,47.4938 216.5,56.5C 213.223,56.7839 210.057,56.4505 207,55.5C 206.667,47.5 206.333,39.5 206,31.5C 205.242,29.0904 203.575,28.0904 201,28.5C 198.425,28.0904 196.758,29.0904 196,31.5C 194.67,39.7733 194.17,48.1067 194.5,56.5C 191.223,56.7839 188.057,56.4505 185,55.5C 184.667,47.5 184.333,39.5 184,31.5C 183.242,29.0904 181.575,28.0904 179,28.5C 177.439,28.6032 175.939,28.9366 174.5,29.5C 173.668,38.1475 173.168,46.8142 173,55.5C 169.667,56.8333 166.333,56.8333 163,55.5C 162.5,43.8381 162.333,32.1714 162.5,20.5C 166.03,19.9889 169.196,20.6556 172,22.5C 173.876,21.3913 175.709,20.3913 177.5,19.5 Z"/></g>
<g><path style="opacity:0.812" fill="#484848" d="M 237.5,19.5 C 254.261,20.1252 260.761,28.7919 257,45.5C 252.607,55.4748 245.107,58.8082 234.5,55.5C 233.671,60.8025 233.171,66.1358 233,71.5C 229.606,72.4558 226.106,72.7892 222.5,72.5C 222.5,55.1667 222.5,37.8333 222.5,20.5C 226.03,19.9889 229.196,20.6556 232,22.5C 233.876,21.3913 235.709,20.3913 237.5,19.5 Z M 236.5,28.5 C 245.901,28.3731 249.401,33.0397 247,42.5C 244.865,47.4898 241.365,48.9898 236.5,47C 231.214,40.8353 231.214,34.6686 236.5,28.5 Z"/></g>
<g><path style="opacity:0.806" fill="#484848" d="M 261.5,20.5 C 265.167,20.5 268.833,20.5 272.5,20.5C 272.334,28.5069 272.5,36.5069 273,44.5C 273.758,46.9096 275.425,47.9096 278,47.5C 279.561,47.3968 281.061,47.0634 282.5,46.5C 283.498,37.8589 283.831,29.1922 283.5,20.5C 286.833,20.5 290.167,20.5 293.5,20.5C 293.5,32.5 293.5,44.5 293.5,56.5C 289.97,57.0111 286.804,56.3444 284,54.5C 271.94,59.1368 264.606,55.1368 262,42.5C 261.5,35.1742 261.334,27.8409 261.5,20.5 Z"/></g>
<g><path style="opacity:0.741" fill="#484948" d="M 323.5,20.5 C 327.167,20.5 330.833,20.5 334.5,20.5C 334.667,32.1714 334.5,43.8381 334,55.5C 330.667,56.8333 327.333,56.8333 324,55.5C 323.5,43.8381 323.333,32.1714 323.5,20.5 Z"/></g>
<g><path style="opacity:0.686" fill="#4a8b85" d="M 20.5,32.5 C 18.9092,29.5691 16.9092,26.9024 14.5,24.5C 17.2171,21.8555 20.0505,21.8555 23,24.5C 24.1657,27.9268 23.3324,30.5935 20.5,32.5 Z"/></g>
<g><path style="opacity:0.73" fill="#496f6c" d="M 47.5,22.5 C 48.5,23.8333 49.5,25.1667 50.5,26.5C 47.8806,26.7683 45.3806,26.435 43,25.5C 42.3828,24.5509 42.5494,23.7175 43.5,23C 44.7932,22.51 46.1266,22.3433 47.5,22.5 Z"/></g>
<g><path style="opacity:0.701" fill="#4a6966" d="M 47.5,22.5 C 49.8333,22.5 52.1667,22.5 54.5,22.5C 55.5,23.8333 56.5,25.1667 57.5,26.5C 55.1667,26.5 52.8333,26.5 50.5,26.5C 49.5,25.1667 48.5,23.8333 47.5,22.5 Z"/></g>
<g><path style="opacity:0.724" fill="#4a6562" d="M 54.5,22.5 C 55.8333,22.5 57.1667,22.5 58.5,22.5C 59.5,23.8333 60.5,25.1667 61.5,26.5C 60.1667,26.5 58.8333,26.5 57.5,26.5C 56.5,25.1667 55.5,23.8333 54.5,22.5 Z"/></g>
<g><path style="opacity:0.749" fill="#4a615f" d="M 58.5,22.5 C 59.8333,22.5 61.1667,22.5 62.5,22.5C 63.6005,23.6049 64.2671,24.9382 64.5,26.5C 63.5,26.5 62.5,26.5 61.5,26.5C 60.5,25.1667 59.5,23.8333 58.5,22.5 Z"/></g>
<g><path style="opacity:0.617" fill="#495c5a" d="M 62.5,22.5 C 65.1667,22.5 67.8333,22.5 70.5,22.5C 70.5,23.8333 70.5,25.1667 70.5,26.5C 68.5,26.5 66.5,26.5 64.5,26.5C 64.2671,24.9382 63.6005,23.6049 62.5,22.5 Z"/></g>
<g><path style="opacity:0.667" fill="#4b9992" d="M 7.5,26.5 C 9.16667,27.8333 10.8333,29.1667 12.5,30.5C 12.5,32.5 13.5,33.5 15.5,33.5C 16.973,35.3947 18.6397,37.0613 20.5,38.5C 18.1667,38.5 15.8333,38.5 13.5,38.5C 12.7777,37.4489 11.7777,36.7822 10.5,36.5C 8.02164,33.6709 7.02164,30.3375 7.5,26.5 Z"/></g>
<g><path style="opacity:0.621" fill="#4b918a" d="M 14.5,24.5 C 16.9092,26.9024 18.9092,29.5691 20.5,32.5C 14.5309,32.519 12.5309,29.8523 14.5,24.5 Z"/></g>
<g><path style="opacity:0.472" fill="#49726e" d="M 45.5,27.5 C 47.5,27.5 49.5,27.5 51.5,27.5C 51.0825,28.2216 50.4158,28.7216 49.5,29C 50.7101,30.0391 51.7101,31.2058 52.5,32.5C 50.8333,32.5 49.1667,32.5 47.5,32.5C 46.8333,30.8333 46.1667,29.1667 45.5,27.5 Z"/></g>
<g><path style="opacity:0.599" fill="#496e6b" d="M 51.5,27.5 C 52.8333,27.5 54.1667,27.5 55.5,27.5C 55.5,28.1667 55.8333,28.5 56.5,28.5C 57.5,29.8333 58.5,31.1667 59.5,32.5C 57.1667,32.5 54.8333,32.5 52.5,32.5C 51.7101,31.2058 50.7101,30.0391 49.5,29C 50.4158,28.7216 51.0825,28.2216 51.5,27.5 Z"/></g>
<g><path style="opacity:0.444" fill="#496462" d="M 55.5,27.5 C 59.1667,27.5 62.8333,27.5 66.5,27.5C 66.0825,28.2216 65.4158,28.7216 64.5,29C 65.7305,30.4048 67.0639,31.5714 68.5,32.5C 66.8333,32.5 65.1667,32.5 63.5,32.5C 62.145,29.4823 59.8116,28.149 56.5,28.5C 55.8333,28.5 55.5,28.1667 55.5,27.5 Z"/></g>
<g><path style="opacity:0.655" fill="#49615f" d="M 66.5,27.5 C 68.9477,27.0847 70.2811,28.0847 70.5,30.5C 70.2528,31.7133 69.5862,32.38 68.5,32.5C 67.0639,31.5714 65.7305,30.4048 64.5,29C 65.4158,28.7216 66.0825,28.2216 66.5,27.5 Z"/></g>
<g><path style="opacity:0.328" fill="#4a7773" d="M 45.5,27.5 C 46.1667,29.1667 46.8333,30.8333 47.5,32.5C 41.9524,32.4211 41.2858,30.7545 45.5,27.5 Z"/></g>
<g><path style="opacity:0.722" fill="#4a6865" d="M 56.5,28.5 C 59.8116,28.149 62.145,29.4823 63.5,32.5C 62.1667,32.5 60.8333,32.5 59.5,32.5C 58.5,31.1667 57.5,29.8333 56.5,28.5 Z"/></g>
<g><path style="opacity:0.683" fill="#495a58" d="M 75.5,26.5 C 77.0618,26.7329 78.3951,27.3995 79.5,28.5C 79.8294,31.2282 79.1628,33.5615 77.5,35.5C 76.8333,34.1667 75.8333,33.1667 74.5,32.5C 75.3414,30.6208 75.6747,28.6208 75.5,26.5 Z"/></g>
<g><path style="opacity:0.565" fill="#4c928b" d="M 15.5,33.5 C 18.5,33.5 21.5,33.5 24.5,33.5C 25.075,35.4113 26.075,37.078 27.5,38.5C 25.1667,38.5 22.8333,38.5 20.5,38.5C 18.6397,37.0613 16.973,35.3947 15.5,33.5 Z"/></g>
<g><path style="opacity:0.543" fill="#4b8c86" d="M 24.5,33.5 C 27.1667,33.5 29.8333,33.5 32.5,33.5C 29.8749,34.4405 29.8749,35.6072 32.5,37C 31.944,37.3826 31.6107,37.8826 31.5,38.5C 30.1667,38.5 28.8333,38.5 27.5,38.5C 26.075,37.078 25.075,35.4113 24.5,33.5 Z"/></g>
<g><path style="opacity:0.601" fill="#4a8580" d="M 32.5,33.5 C 33.1667,33.5 33.8333,33.5 34.5,33.5C 37.3267,34.4188 39.66,36.0855 41.5,38.5C 38.1667,38.5 34.8333,38.5 31.5,38.5C 31.6107,37.8826 31.944,37.3826 32.5,37C 29.8749,35.6072 29.8749,34.4405 32.5,33.5 Z"/></g>
<g><path style="opacity:0.542" fill="#4a7f7a" d="M 34.5,33.5 C 37.8333,33.5 41.1667,33.5 44.5,33.5C 44.3915,35.5138 45.0582,37.1805 46.5,38.5C 44.8333,38.5 43.1667,38.5 41.5,38.5C 39.66,36.0855 37.3267,34.4188 34.5,33.5 Z"/></g>
<g><path style="opacity:0.651" fill="#4b7975" d="M 44.5,33.5 C 45.8333,33.5 47.1667,33.5 48.5,33.5C 49.759,34.9791 50.759,36.6458 51.5,38.5C 49.8333,38.5 48.1667,38.5 46.5,38.5C 45.0582,37.1805 44.3915,35.5138 44.5,33.5 Z"/></g>
<g><path style="opacity:0.482" fill="#4a736f" d="M 48.5,33.5 C 50.5,33.5 52.5,33.5 54.5,33.5C 55.8606,35.5273 57.5273,37.194 59.5,38.5C 56.8333,38.5 54.1667,38.5 51.5,38.5C 50.759,36.6458 49.759,34.9791 48.5,33.5 Z"/></g>
<g><path style="opacity:0.627" fill="#496e6b" d="M 54.5,33.5 C 55.8333,33.5 57.1667,33.5 58.5,33.5C 59.925,34.922 60.925,36.5887 61.5,38.5C 60.8333,38.5 60.1667,38.5 59.5,38.5C 57.5273,37.194 55.8606,35.5273 54.5,33.5 Z"/></g>
<g><path style="opacity:0.573" fill="#496b68" d="M 58.5,33.5 C 59.8333,33.5 61.1667,33.5 62.5,33.5C 62.5106,35.0174 63.1772,36.1841 64.5,37C 63.944,37.3826 63.6107,37.8826 63.5,38.5C 62.8333,38.5 62.1667,38.5 61.5,38.5C 60.925,36.5887 59.925,34.922 58.5,33.5 Z"/></g>
<g><path style="opacity:0.497" fill="#4a6865" d="M 62.5,33.5 C 64.5,33.5 66.5,33.5 68.5,33.5C 68.5,33.8333 68.5,34.1667 68.5,34.5C 67.7611,34.369 67.0944,34.5357 66.5,35C 67.7101,36.0391 68.7101,37.2058 69.5,38.5C 67.5,38.5 65.5,38.5 63.5,38.5C 63.6107,37.8826 63.944,37.3826 64.5,37C 63.1772,36.1841 62.5106,35.0174 62.5,33.5 Z"/></g>
<g><path style="opacity:0.698" fill="#49605e" d="M 74.5,32.5 C 75.8333,33.1667 76.8333,34.1667 77.5,35.5C 79.0507,37.9128 79.7174,40.5794 79.5,43.5C 78.3951,42.3995 77.0618,41.7329 75.5,41.5C 74.8333,40.1667 73.8333,39.1667 72.5,38.5C 72.1667,36.1667 70.8333,34.8333 68.5,34.5C 68.5,34.1667 68.5,33.8333 68.5,33.5C 70.6208,33.6747 72.6208,33.3414 74.5,32.5 Z"/></g>
<g><path style="opacity:0.747" fill="#496562" d="M 68.5,34.5 C 70.8333,34.8333 72.1667,36.1667 72.5,38.5C 71.5,38.5 70.5,38.5 69.5,38.5C 68.7101,37.2058 67.7101,36.0391 66.5,35C 67.0944,34.5357 67.7611,34.369 68.5,34.5 Z"/></g>
<g><path style="opacity:0.661" fill="#4b9f97" d="M 10.5,36.5 C 11.7777,36.7822 12.7777,37.4489 13.5,38.5C 12.7659,39.7079 12.4326,41.0413 12.5,42.5C 10.4862,42.6085 8.81953,41.9418 7.5,40.5C 8.02561,38.7697 9.02561,37.4363 10.5,36.5 Z"/></g>
<g><path style="opacity:0.631" fill="#4b9a93" d="M 22.5,48.5 C 21.3065,47.7281 20.3065,46.7281 19.5,45.5C 19.5,44.8333 19.1667,44.5 18.5,44.5C 17.3065,43.7281 16.3065,42.7281 15.5,41.5C 17.4929,39.0421 19.8262,38.8755 22.5,41C 23.8143,43.6047 23.8143,46.1047 22.5,48.5 Z"/></g>
<g><path style="opacity:0.603" fill="#4a7f7a" d="M 50.5,39.5 C 50.281,40.675 50.6143,41.675 51.5,42.5C 52.7387,42.9424 53.7387,43.6091 54.5,44.5C 51.1501,44.665 47.8168,44.4983 44.5,44C 42.6652,43.0723 42.3318,41.9056 43.5,40.5C 45.7427,39.5258 48.076,39.1924 50.5,39.5 Z"/></g>
<g><path style="opacity:0.642" fill="#4a7874" d="M 50.5,39.5 C 51.8333,39.5 53.1667,39.5 54.5,39.5C 55.925,40.922 56.925,42.5887 57.5,44.5C 56.5,44.5 55.5,44.5 54.5,44.5C 53.7387,43.6091 52.7387,42.9424 51.5,42.5C 50.6143,41.675 50.281,40.675 50.5,39.5 Z"/></g>
<g><path style="opacity:0.471" fill="#4a736f" d="M 54.5,39.5 C 56.8333,39.5 59.1667,39.5 61.5,39.5C 62.075,41.4113 63.075,43.078 64.5,44.5C 62.1667,44.5 59.8333,44.5 57.5,44.5C 56.925,42.5887 55.925,40.922 54.5,39.5 Z"/></g>
<g><path style="opacity:0.518" fill="#496c69" d="M 61.5,39.5 C 64.5,39.5 67.5,39.5 70.5,39.5C 70.938,43.9083 68.938,45.5749 64.5,44.5C 63.075,43.078 62.075,41.4113 61.5,39.5 Z"/></g>
<g><path style="opacity:0.694" fill="#4ba097" d="M 15.5,41.5 C 16.3065,42.7281 17.3065,43.7281 18.5,44.5C 19.1667,44.5 19.5,44.8333 19.5,45.5C 20.3065,46.7281 21.3065,47.7281 22.5,48.5C 21.2794,49.0283 20.1127,49.695 19,50.5C 13.4097,48.9479 12.243,45.9479 15.5,41.5 Z"/></g>
<g><path style="opacity:0.74" fill="#496663" d="M 75.5,41.5 C 77.0618,41.7329 78.3951,42.3995 79.5,43.5C 79.5,45.8333 79.5,48.1667 79.5,50.5C 77.9382,50.2671 76.6049,49.6005 75.5,48.5C 75.5,46.1667 75.5,43.8333 75.5,41.5 Z"/></g>
<g><path style="opacity:0.696" fill="#4ba59d" d="M 7.5,40.5 C 8.81953,41.9418 10.4862,42.6085 12.5,42.5C 10.9999,49.3296 13.6666,52.3296 20.5,51.5C 20.7329,53.0618 21.3995,54.3951 22.5,55.5C 20.1667,55.5 17.8333,55.5 15.5,55.5C 13.2034,53.7059 11.0367,51.7059 9,49.5C 8.60123,49.7284 8.43456,50.0618 8.5,50.5C 7.52056,47.3752 7.18723,44.0419 7.5,40.5 Z"/></g>
<g><path style="opacity:0.806" fill="#4a7f7a" d="M 53.5,46.5 C 56.142,46.4877 57.4754,47.821 57.5,50.5C 55.8333,50.5 54.1667,50.5 52.5,50.5C 50.9582,49.6993 49.2915,49.366 47.5,49.5C 48.911,47.461 50.911,46.461 53.5,46.5 Z"/></g>
<g><path style="opacity:0.525" fill="#496c68" d="M 75.5,48.5 C 76.6049,49.6005 77.9382,50.2671 79.5,50.5C 78.6857,52.2726 77.3524,52.7726 75.5,52C 74.2089,50.7083 74.2089,49.5417 75.5,48.5 Z"/></g>
<g><path style="opacity:0.651" fill="#4b8781" d="M 47.5,49.5 C 49.2915,49.366 50.9582,49.6993 52.5,50.5C 51.5,52.1667 50.1667,53.5 48.5,54.5C 48.5,52.5 47.5,51.5 45.5,51.5C 45.8333,50.5 46.5,49.8333 47.5,49.5 Z"/></g>
<g><path style="opacity:0.454" fill="#4a7974" d="M 53.5,46.5 C 58.3836,44.8214 62.7169,45.8214 66.5,49.5C 65.3244,52.4831 66.3244,54.4831 69.5,55.5C 68.8501,55.8039 68.1835,56.1373 67.5,56.5C 65.6841,55.1851 64.0175,53.6851 62.5,52C 60.9751,50.9914 59.3084,50.4914 57.5,50.5C 57.4754,47.821 56.142,46.4877 53.5,46.5 Z"/></g>
<g><path style="opacity:0.755" fill="#4c9f97" d="M 20.5,51.5 C 22.5,51.5 24.5,51.5 26.5,51.5C 28.2294,52.2362 29.2294,53.5695 29.5,55.5C 27.1667,55.5 24.8333,55.5 22.5,55.5C 21.3995,54.3951 20.7329,53.0618 20.5,51.5 Z"/></g>
<g><path style="opacity:0.714" fill="#4c9992" d="M 26.5,51.5 C 28.8333,51.5 31.1667,51.5 33.5,51.5C 34.5274,53.1942 35.8608,54.5275 37.5,55.5C 34.8333,55.5 32.1667,55.5 29.5,55.5C 29.2294,53.5695 28.2294,52.2362 26.5,51.5 Z"/></g>
<g><path style="opacity:0.648" fill="#4b938c" d="M 33.5,51.5 C 36.5,51.5 39.5,51.5 42.5,51.5C 42.5,52.8333 42.5,54.1667 42.5,55.5C 40.8333,55.5 39.1667,55.5 37.5,55.5C 35.8608,54.5275 34.5274,53.1942 33.5,51.5 Z"/></g>
<g><path style="opacity:0.707" fill="#4b8c86" d="M 45.5,51.5 C 47.5,51.5 48.5,52.5 48.5,54.5C 48.4431,55.609 48.1098,56.609 47.5,57.5C 45.7376,56.7377 44.7376,55.4044 44.5,53.5C 44.8333,52.8333 45.1667,52.1667 45.5,51.5 Z"/></g>
<g><path style="opacity:0.578" fill="#4a736f" d="M 69.5,51.5 C 75.8771,51.8769 79.2104,55.2103 79.5,61.5C 75.8062,58.4729 72.4729,55.1396 69.5,51.5 Z"/></g>
<g><path style="opacity:0.531" fill="#4caba2" d="M 15.5,55.5 C 14.828,56.2674 13.9947,56.9341 13,57.5C 12.5026,60.146 12.3359,62.8127 12.5,65.5C 12.2116,62.3943 10.545,60.3943 7.5,59.5C 7.58613,57.323 8.25279,55.323 9.5,53.5C 8.87277,52.5832 8.53944,51.5832 8.5,50.5C 8.43456,50.0618 8.60123,49.7284 9,49.5C 11.0367,51.7059 13.2034,53.7059 15.5,55.5 Z"/></g>
<g><path style="opacity:0.614" fill="#4b928b" d="M 44.5,53.5 C 44.7376,55.4044 45.7376,56.7377 47.5,57.5C 47.5,58.8333 47.5,60.1667 47.5,61.5C 46.5,61.5 45.5,61.5 44.5,61.5C 43.7281,60.3065 42.7281,59.3065 41.5,58.5C 42.7671,56.9611 43.7671,55.2944 44.5,53.5 Z"/></g>
<g><path style="opacity:0.624" fill="#4ca9a0" d="M 19.5,67.5 C 19.8039,66.8501 20.1373,66.1835 20.5,65.5C 18.6899,63.4689 16.6899,61.8022 14.5,60.5C 14.6848,58.1104 16.0182,57.1104 18.5,57.5C 23.1513,58.1926 24.6513,60.8593 23,65.5C 22.1841,66.8228 21.0174,67.4894 19.5,67.5 Z"/></g>
<g><path style="opacity:0.601" fill="#4b9991" d="M 41.5,58.5 C 42.7281,59.3065 43.7281,60.3065 44.5,61.5C 42.7706,62.2362 41.7706,63.5695 41.5,65.5C 40.1667,64.5 38.8333,63.5 37.5,62.5C 38.1667,60.5 39.5,59.1667 41.5,58.5 Z"/></g>
<g><path style="opacity:0.538" fill="#4a7672" d="M 66.5,49.5 C 67.5,50.1667 68.5,50.8333 69.5,51.5C 72.4729,55.1396 75.8062,58.4729 79.5,61.5C 79.6747,63.6208 79.3414,65.6208 78.5,67.5C 76.9382,67.2671 75.6049,66.6005 74.5,65.5C 76.0234,60.5468 74.3568,57.2135 69.5,55.5C 66.3244,54.4831 65.3244,52.4831 66.5,49.5 Z"/></g>
<g><path style="opacity:0.644" fill="#4cb0a6" d="M 7.5,59.5 C 10.545,60.3943 12.2116,62.3943 12.5,65.5C 12.5,67.5 13.5,68.5 15.5,68.5C 17.4478,69.1312 19.2811,70.1312 21,71.5C 22.5793,70.828 23.746,71.4947 24.5,73.5C 12.6222,76.0864 6.95553,71.4198 7.5,59.5 Z"/></g>
<g><path style="opacity:0.709" fill="#4caca3" d="M 14.5,60.5 C 16.6899,61.8022 18.6899,63.4689 20.5,65.5C 20.1373,66.1835 19.8039,66.8501 19.5,67.5C 14.5388,67.2019 12.8722,64.8686 14.5,60.5 Z"/></g>
<g><path style="opacity:0.66" fill="#4b9e96" d="M 37.5,62.5 C 38.8333,63.5 40.1667,64.5 41.5,65.5C 41.9321,66.7095 42.5987,67.7095 43.5,68.5C 46.1499,69.4571 46.8166,71.1238 45.5,73.5C 42.2814,73.2241 39.6148,71.8907 37.5,69.5C 37.5,67.1667 37.5,64.8333 37.5,62.5 Z"/></g>
<g><path style="opacity:0.805" fill="#4a7e79" d="M 74.5,65.5 C 75.6049,66.6005 76.9382,67.2671 78.5,67.5C 77.5,69.1667 76.1667,70.5 74.5,71.5C 73.8333,70.1667 72.8333,69.1667 71.5,68.5C 72.6935,67.7281 73.6935,66.7281 74.5,65.5 Z"/></g>
<g><path style="opacity:0.444" fill="#4caaa1" d="M 15.5,68.5 C 21.8333,68.5 28.1667,68.5 34.5,68.5C 29.6464,69.4008 29.313,71.0675 33.5,73.5C 30.5,73.5 27.5,73.5 24.5,73.5C 23.746,71.4947 22.5793,70.828 21,71.5C 19.2811,70.1312 17.4478,69.1312 15.5,68.5 Z"/></g>
<g><path style="opacity:0.532" fill="#4b9992" d="M 43.5,68.5 C 46.5,68.5 49.5,68.5 52.5,68.5C 53.4728,70.1494 54.4728,71.816 55.5,73.5C 52.1667,73.5 48.8333,73.5 45.5,73.5C 46.8166,71.1238 46.1499,69.4571 43.5,68.5 Z"/></g>
<g><path style="opacity:0.607" fill="#4b928b" d="M 52.5,68.5 C 54.1667,68.5 55.8333,68.5 57.5,68.5C 58.9163,70.1793 60.2497,71.8459 61.5,73.5C 59.5,73.5 57.5,73.5 55.5,73.5C 54.4728,71.816 53.4728,70.1494 52.5,68.5 Z"/></g>
<g><path style="opacity:0.622" fill="#4b8d87" d="M 57.5,68.5 C 59.8333,68.5 62.1667,68.5 64.5,68.5C 65.8333,70.1667 67.1667,71.8333 68.5,73.5C 66.1667,73.5 63.8333,73.5 61.5,73.5C 60.2497,71.8459 58.9163,70.1793 57.5,68.5 Z"/></g>
<g><path style="opacity:0.605" fill="#4a857f" d="M 64.5,68.5 C 66.8333,68.5 69.1667,68.5 71.5,68.5C 72.8333,69.1667 73.8333,70.1667 74.5,71.5C 72.8984,73.0739 70.8984,73.7406 68.5,73.5C 67.1667,71.8333 65.8333,70.1667 64.5,68.5 Z"/></g>
<g><path style="opacity:0.65" fill="#4ba69d" d="M 34.5,68.5 C 35.391,69.1098 36.391,69.4431 37.5,69.5C 37.8333,72.5 36.5,73.8333 33.5,73.5C 29.313,71.0675 29.6464,69.4008 34.5,68.5 Z"/></g>
</svg>
