<?xml version="1.0" encoding="UTF-8"?>
<svg version="1.1" xmlns="http://www.w3.org/2000/svg" width="1200" height="600">
<path d="M0 0 C396 0 792 0 1200 0 C1200 198 1200 396 1200 600 C804 600 408 600 0 600 C0 402 0 204 0 0 Z " fill="#162826" transform="translate(0,0)"/>
<path d="M0 0 C6.9861836 4.230031 11.48742555 10.53499555 13.96484375 18.24609375 C16.06676254 28.60643901 15.97481041 40.14907087 10.625 49.5 C6.62593965 55.19063686 2.56621866 59.82067291 -4.375 61.5 C-12.04804701 62.29755686 -18.5034572 62.53309511 -24.921875 57.88671875 C-26.375 56.5 -26.375 56.5 -28.375 53.5 C-28.705 63.4 -29.035 73.3 -29.375 83.5 C-32.675 83.5 -35.975 83.5 -39.375 83.5 C-39.375 55.78 -39.375 28.06 -39.375 -0.5 C-36.075 -0.5 -32.775 -0.5 -29.375 -0.5 C-29.045 1.81 -28.715 4.12 -28.375 6.5 C-27.91609375 6.09007812 -27.4571875 5.68015625 -26.984375 5.2578125 C-26.37078125 4.71898437 -25.7571875 4.18015625 -25.125 3.625 C-24.22007812 2.82449219 -24.22007812 2.82449219 -23.296875 2.0078125 C-16.87390579 -3.03134627 -7.42354059 -3.2896474 0 0 Z " fill="#F8F9F9" transform="translate(947.375,302.5)"/>
<path d="M0 0 C0.59039062 0.36996094 1.18078125 0.73992187 1.7890625 1.12109375 C3.1503125 1.95640625 3.1503125 1.95640625 4.5390625 2.80859375 C12.11542446 10.59541021 14.21005668 20.40033497 14.15258789 30.984375 C13.91688984 40.08546241 11.24783074 47.84911035 4.8125 54.4609375 C-2.12243536 60.15079759 -9.83223136 60.83128415 -18.58203125 60.56640625 C-25.48181991 59.71971528 -30.75359301 56.9723294 -35.5859375 51.99609375 C-42.5343531 42.77759919 -43.30890029 32.23516608 -42.2109375 21.12109375 C-40.440483 13.00485292 -36.79066259 5.64395921 -30.12890625 0.51953125 C-21.12825667 -4.82413799 -9.21212344 -4.98558741 0 0 Z " fill="#F7F8F8" transform="translate(339.2109375,303.87890625)"/>
<path d="M0 0 C6.84874816 5.27924338 10.72100662 10.64494153 12 19.3125 C12.82405114 29.12965131 13.52328812 39.70477825 8 48.3125 C5.5625 51.1875 5.5625 51.1875 3 53.3125 C2.195625 54.034375 1.39125 54.75625 0.5625 55.5 C-6.68689282 60.62761931 -15.53060798 59.9903946 -24 59.3125 C-30.26996517 57.72360139 -35.05171017 53.30808156 -39 48.3125 C-44.29587795 39.21445326 -44.41047807 26.03182998 -42.375 15.875 C-39.20301091 7.65666463 -34.61089766 2.05941776 -27.0625 -2.4375 C-18.49986388 -5.88895905 -7.85403345 -4.41789381 0 0 Z " fill="#FAFAFA" transform="translate(879,304.6875)"/>
<path d="M0 0 C29.79407051 0 29.79407051 0 39.41015625 9.203125 C45.12795464 15.66550156 45.19888226 23.08394161 45.25 31.25 C45.270625 32.05824219 45.29125 32.86648438 45.3125 33.69921875 C45.36581097 42.02905712 43.32837208 49.45371431 38 56 C26.97826895 65.18477588 13.6942373 63 0 63 C0 42.21 0 21.42 0 0 Z " fill="#172826" transform="translate(532,291)"/>
<path d="M0 0 C46.87648488 0 46.87648488 0 58.16796875 9.99609375 C67.83423112 20.56921229 68.65861785 32.90413014 68.3125 46.61328125 C67.83252271 55.88684242 64.60452094 64.38063744 58 71 C42.12003888 85.07914078 19.34407513 81 0 81 C0 54.27 0 27.54 0 0 Z M11 9 C11 29.79 11 50.58 11 72 C30.87980339 72.67572945 30.87980339 72.67572945 47.9375 66.3125 C54.87619241 58.53275396 56.18699115 50.81566301 56.25 40.75 C56.270625 39.94175781 56.29125 39.13351562 56.3125 38.30078125 C56.3695808 29.38190693 54.1852306 22.28141882 48.03515625 15.7265625 C37.47912989 6.77116202 24.22941412 9 11 9 Z " fill="#FAFAFA" transform="translate(521,282)"/>
<path d="M0 0 C0.82773422 -0.01268417 1.65546844 -0.02536835 2.50828552 -0.03843689 C3.39895218 -0.03550125 4.28961884 -0.03256561 5.20727539 -0.02954102 C6.12577774 -0.03478287 7.04428009 -0.04002472 7.99061584 -0.04542542 C9.93318674 -0.05184886 11.87579651 -0.05050445 13.81835938 -0.04199219 C16.79050023 -0.03348856 19.76071544 -0.06222833 22.73266602 -0.09399414 C24.62003523 -0.0956064 26.50740785 -0.09502816 28.39477539 -0.09204102 C29.72773903 -0.10889198 29.72773903 -0.10889198 31.08763123 -0.12608337 C37.24924338 -0.05651697 37.24924338 -0.05651697 40.31201172 2.2253418 C41.08194458 3.30380371 41.08194458 3.30380371 41.86743164 4.40405273 C42.28992188 4.96116943 42.71241211 5.51828613 43.14770508 6.09228516 C49.8450872 16.43989206 52.05314887 21.91424002 49.86743164 34.40405273 C50.19743164 34.73405273 50.52743164 35.06405273 50.86743164 35.40405273 C50.96597819 37.0474614 50.99715576 38.69519884 50.99243164 40.34155273 C50.99629883 41.68540039 50.99629883 41.68540039 51.00024414 43.05639648 C50.86743164 45.40405273 50.86743164 45.40405273 49.86743164 47.40405273 C49.20743164 47.40405273 48.54743164 47.40405273 47.86743164 47.40405273 C47.8068457 46.6215918 47.74625977 45.83913086 47.68383789 45.03295898 C47.60004883 44.02104492 47.51625977 43.00913086 47.42993164 41.96655273 C47.3487207 40.9572168 47.26750977 39.94788086 47.18383789 38.90795898 C47.13531696 36.46764495 47.13531696 36.46764495 45.86743164 35.40405273 C44.06233791 35.30505712 42.25336236 35.27606123 40.44555664 35.2746582 C39.28765625 35.27150604 38.12975586 35.26835388 36.93676758 35.2651062 C35.67638672 35.26713043 34.41600586 35.26915466 33.11743164 35.27124023 C31.19205566 35.26980515 31.19205566 35.26980515 29.2277832 35.26834106 C26.5073934 35.26686443 23.78703639 35.26901754 21.06665039 35.27368164 C17.57258495 35.27937893 14.07859631 35.27609974 10.58453369 35.27010918 C7.26216011 35.26563519 3.93980741 35.26876388 0.61743164 35.27124023 C-0.64294922 35.269216 -1.90333008 35.26719177 -3.2019043 35.2651062 C-4.35980469 35.26825836 -5.51770508 35.27141052 -6.71069336 35.2746582 C-8.24838379 35.27585159 -8.24838379 35.27585159 -9.81713867 35.27706909 C-12.0946309 35.14367375 -12.0946309 35.14367375 -13.13256836 36.40405273 C-13.33198704 38.47178008 -13.33198704 38.47178008 -13.32006836 40.84155273 C-13.33424805 41.64463867 -13.34842773 42.44772461 -13.36303711 43.27514648 C-13.33419192 45.62035907 -13.33419192 45.62035907 -11.13256836 47.40405273 C-8.41640972 47.77612628 -8.41640972 47.77612628 -5.24975586 47.81811523 C-4.0831543 47.85678711 -2.91655273 47.89545898 -1.71459961 47.93530273 C0.12038086 47.98170898 0.12038086 47.98170898 1.99243164 48.02905273 C3.22348633 48.06772461 4.45454102 48.10639648 5.72290039 48.14624023 C8.7709254 48.24075264 11.81894026 48.32630767 14.86743164 48.40405273 C14.86743164 49.06405273 14.86743164 49.72405273 14.86743164 50.40405273 C13.70171631 50.43378174 13.70171631 50.43378174 12.51245117 50.46411133 C9.00542473 50.55912282 5.4990137 50.66889832 1.99243164 50.77905273 C0.15745117 50.82545898 0.15745117 50.82545898 -1.71459961 50.87280273 C-2.88120117 50.91147461 -4.04780273 50.95014648 -5.24975586 50.98999023 C-6.32854004 51.02141113 -7.40732422 51.05283203 -8.51879883 51.08520508 C-11.2901849 51.15081595 -11.2901849 51.15081595 -13.13256836 53.40405273 C-13.4129982 55.57942958 -13.4129982 55.57942958 -13.32006836 57.96655273 C-13.31362305 58.7722168 -13.30717773 59.57788086 -13.30053711 60.40795898 C-13.34887748 62.40285159 -13.34887748 62.40285159 -12.13256836 63.40405273 C-10.50000078 63.56119928 -8.86121498 63.65490687 -7.22241211 63.72045898 C-6.23305664 63.76235352 -5.24370117 63.80424805 -4.22436523 63.84741211 C-2.66298828 63.90638672 -2.66298828 63.90638672 -1.07006836 63.96655273 C0.49710937 64.03132813 0.49710937 64.03132813 2.09594727 64.09741211 C4.68630048 64.20386498 7.2767535 64.30588033 9.86743164 64.40405273 C9.86743164 65.39405273 9.86743164 66.38405273 9.86743164 67.40405273 C6.09674332 67.49103774 2.32631232 67.54443852 -1.44506836 67.59155273 C-2.51692383 67.61668945 -3.5887793 67.64182617 -4.69311523 67.66772461 C-6.23515625 67.68222656 -6.23515625 67.68222656 -7.80834961 67.69702148 C-8.75621338 67.71273193 -9.70407715 67.72844238 -10.68066406 67.74462891 C-13.13256836 67.40405273 -13.13256836 67.40405273 -14.94702148 66.07299805 C-16.80725823 63.4542628 -16.41669583 61.11947138 -16.32006836 57.96655273 C-16.29299805 56.8334668 -16.26592773 55.70038086 -16.23803711 54.53295898 C-16.20323242 53.50041992 -16.16842773 52.46788086 -16.13256836 51.40405273 C-16.13256836 50.08405273 -16.13256836 48.76405273 -16.13256836 47.40405273 C-16.13256836 41.73738607 -16.13256836 36.0707194 -16.13256836 30.40405273 C-16.23698242 29.49913086 -16.34139648 28.59420898 -16.44897461 27.66186523 C-17.31247119 16.66941676 -12.55827305 9.90004129 -5.74949646 1.74815369 C-3.7081879 0.05127875 -2.63083954 0.01954139 0 0 Z " fill="#A5D5D0" transform="translate(431.132568359375,137.595947265625)"/>
<path d="M0 0 C5.41612038 4.43137122 9.30685491 10.22741963 11 17 C11 21.29 11 25.58 11 30 C-3.85 30 -18.7 30 -34 30 C-32.43244158 40.05814191 -32.43244158 40.05814191 -26.48828125 47.25 C-20.01457542 51.2943108 -12.33871419 50.78927226 -5 50 C-1.92115261 49.15667934 0.9052604 48.15043182 3.828125 46.875 C6 46 6 46 9 46 C9 48.97 9 51.94 9 55 C1.95930983 58.69347681 -4.81193558 59.43413066 -12.625 59.5 C-13.50696045 59.51804687 -14.3889209 59.53609375 -15.29760742 59.5546875 C-24.26523538 59.4743579 -31.68513068 56.32749611 -38.203125 50.1484375 C-45.30045441 41.66250017 -46.12884676 31.51161019 -45.23925781 20.91357422 C-44.21984595 12.76035973 -40.0059146 6.44050423 -34 1 C-24.26634619 -6.02533591 -10.11754024 -6.60781536 0 0 Z " fill="#F9F9F9" transform="translate(647,305)"/>
<path d="M0 0 C3.3 0 6.6 0 10 0 C10.33 15.84 10.66 31.68 11 48 C14.63 44.7 18.26 41.4 22 38 C26.125 34.375 26.125 34.375 28.05859375 32.73828125 C30.07834555 30.98552134 30.07834555 30.98552134 32.03515625 28.79296875 C35.39675852 25.30934825 37.55972433 23.20970154 42.4609375 22.49609375 C45.68015329 22.49958531 48.80186454 22.64410239 52 23 C48.31683254 27.95322521 44.0155393 31.5043375 39.203125 35.34375 C33.18997388 40.23658019 27.63254273 45.67991949 22 51 C24.78557035 57.34491025 30.50648448 61.76548676 35.6875 66.1875 C39.63195597 69.57862548 43.31774589 73.20469642 47 76.875 C47.58869873 77.45918701 48.17739746 78.04337402 48.78393555 78.64526367 C53 82.87626767 53 82.87626767 53 84 C47.32981093 84.76826236 42.18311142 85.36477553 37.18115234 82.23779297 C34.51334889 79.75634155 32.08971189 77.17659578 29.6875 74.4375 C28.02691441 72.64251682 26.36418472 70.84951459 24.69921875 69.05859375 C23.91466309 68.19733887 23.13010742 67.33608398 22.32177734 66.44873047 C19.09014019 63.04038971 15.59699797 60.01196866 12 57 C11.67 56.67 11.34 56.34 11 56 C10.67 65.24 10.34 74.48 10 84 C6.7 84 3.4 84 0 84 C0 56.28 0 28.56 0 0 Z " fill="#FBFBFB" transform="translate(732,279)"/>
<path d="M0 0 C2.31 0 4.62 0 7 0 C7 18.81 7 37.62 7 57 C4.69 57 2.38 57 0 57 C-0.33 55.68 -0.66 54.36 -1 53 C-1.763125 53.639375 -2.52625 54.27875 -3.3125 54.9375 C-7.9108058 58.46643236 -12.3971125 58.66312048 -18 58 C-23.51425461 55.45495941 -26.38768778 51.32870061 -29 46 C-31.45657995 38.45923243 -30.85114286 29.93519541 -27.28125 22.91015625 C-24.88105611 19.33181841 -21.86488256 16.93244128 -18 15 C-12.25892292 14.40292798 -7.97971904 14.84212939 -3 18 C-2.34 18.66 -1.68 19.32 -1 20 C-0.67 13.4 -0.34 6.8 0 0 Z " fill="#F4F5F5" transform="translate(922,403)"/>
<path d="M0 0 C3.63 0 7.26 0 11 0 C11.01458252 1.33699951 11.02916504 2.67399902 11.04418945 4.05151367 C11.10222124 9.01841799 11.17945435 13.98487129 11.26245117 18.95141602 C11.29567746 21.09977898 11.32371653 23.24822875 11.34643555 25.39672852 C11.38002331 28.48751776 11.43234221 31.57751312 11.48828125 34.66796875 C11.49467117 35.62648239 11.5010611 36.58499603 11.50764465 37.57255554 C11.61606959 42.50546283 11.75317794 46.01914818 15 50 C18.4214099 52.83488249 21.42372405 53.53703233 25.875 53.3515625 C30.86791289 52.52552912 34.83735661 50.50018503 37.9375 46.5 C39.45836985 42.92148271 40.11936787 39.75425064 40.20532227 35.87402344 C40.22526749 35.07349548 40.24521271 34.27296753 40.26576233 33.44818115 C40.28247482 32.59387512 40.29918732 31.73956909 40.31640625 30.859375 C40.33718735 29.97719299 40.35796844 29.09501099 40.37937927 28.18609619 C40.44464867 25.37414169 40.50365447 22.56209555 40.5625 19.75 C40.60570673 17.84113644 40.64932171 15.93228207 40.69335938 14.0234375 C40.80030687 9.34905174 40.90163785 4.67457398 41 0 C44.3 0 47.6 0 51 0 C51 20.13 51 40.26 51 61 C47.7 61 44.4 61 41 61 C40.505 57.535 40.505 57.535 40 54 C39.113125 54.94875 38.22625 55.8975 37.3125 56.875 C33.81362935 60.6179779 30.59873451 61.82992186 25.51171875 62.37109375 C12.62337255 62.59489547 12.62337255 62.59489547 7.58203125 58.76171875 C2.59965916 53.21344761 -0.13531902 46.00846695 -0.11352539 38.59863281 C-0.11344986 37.7380426 -0.11337433 36.87745239 -0.11329651 35.99078369 C-0.10813522 35.07085632 -0.10297394 34.15092896 -0.09765625 33.203125 C-0.0962413 32.25435486 -0.09482635 31.30558472 -0.09336853 30.32806396 C-0.08777742 27.30201038 -0.07522652 24.27603117 -0.0625 21.25 C-0.05748385 19.19661565 -0.05292115 17.14323014 -0.04882812 15.08984375 C-0.03781089 10.05986724 -0.02055233 5.02994622 0 0 Z " fill="#F3F4F4" transform="translate(368,302)"/>
<path d="M0 0 C4.31353077 -1.05221865 7.707319 -1.23322895 12 0 C16.83249276 4.09329467 19.89955209 10.14088349 23.125 15.5 C24.51232617 17.71732165 25.91119762 19.92684499 27.31515503 22.13366699 C28.18231304 23.5058722 29.03746771 24.88574907 29.87942505 26.27355957 C30.86814648 27.8818401 31.92751499 29.44632299 33 31 C33.66 31 34.32 31 35 31 C36.54043755 28.7684141 37.96252051 26.53408301 39.3671875 24.21875 C40.2608447 22.80461204 41.15675293 21.39189458 42.0546875 19.98046875 C43.46908393 17.74713384 44.86920848 15.50962267 46.23242188 13.24462891 C53.87300168 0.61105773 53.87300168 0.61105773 59.37207031 -0.96875 C62.41019998 -0.96875 65.05382139 -0.71867439 68 0 C63.80102603 6.68828396 59.50154543 13.30180302 55.125 19.875 C54.42165527 20.93340088 54.42165527 20.93340088 53.70410156 22.01318359 C53.22682617 22.72812988 52.74955078 23.44307617 52.2578125 24.1796875 C51.51180786 25.32642944 51.51180786 25.32642944 50.75073242 26.49633789 C49 29 49 29 46.6496582 31.75170898 C38.78869652 41.4710982 38.73811151 50.1342075 38.9375 62.3125 C38.93441828 64.13217294 38.92728528 65.95184372 38.91601562 67.77148438 C38.89737233 72.18235551 38.93329707 76.58962784 39 81 C35.37 81 31.74 81 28 81 C28.13523071 79.44949951 28.13523071 79.44949951 28.27319336 77.86767578 C30.46623153 49.36958006 24.71136345 32.24463307 6.54956055 10.28100586 C3.93449457 7.05710008 1.97064022 3.64943016 0 0 Z " fill="#F8F9F9" transform="translate(238,282)"/>
<path d="M0 0 C5.18898613 3.38412139 8.39636474 7.58622797 10.37109375 13.4765625 C12.06712559 21.54914816 11.75828756 30.47973525 7.875 37.875 C5.5 40.75 5.5 40.75 2.875 42.875 C2.153125 43.473125 1.43125 44.07125 0.6875 44.6875 C-3.59064975 46.49382989 -7.55353897 46.52072804 -12.125 45.875 C-18.46664166 42.93905479 -20.81909668 38.28538062 -23.2109375 32.0390625 C-25.51927027 24.04867982 -24.91389017 15.59376274 -21.46875 8.0390625 C-16.56961159 0.14917099 -9.00376878 -3.24135676 0 0 Z " fill="#1A2B29" transform="translate(870.125,310.125)"/>
<path d="M0 0 C5.12206321 2.93279426 7.75416429 6.77926556 9.625 12.3125 C10.55300168 20.54581724 9.90476931 28.1008108 5.625 35.3125 C1.21737883 39.8331371 -3.09517946 41.41093058 -9.3125 41.625 C-15.19902284 41.48526059 -18.62305577 39.78572583 -23.125 36 C-27.4746123 30.80462975 -27.73858584 25.30715769 -27.75 18.8125 C-27.77449219 18.07902344 -27.79898438 17.34554688 -27.82421875 16.58984375 C-27.85657281 10.56120376 -26.03631864 7.05190134 -21.77734375 2.66796875 C-15.28126192 -2.51157383 -7.67279973 -3.57008317 0 0 Z " fill="#F4F5F5" transform="translate(654.375,419.6875)"/>
<path d="M0 0 C0 2.97 0 5.94 0 9 C-1.07314453 8.67515625 -1.07314453 8.67515625 -2.16796875 8.34375 C-9.90166463 6.18271726 -19.34673037 3.68445414 -27.1171875 6.8671875 C-28.9387505 8.0612264 -30.46119266 9.46119266 -32 11 C-32.50095023 13.87306228 -32.50095023 13.87306228 -32 17 C-27.74823439 21.57131376 -22.39910208 22.53177391 -16.5625 24 C-9.29534983 25.83569928 -3.3182285 27.34994865 1.875 33.0625 C4.04480068 38.72809065 3.77843865 44.66468406 1.875 50.375 C-1.535335 55.149469 -5.46158326 58.15060481 -11 60 C-14.74265424 60.4053221 -18.4874849 60.32445208 -22.25 60.3125 C-23.24902344 60.32861328 -24.24804688 60.34472656 -25.27734375 60.36132812 C-31.82339719 60.36560659 -36.90429388 59.39654836 -43 57 C-43 53.7 -43 50.4 -43 47 C-40.55859375 47.74869792 -38.1171875 48.49739583 -35.67578125 49.24609375 C-27.70212888 51.49268485 -19.28975274 52.21542994 -11.25 49.9375 C-8.70173539 48.08723187 -8.70173539 48.08723187 -7.9375 44.625 C-8.01043581 40.39472327 -8.21313216 39.1634716 -11 36 C-14.48681677 34.6027935 -18.09002376 33.81755314 -21.75 33 C-36.57503008 29.63600901 -36.57503008 29.63600901 -41.4140625 23.0859375 C-43.12106008 17.0090261 -42.95771263 10.1835848 -40.4375 4.4375 C-30.67566044 -5.32433956 -12.10518663 -6.05259331 0 0 Z " fill="#F9FAFA" transform="translate(713,304)"/>
<path d="M0 0 C6.88050083 6.88050083 7.73376716 14.2726999 7.75439453 23.69482422 C7.62711742 30.13253188 6.39480391 35.31422495 1.90625 40.0546875 C-2.85575507 44.18642719 -5.98351927 44.73622817 -12.09375 44.6484375 C-16.91612217 44.23639937 -19.00158437 42.02450473 -22.25 38.625 C-27.6528175 31.17787317 -27.4592357 22.27707215 -26.5625 13.4375 C-25.36526981 8.05676659 -23.24362235 2.55376056 -18.59765625 -0.78515625 C-12.60575517 -3.07380944 -5.76711676 -2.52943718 0 0 Z " fill="#182927" transform="translate(334.5625,311.5625)"/>
<path d="M0 0 C4.55331212 2.96955139 7.75823 6.81964137 9.875 11.875 C10.31379824 15.28066431 10.24525426 18.69382926 10.25 22.125 C10.27449219 23.04152344 10.29898438 23.95804687 10.32421875 24.90234375 C10.35061752 31.07085587 9.4188703 35.74397373 5.875 40.875 C1.20949637 45.31291808 -2.60018674 46.18729405 -8.84375 46.0859375 C-12.22167113 45.77359548 -14.35072057 44.81054379 -17.125 42.875 C-22.34512861 36.34983924 -23.48648682 30.09439192 -23.5 22 C-23.52449219 21.23558594 -23.54898438 20.47117187 -23.57421875 19.68359375 C-23.60634929 13.3752987 -22.06376029 7.97726663 -17.6418457 3.30932617 C-12.20374212 -1.41423296 -6.83297196 -2.45986991 0 0 Z " fill="#192A28" transform="translate(941.125,310.125)"/>
<path d="M0 0 C2.97 0 5.94 0 9 0 C14.15242926 12.67092875 19.10948924 25.41368563 24 38.1875 C24.29675629 38.96099792 24.59351257 39.73449585 24.89926147 40.53143311 C25.7472401 42.74289101 26.59280276 44.9552557 27.4375 47.16796875 C27.69650589 47.84314041 27.95551178 48.51831207 28.22236633 49.21394348 C30 53.88485128 30 53.88485128 30 55 C27.36 55 24.72 55 22 55 C20.35 50.71 18.7 46.42 17 42 C8.75 41.67 0.5 41.34 -8 41 C-10.10874606 47.9701122 -10.10874606 47.9701122 -12 55 C-14.64 55 -17.28 55 -20 55 C-19.37226388 51.43915256 -18.43265466 48.21787146 -17.14233398 44.8425293 C-16.76201523 43.84186935 -16.38169647 42.84120941 -15.98985291 41.81022644 C-15.57941238 40.7423439 -15.16897186 39.67446136 -14.74609375 38.57421875 C-14.32578384 37.47149124 -13.90547394 36.36876373 -13.47242737 35.23262024 C-12.13114037 31.71615877 -10.78439467 28.2018169 -9.4375 24.6875 C-8.52633202 22.30157 -7.61552046 19.91550386 -6.70507812 17.52929688 C-4.47418311 11.68461271 -2.23880451 5.84165867 0 0 Z " fill="#F7F8F7" transform="translate(210,405)"/>
<path d="M0 0 C3.63 0 7.26 0 11 0 C11 5.61 11 11.22 11 17 C17.6 17 24.2 17 31 17 C31 19.64 31 22.28 31 25 C24.07 25 17.14 25 10 25 C10.09707614 30.17824563 10.19989317 35.35571711 10.31738281 40.53344727 C10.35559841 42.29379371 10.39046413 44.05421626 10.421875 45.81469727 C10.46768714 48.34939725 10.52565417 50.88357664 10.5859375 53.41796875 C10.59748871 54.20149216 10.60903992 54.98501556 10.62094116 55.7922821 C10.73193963 59.92833928 11.05322618 63.31223402 13 67 C16.34856425 69.55054193 20.1623684 69.39790936 24.25 69.625 C25.51328125 69.69976562 26.7765625 69.77453125 28.078125 69.8515625 C29.52445313 69.92503906 29.52445313 69.92503906 31 70 C31 72.64 31 75.28 31 78 C27.95778935 78.08132642 24.9177762 78.14065374 21.875 78.1875 C21.0190625 78.21263672 20.163125 78.23777344 19.28125 78.26367188 C14.06928035 78.32380999 10.50954854 77.91794317 6 75 C0.19628922 69.03507504 -0.29454544 62.78591783 -0.1953125 54.8828125 C-0.1924826 54.02565643 -0.18965271 53.16850037 -0.18673706 52.28536987 C-0.17559999 49.56510068 -0.1505076 46.84516859 -0.125 44.125 C-0.11496182 42.27344228 -0.10583744 40.42187936 -0.09765625 38.5703125 C-0.07568188 34.0467464 -0.041197 29.52343023 0 25 C-2.31 25 -4.62 25 -7 25 C-7 22.36 -7 19.72 -7 17 C-4.69 17 -2.38 17 0 17 C0 11.39 0 5.78 0 0 Z " fill="#F5F6F5" transform="translate(796,285)"/>
<path d="M0 0 C3.3 0 6.6 0 10 0 C17.82967471 14.25192099 25.4916041 28.57597629 33 43 C33.33 28.81 33.66 14.62 34 0 C36.31 0 38.62 0 41 0 C41 18.15 41 36.3 41 55 C37.7 55 34.4 55 31 55 C29.01006098 51.28713135 27.02032757 47.5741526 25.03076172 43.86108398 C24.35796276 42.60552194 23.6851135 41.34998685 23.01220703 40.09448242 C22.02882909 38.25967906 21.04565022 36.42476914 20.0625 34.58984375 C19.47597656 33.49534912 18.88945313 32.40085449 18.28515625 31.27319336 C14.85120125 24.85177089 11.42679734 18.42524501 8 12 C7.67 26.19 7.34 40.38 7 55 C4.69 55 2.38 55 0 55 C0 36.85 0 18.7 0 0 Z " fill="#FAFBFB" transform="translate(747,405)"/>
<path d="M0 0 C2.31 0 4.62 0 7 0 C7.66 0.66 8.32 1.32 9 2 C9.56976562 1.67773438 10.13953125 1.35546875 10.7265625 1.0234375 C14.45191603 -0.65361168 17.99421553 -0.55732653 22 0 C26.8325314 2.37067578 29.76408623 5.09818904 32 10 C32.75337754 16.64495921 33.16894693 23.4414041 29 29 C26.09000321 32.3464963 24.65254796 33.79459856 20.234375 34.34375 C12.84230769 34.42115385 12.84230769 34.42115385 10 33 C9.67 38.61 9.34 44.22 9 50 C6.03 50 3.06 50 0 50 C0 33.5 0 17 0 0 Z " fill="#F0F1F1" transform="translate(619,155)"/>
<path d="M0 0 C4.62050135 2.68982533 6.4891854 5.62248948 8.6875 10.5 C8.6875 14.13 8.6875 17.76 8.6875 21.5 C-1.5425 21.5 -11.7725 21.5 -22.3125 21.5 C-19.44539929 30.77390141 -19.44539929 30.77390141 -16.00390625 33.60546875 C-12.63186372 34.72622019 -9.80190356 34.86188476 -6.25 34.8125 C-5.04214844 34.80863281 -3.83429688 34.80476563 -2.58984375 34.80078125 C0.50028535 34.5171818 2.04592008 33.97669613 4.6875 32.5 C5.6775 32.5 6.6675 32.5 7.6875 32.5 C7.6875 34.48 7.6875 36.46 7.6875 38.5 C-0.12607193 41.8148487 -9.10540047 43.47944905 -17.25 40.25 C-23.40432359 36.73324366 -27.21042018 33.36530324 -29.3125 26.5 C-30.55782495 18.12864894 -29.12832641 11.46645573 -24.3125 4.5 C-17.72839439 -2.08410561 -8.60851908 -3.68470703 0 0 Z " fill="#F4F6F6" transform="translate(474.3125,419.5)"/>
<path d="M0 0 C4.52206414 3.23004582 7.12205693 6.86911386 9.625 11.875 C9.625 15.175 9.625 18.475 9.625 21.875 C-0.605 21.875 -10.835 21.875 -21.375 21.875 C-19.16497724 30.37419935 -19.16497724 30.37419935 -13.375 34.875 C-6.26302628 35.94953636 0.8072097 35.0139146 7.625 32.875 C7.625 34.855 7.625 36.835 7.625 38.875 C-0.66353569 41.89555097 -9.35251476 44.02255446 -17.75 40.25 C-23.13581945 37.12666618 -26.42312388 32.79911523 -28.375 26.875 C-29.21119928 19.28114371 -29.22870811 12.08323131 -24.375 5.875 C-17.46717105 -1.28402273 -9.63569822 -3.21189941 0 0 Z " fill="#F6F7F7" transform="translate(874.375,419.125)"/>
<path d="M0 0 C4.51576384 2.65633167 6.89575507 5.59906845 9.5 10.1875 C10.1875 12.875 10.1875 12.875 10.1875 21.875 C-0.0425 21.875 -10.2725 21.875 -20.8125 21.875 C-18.61156303 30.38096866 -18.61156303 30.38096866 -12.8125 34.875 C-5.75207376 35.85978758 1.50797558 35.41958073 8.1875 32.875 C8.1875 34.855 8.1875 36.835 8.1875 38.875 C-0.10103569 41.89555097 -8.79001476 44.02255446 -17.1875 40.25 C-22.57884429 37.12346222 -25.84638833 32.79931886 -27.8125 26.875 C-28.53321356 20.08906061 -28.65349038 12.76283393 -24.8125 6.875 C-17.53028605 -0.92303744 -10.36440374 -3.05834864 0 0 Z " fill="#F7F8F8" transform="translate(827.8125,419.125)"/>
<path d="M0 0 C1.98 0 3.96 0 6 0 C8.0990344 5.96669965 9.60319779 12.05953183 11.14453125 18.1875 C11.35464844 19.00476563 11.56476563 19.82203125 11.78125 20.6640625 C11.96751953 21.40092285 12.15378906 22.1377832 12.34570312 22.89697266 C13.0239442 25.07696096 13.92564576 26.98927677 15 29 C15.25394531 27.90042969 15.50789063 26.80085938 15.76953125 25.66796875 C21.34618845 1.65381155 21.34618845 1.65381155 23 0 C25.67058851 -0.14115161 28.32432238 -0.04247107 31 0 C33.76093265 9.30859901 36.50683753 18.61516891 39 28 C39.33 28 39.66 28 40 28 C43.465 14.14 43.465 14.14 47 0 C49.31 0 51.62 0 54 0 C52.13283928 13.96190329 48.18174852 27.57438633 44 41 C41.03 41 38.06 41 35 41 C33.9970154 37.08714061 33.00029303 33.17274436 32.00927734 29.25683594 C31.67146625 27.92567238 31.33196479 26.59493658 30.99072266 25.26464844 C30.49975601 23.3494491 30.01542258 21.43255319 29.53125 19.515625 C29.09135742 17.78747559 29.09135742 17.78747559 28.64257812 16.02441406 C28 13 28 13 28 9 C27.34 9 26.68 9 26 9 C25.91363281 9.56203125 25.82726562 10.1240625 25.73828125 10.703125 C24.61473744 17.42377237 23.07924443 24.01573047 21.4375 30.625 C21.21553955 31.52637695 20.9935791 32.42775391 20.76489258 33.35644531 C20.55243896 34.20045898 20.33998535 35.04447266 20.12109375 35.9140625 C19.83383423 37.0580249 19.83383423 37.0580249 19.54077148 38.22509766 C19 40 19 40 18 41 C15.32941149 41.14115161 12.67567762 41.04247107 10 41 C7.3048511 32.74016132 4.97580395 24.39663074 2.75 16 C2.47978027 14.99702881 2.20956055 13.99405762 1.93115234 12.96069336 C1.68059082 12.00428955 1.4300293 11.04788574 1.171875 10.0625 C0.9459668 9.20785156 0.72005859 8.35320312 0.48730469 7.47265625 C-0.01586989 4.91947383 -0.08705455 2.59538635 0 0 Z " fill="#F4F6F5" transform="translate(336,419)"/>
<path d="M0 0 C4.34004108 2.54416201 6.41619192 4.89488384 8.6875 9.4375 C8.6875 13.3975 8.6875 17.3575 8.6875 21.4375 C-1.2125 21.4375 -11.1125 21.4375 -21.3125 21.4375 C-19.11156303 29.94346866 -19.11156303 29.94346866 -13.3125 34.4375 C-6.25207376 35.42228758 1.00797558 34.98208073 7.6875 32.4375 C7.6875 34.4175 7.6875 36.3975 7.6875 38.4375 C0.19301933 41.61697665 -7.65674428 43.02906945 -15.64453125 40.78125 C-21.24404604 38.29733522 -25.57408931 33.91432139 -28.3125 28.4375 C-28.90815961 18.96422124 -29.34841114 11.23696189 -23 3.6875 C-16.09050107 -2.09719678 -8.41670355 -3.69125751 0 0 Z " fill="#F7F8F8" transform="translate(549.3125,419.5625)"/>
<path d="M0 0 C1.03125 0.53625 2.0625 1.0725 3.125 1.625 C5.91614745 3.34472715 5.91614745 3.34472715 8.75 2.25 C9.4925 1.8375 10.235 1.425 11 1 C14.45179569 -0.72589785 18.21866039 -0.36043965 22 0 C26.27234232 1.76466313 27.95216974 3.92202118 30 8 C30.34057617 10.86254883 30.34057617 10.86254883 30.29296875 13.95703125 C30.2784668 15.62475586 30.2784668 15.62475586 30.26367188 17.32617188 C30.23853516 18.47666016 30.21339844 19.62714844 30.1875 20.8125 C30.16719727 22.56723633 30.16719727 22.56723633 30.14648438 24.35742188 C30.11120278 27.238752 30.0619028 30.11913904 30 33 C27.36 33 24.72 33 22 33 C21.970271 31.97060303 21.970271 31.97060303 21.93994141 30.92041016 C21.84489055 27.82154221 21.73513153 24.72336706 21.625 21.625 C21.5940625 20.54476562 21.563125 19.46453125 21.53125 18.3515625 C21.47324219 16.8046875 21.47324219 16.8046875 21.4140625 15.2265625 C21.3826416 14.27346191 21.3512207 13.32036133 21.31884766 12.33837891 C21.21444204 9.81104824 21.21444204 9.81104824 19 8 C16.31160615 7.73008094 13.70858064 7.91262643 11 8 C10.11126403 11.09950623 9.81456218 13.98504367 9.68359375 17.203125 C9.64169922 18.1828125 9.59980469 19.1625 9.55664062 20.171875 C9.51732422 21.18765625 9.47800781 22.2034375 9.4375 23.25 C9.39431641 24.28125 9.35113281 25.3125 9.30664062 26.375 C9.20074318 28.9165387 9.09866557 31.45817196 9 34 C6.36 34 3.72 34 1 34 C0.98018066 33.28344238 0.96036133 32.56688477 0.93994141 31.82861328 C0.84490481 28.5936937 0.73513981 25.35943906 0.625 22.125 C0.5940625 20.99707031 0.563125 19.86914062 0.53125 18.70703125 C0.49257813 17.63066406 0.45390625 16.55429688 0.4140625 15.4453125 C0.36693115 13.95281982 0.36693115 13.95281982 0.31884766 12.43017578 C0.22752917 9.82145483 0.22752917 9.82145483 -2 8 C-5.54178598 7.74996036 -5.54178598 7.74996036 -9 8 C-10.74506615 9.74506615 -10.23282784 12.19039143 -10.31640625 14.56640625 C-10.35830078 15.69111328 -10.40019531 16.81582031 -10.44335938 17.97460938 C-10.48267578 19.15861328 -10.52199219 20.34261719 -10.5625 21.5625 C-10.60568359 22.75037109 -10.64886719 23.93824219 -10.69335938 25.16210938 C-10.79983546 28.10794784 -10.90184841 31.0538743 -11 34 C-17.15234375 34.09765625 -17.15234375 34.09765625 -19 34 C-20 33 -20 33 -20.11352539 29.94897461 C-20.11336634 28.60008729 -20.10767612 27.25119386 -20.09765625 25.90234375 C-20.0962413 25.19348526 -20.09482635 24.48462677 -20.09336853 23.75428772 C-20.08775443 21.48198288 -20.07519963 19.20977525 -20.0625 16.9375 C-20.05748681 15.40039204 -20.05292359 13.86328255 -20.04882812 12.32617188 C-20.03778042 8.55074358 -20.02050641 4.77538829 -20 1 C-16.33333333 1 -12.66666667 1 -9 1 C-5.92805092 -0.53597454 -3.39755707 -0.2265038 0 0 Z " fill="#F2F2F2" transform="translate(582,155)"/>
<path d="M0 0 C3.83913701 2.91414238 6.28313281 6.66724429 7.23828125 11.40625 C7.50039431 16.9543098 6.16990455 22.74496446 2.4375 26.96875 C-2.27294938 31.11871553 -5.90796221 31.7088793 -12.078125 31.60546875 C-16.81068049 31.11894435 -20.19745432 29.38736955 -23.48046875 26.015625 C-26.95331405 20.6134212 -28.22115425 15.78420568 -27.16796875 9.390625 C-25.21535655 4.90195073 -22.54016656 0.78828186 -18.16796875 -1.609375 C-12.05509769 -4.01086006 -5.59373727 -3.13337551 0 0 Z " fill="#F5F5F5" transform="translate(550.16796875,157.609375)"/>
<path d="M0 0 C0 3.3 0 6.6 0 10 C-0.94101562 9.95359375 -1.88203125 9.9071875 -2.8515625 9.859375 C-10.58875476 9.29351115 -10.58875476 9.29351115 -17.6875 11.75 C-24.13873369 18.02687603 -25.28803392 24.16752462 -25.4140625 32.8984375 C-25.43342865 33.73339752 -25.4527948 34.56835754 -25.4727478 35.42861938 C-25.53219614 38.07731126 -25.57878894 40.72604743 -25.625 43.375 C-25.66321182 45.17840364 -25.70226539 46.98178966 -25.7421875 48.78515625 C-25.83786881 53.18995984 -25.92202711 57.5948488 -26 62 C-29.3 62 -32.6 62 -36 62 C-36 41.87 -36 21.74 -36 1 C-32.37 1 -28.74 1 -25 1 C-24.67 3.31 -24.34 5.62 -24 8 C-23.29875 7.236875 -22.5975 6.47375 -21.875 5.6875 C-15.03574171 -0.7057197 -8.97836598 -0.35966748 0 0 Z " fill="#F4F5F4" transform="translate(475,301)"/>
<path d="M0 0 C1.73189575 -0.00945648 1.73189575 -0.00945648 3.4987793 -0.019104 C4.75086182 -0.01505554 6.00294434 -0.01100708 7.29296875 -0.00683594 C8.57276611 -0.00874939 9.85256348 -0.01066284 11.17114258 -0.01263428 C13.88139668 -0.01558475 16.59151902 -0.01129049 19.30175781 -0.00195312 C22.77896106 0.00944154 26.25585557 0.00288163 29.73304749 -0.00909805 C33.04471279 -0.01805519 36.35629466 -0.01178729 39.66796875 -0.00683594 C41.54609253 -0.01290863 41.54609253 -0.01290863 43.4621582 -0.019104 C44.61675537 -0.01279968 45.77135254 -0.00649536 46.9609375 0 C47.98082764 0.00159119 49.00071777 0.00318237 50.05151367 0.00482178 C52.48046875 0.25878906 52.48046875 0.25878906 54.48046875 2.25878906 C54.78125 4.31738281 54.78125 4.31738281 54.79296875 6.69628906 C54.80972656 7.47875 54.82648438 8.26121094 54.84375 9.06738281 C54.38210705 11.85213225 53.71476387 12.55907737 51.48046875 14.25878906 C48.96922302 14.63973999 48.96922302 14.63973999 45.93920898 14.64697266 C44.23745766 14.66115738 44.23745766 14.66115738 42.50132751 14.67562866 C41.27628006 14.66955597 40.0512326 14.66348328 38.7890625 14.65722656 C36.90478294 14.66153183 36.90478294 14.66153183 34.98243713 14.66592407 C32.32497233 14.66796719 29.66833331 14.66392435 27.01098633 14.64990234 C23.6020552 14.63279251 20.1938317 14.64266357 16.78492641 14.66061974 C13.53627949 14.67405288 10.28771864 14.66465486 7.0390625 14.65722656 C5.19845497 14.6663356 5.19845497 14.6663356 3.32066345 14.67562866 C2.18931473 14.66617218 1.057966 14.6567157 -0.10766602 14.64697266 C-1.10677505 14.64458588 -2.10588409 14.6421991 -3.13526917 14.63973999 C-4.3154789 14.45116928 -4.3154789 14.45116928 -5.51953125 14.25878906 C-7.60893993 11.12467604 -7.79317537 10.28428435 -7.76953125 6.69628906 C-7.7746875 5.91125 -7.77984375 5.12621094 -7.78515625 4.31738281 C-7.17558993 -0.40675613 -3.96323122 0.00618325 0 0 Z " fill="#2E3838" transform="translate(424.51953125,154.7412109375)"/>
<path d="M0 0 C2.31 0 4.62 0 7 0 C7.33 6.93 7.66 13.86 8 21 C9.65 19.35 11.3 17.7 13 16 C18.01027625 14.32990792 22.33043317 14.42207302 27.25 16.125 C31.38582949 18.94488374 33.43164671 22.29494012 35 27 C35.08378628 29.2838517 35.10729915 31.570101 35.09765625 33.85546875 C35.0962413 34.51710526 35.09482635 35.17874176 35.09336853 35.86042786 C35.08777996 37.96949828 35.07522965 40.07846177 35.0625 42.1875 C35.05748352 43.61913909 35.05292087 45.05077985 35.04882812 46.48242188 C35.0378143 49.98831588 35.02055755 53.4941475 35 57 C32.69 57 30.38 57 28 57 C27.9906543 56.11739502 27.98130859 55.23479004 27.97167969 54.32543945 C27.92753886 51.03543328 27.86587324 47.74670926 27.79248047 44.45727539 C27.76433986 43.03649808 27.74309092 41.61556622 27.72900391 40.19458008 C27.70747606 38.14584641 27.66078486 36.098957 27.609375 34.05078125 C27.58842773 32.82012939 27.56748047 31.58947754 27.54589844 30.3215332 C26.90860142 26.44388297 25.75253136 24.75573384 23 22 C19.91858211 21.06289617 17.12706891 21.28651547 14 22 C11.24430553 24.18159145 9.56411253 25.87177494 8 29 C7.84558791 31.10374996 7.75007361 33.21195119 7.68359375 35.3203125 C7.64169922 36.57714844 7.59980469 37.83398438 7.55664062 39.12890625 C7.51732422 40.44761719 7.47800781 41.76632812 7.4375 43.125 C7.39430488 44.46485751 7.35069027 45.80470156 7.30664062 47.14453125 C7.20029019 50.42957815 7.09826192 53.71470281 7 57 C4.69 57 2.38 57 0 57 C0 38.19 0 19.38 0 0 Z " fill="#F3F5F5" transform="translate(400,403)"/>
<path d="M0 0 C2.64 0 5.28 0 8 0 C9.57090902 3.94930174 11.13737167 7.90032854 12.69970703 11.85302734 C13.2320106 13.19791391 13.76553404 14.54231832 14.30029297 15.88623047 C15.06798081 17.81613217 15.8312893 19.74771573 16.59375 21.6796875 C17.05458984 22.84226074 17.51542969 24.00483398 17.99023438 25.20263672 C19 28 19 28 19 30 C19.66 30 20.32 30 21 30 C21.16870605 29.47212891 21.33741211 28.94425781 21.51123047 28.40039062 C23.48670252 22.33541431 25.74299015 16.41576073 28.125 10.5 C28.48464844 9.59507812 28.84429687 8.69015625 29.21484375 7.7578125 C29.55902344 6.89929688 29.90320313 6.04078125 30.2578125 5.15625 C30.72405029 3.99319336 30.72405029 3.99319336 31.19970703 2.80664062 C32 1 32 1 33 0 C35.33297433 -0.04092937 37.66705225 -0.04241723 40 0 C36.10377525 10.55921692 32.05288677 21.04367865 27.78564453 31.45874023 C27.17113836 32.96271525 26.56054873 34.46829566 25.95361328 35.9753418 C25.05796685 38.19922093 24.15140475 40.41835901 23.2421875 42.63671875 C22.97542206 43.30442795 22.70865662 43.97213715 22.43380737 44.66007996 C20.56755439 49.16194021 18.52707235 53.73646383 14 56 C12.29297265 56.06996014 10.58331997 56.08440154 8.875 56.0625 C7.96492188 56.05347656 7.05484375 56.04445313 6.1171875 56.03515625 C5.41851562 56.02355469 4.71984375 56.01195312 4 56 C4 54.35 4 52.7 4 51 C5.093125 50.9175 6.18625 50.835 7.3125 50.75 C10.90243134 50.31202516 10.90243134 50.31202516 12.875 48.5 C15.19462519 43.34527737 15.66398758 38.03600569 13.73657227 32.68945312 C13.11713746 31.2112411 12.47613891 29.74192213 11.81640625 28.28125 C11.48205063 27.49729858 11.14769501 26.71334717 10.8032074 25.90563965 C9.74191693 23.42839328 8.65316819 20.96443266 7.5625 18.5 C6.48206067 16.00449961 5.40724 13.50662783 4.33250427 11.00866699 C3.66392496 9.46080714 2.99075535 7.91492058 2.31263733 6.37121582 C0 1.10180485 0 1.10180485 0 0 Z " fill="#F6F7F7" transform="translate(290,419)"/>
<path d="M0 0 C1.98 0 3.96 0 6 0 C6.0093457 0.8470752 6.01869141 1.69415039 6.02832031 2.56689453 C6.07252612 5.73194352 6.13422527 8.89604812 6.20751953 12.06054688 C6.23561623 13.42598164 6.25688677 14.79157564 6.27099609 16.15722656 C6.29257982 18.12854038 6.3413546 20.09949631 6.390625 22.0703125 C6.41157227 23.25383301 6.43251953 24.43735352 6.45410156 25.65673828 C7.112128 29.68670878 8.3679936 31.89828347 11 35 C15.43477913 35.63353988 17.77745041 35.50496614 21.875 33.8125 C25.13837115 31.02903637 25.8778142 28.16731412 26.31884766 23.95385742 C26.35026855 22.84888916 26.38168945 21.7439209 26.4140625 20.60546875 C26.45273437 19.40341797 26.49140625 18.20136719 26.53125 16.96289062 C26.5621875 15.71701172 26.593125 14.47113281 26.625 13.1875 C26.66367187 11.92228516 26.70234375 10.65707031 26.7421875 9.35351562 C26.83630657 6.23582149 26.92194361 3.11813086 27 0 C29.31 0 31.62 0 34 0 C34 13.53 34 27.06 34 41 C31.69 41 29.38 41 27 41 C26.67 39.68 26.34 38.36 26 37 C25.29037109 37.54140625 25.29037109 37.54140625 24.56640625 38.09375 C20.06991938 41.24917938 16.65242334 42.77157701 11.109375 42.41796875 C7.64460177 41.73143035 5.59770217 40.35030196 3 38 C0.12960898 33.33566782 -0.35819575 29.84964625 -0.29296875 24.4140625 C-0.28872391 23.71227875 -0.28447906 23.010495 -0.28010559 22.28744507 C-0.26343599 20.0662244 -0.22580872 17.84594212 -0.1875 15.625 C-0.17243788 14.11069027 -0.15875216 12.59636619 -0.14648438 11.08203125 C-0.11357183 7.38772068 -0.06187259 3.69395207 0 0 Z " fill="#F8F9F8" transform="translate(675,419)"/>
<path d="M0 0 C5.25428235 1.78447325 7.35023392 4.18902282 10 9 C10.33663684 11.75064877 10.47224142 14.07348366 10.390625 16.8046875 C10.38496521 17.5286673 10.37930542 18.25264709 10.37347412 18.99856567 C10.35123667 21.29140788 10.30106987 23.58263716 10.25 25.875 C10.22991841 27.43747729 10.21167055 28.99997929 10.1953125 30.5625 C10.15141416 34.3756133 10.08247971 38.18753402 10 42 C8.02 42 6.04 42 4 42 C3.98541748 41.14768799 3.97083496 40.29537598 3.95581055 39.41723633 C3.89456715 36.23928825 3.82037971 33.06197454 3.73754883 29.88452148 C3.70440194 28.51224042 3.67633829 27.13982638 3.65356445 25.76733398 C3.61983234 23.78862234 3.5659851 21.81028624 3.51171875 19.83203125 C3.48553467 18.64327393 3.45935059 17.4545166 3.43237305 16.22973633 C2.96468107 12.736175 2.09456428 10.80783965 0 8 C-3.45321627 6.27339187 -7.22398729 6.50952148 -11 7 C-14.29770644 9.3083945 -15.27165619 11.14833428 -16 15 C-16.14678114 17.09647443 -16.24705138 19.19641323 -16.31640625 21.296875 C-16.35830078 22.50214844 -16.40019531 23.70742188 -16.44335938 24.94921875 C-16.48267578 26.20347656 -16.52199219 27.45773437 -16.5625 28.75 C-16.60568359 30.01972656 -16.64886719 31.28945313 -16.69335938 32.59765625 C-16.79939722 35.73166365 -16.90146058 38.86574933 -17 42 C-19.31 42 -21.62 42 -24 42 C-24 28.47 -24 14.94 -24 1 C-21.69 1 -19.38 1 -17 1 C-16.67 2.32 -16.34 3.64 -16 5 C-15.030625 4.175 -14.06125 3.35 -13.0625 2.5 C-8.76378849 -0.5630495 -5.13625645 -0.84354577 0 0 Z " fill="#F8F9F9" transform="translate(271,418)"/>
<path d="M0 0 C2.97 0 5.94 0 9 0 C11.31 5.94 13.62 11.88 16 18 C18.73791928 15.26208072 19.70693367 11.98967748 21.0625 8.4375 C23.88006757 1.11993243 23.88006757 1.11993243 25 0 C28.00003445 -0.14177857 30.99757235 -0.04228771 34 0 C30.05904628 10.58477912 25.66268685 20.94560462 21.1875 31.3125 C20.4874023 32.93935507 19.78753105 34.5663076 19.08789062 36.19335938 C17.39452887 40.1300319 15.69813159 44.06538279 14 48 C11.36 48 8.72 48 6 48 C8.54831964 38.85496639 8.54831964 38.85496639 10.75 34.6875 C12.27321548 31.41258672 11.93292144 30.42877309 11 27 C10.21351313 25.01797103 9.37402749 23.0565344 8.49609375 21.11328125 C8.00302734 20.01048828 7.50996094 18.90769531 7.00195312 17.77148438 C6.22754883 16.05928711 6.22754883 16.05928711 5.4375 14.3125 C4.41205905 12.03924862 3.3897538 9.76457927 2.37109375 7.48828125 C1.91661865 6.48321533 1.46214355 5.47814941 0.99389648 4.44262695 C0 2 0 2 0 0 Z " fill="#F7F8F8" transform="translate(751,156)"/>
<path d="M0 0 C2.96265076 -0.6789408 4.17938643 -0.9455466 7 0 C10.1694895 3.32424972 12.52377791 7.1454121 15 11 C16.3259378 12.90101309 17.65872556 14.79727655 19 16.6875 C20.00104724 18.12427092 21.00146334 19.56148313 22 21 C24.78475606 18.57960454 26.66493966 16.04270551 28.515625 12.890625 C29.18658203 11.75947266 29.18658203 11.75947266 29.87109375 10.60546875 C30.7932522 9.03022358 31.69690273 7.44400241 32.58203125 5.84765625 C33.9257995 3.62335609 35.10476217 1.78147805 37 0 C39.97061675 -0.71218979 41.91271777 -0.43725456 45 0 C43.48873004 4.46664231 41.02808107 7.99628331 38.25 11.75 C36.95343419 13.51877188 35.66373638 15.29004179 34.39697266 17.08032227 C33.43048419 18.4084416 32.41556146 19.70214645 31.36474609 20.96459961 C26.18176664 27.63913395 26.10746225 33.81537411 26.125 42.0625 C26.104375 43.30966797 26.08375 44.55683594 26.0625 45.84179688 C26.01570446 48.89520593 25.99553134 51.94630818 26 55 C23.69 55 21.38 55 19 55 C19.0220752 54.29093506 19.04415039 53.58187012 19.06689453 52.85131836 C19.39089547 38.04927558 19.20827755 27.07716167 9.34423828 15.61279297 C7.12481064 12.94996351 5.28100931 10.08231557 3.375 7.1875 C2.72273437 6.23230469 2.07046875 5.27710938 1.3984375 4.29296875 C0 2 0 2 0 0 Z " fill="#F8F9F9" transform="translate(587,405)"/>
<path d="M0 0 C2.64 0 5.28 0 8 0 C8.01981934 0.71655762 8.03963867 1.43311523 8.06005859 2.17138672 C8.15509519 5.4063063 8.26486019 8.64056094 8.375 11.875 C8.4059375 13.00292969 8.436875 14.13085938 8.46875 15.29296875 C8.50742187 16.36933594 8.54609375 17.44570312 8.5859375 18.5546875 C8.6173584 19.54968262 8.6487793 20.54467773 8.68115234 21.56982422 C8.77247083 24.17854517 8.77247083 24.17854517 11 26 C14.693507 26.20146402 17.47940432 26.17353189 21 25 C21 16.75 21 8.5 21 0 C23.64 0 26.28 0 29 0 C29 11.22 29 22.44 29 34 C26.36 34 23.72 34 21 34 C21 33.34 21 32.68 21 32 C20.01 32.495 20.01 32.495 19 33 C15.25515105 34.24828298 11.87508758 34.74316748 8 34 C3.69008939 31.7076959 1.45379041 28.59864791 0 24 C-0.22705078 21.22924805 -0.22705078 21.22924805 -0.1953125 18.26171875 C-0.18886719 17.19501953 -0.18242188 16.12832031 -0.17578125 15.02929688 C-0.15902344 13.92650391 -0.14226563 12.82371094 -0.125 11.6875 C-0.11597656 10.56537109 -0.10695313 9.44324219 -0.09765625 8.28710938 C-0.07414486 5.52452091 -0.04128155 2.76237068 0 0 Z " fill="#F1F2F2" transform="translate(657,155)"/>
<path d="M0 0 C3.8115763 2.09344782 6.39830141 4.96284191 8 9 C8.82553652 15.90448729 8.10409885 21.7918023 5 28 C3.09827869 30.34058007 1.85999051 30.85801282 -1.08203125 31.34375 C-5.4366681 31.6326148 -7.38797299 31.46878664 -10.9375 28.75 C-15.69121789 22.41170948 -15.78895173 16.81347379 -15 9 C-12.52915682 1.72135851 -7.63986254 -1.42976633 0 0 Z " fill="#193230" transform="translate(914,424)"/>
<path d="M0 0 C3.56294595 2.24333634 5.49147912 3.98295824 7.375 7.75 C8.73786822 14.83691475 8.66060308 20.56238769 5 27 C2.10784031 30.3174773 -0.21060007 31.30436379 -4.5 31.625 C-7.13657588 31.51514267 -8.53629569 31.34887188 -10.65625 29.75390625 C-15.53819691 24.06303209 -15.33338057 18.55971201 -15.2890625 11.40234375 C-14.90937247 6.93328952 -14.08805056 5.17628057 -11 2 C-7.29718134 -0.46854577 -4.29423209 -0.78741118 0 0 Z " fill="#18312E" transform="translate(649,424)"/>
<path d="M0 0 C2.31 0 4.62 0 7 0 C7 3.96 7 7.92 7 12 C11.62 12 16.24 12 21 12 C21 13.65 21 15.3 21 17 C16.38 17 11.76 17 7 17 C7.33 26.57 7.66 36.14 8 46 C12.29 46.33 16.58 46.66 21 47 C21 48.98 21 50.96 21 53 C7.65778594 53.58291226 7.65778594 53.58291226 3 50 C-1.21281785 44.14217709 -0.33297517 37.51082451 -0.1875 30.625 C-0.17396484 29.41199219 -0.16042969 28.19898438 -0.14648438 26.94921875 C-0.11124582 23.96568794 -0.06197525 20.98307542 0 18 C-1.65 18 -3.3 18 -5 18 C-5 16.02 -5 14.04 -5 12 C-3.35 12 -1.7 12 0 12 C0 8.04 0 4.08 0 0 Z " fill="#F1F2F2" transform="translate(988,407)"/>
<path d="M0 0 C0.89297791 -0.01851517 1.78595581 -0.03703033 2.70599365 -0.05610657 C4.59898465 -0.08818224 6.49209399 -0.11381448 8.38525391 -0.13354492 C10.31956158 -0.16160422 12.25368816 -0.20932386 14.18701172 -0.27709961 C30.25154953 -0.83876793 30.25154953 -0.83876793 34.68164062 2.49365234 C36.69008585 5.43728725 38.046875 7.90601476 38.046875 11.51171875 C20.226875 11.51171875 2.406875 11.51171875 -15.953125 11.51171875 C-9.66860476 0.19958232 -9.66860476 0.19958232 0 0 Z " fill="#1D2423" transform="translate(436.953125,140.48828125)"/>
<path d="M0 0 C5.02203886 2.82839735 7.55981871 5.82663976 9.7890625 11.12109375 C9.7890625 13.10109375 9.7890625 15.08109375 9.7890625 17.12109375 C-1.7609375 17.12109375 -13.3109375 17.12109375 -25.2109375 17.12109375 C-24.22114038 9.20271676 -23.84619342 6.92950625 -18.2109375 2.12109375 C-12.46061228 -1.24230402 -6.31174738 -2.50908686 0 0 Z " fill="#1A2B29" transform="translate(638.2109375,309.87890625)"/>
<path d="M0 0 C1.22589844 0.01353516 1.22589844 0.01353516 2.4765625 0.02734375 C3.41628906 0.04474609 3.41628906 0.04474609 4.375 0.0625 C4.045 2.3725 3.715 4.6825 3.375 7.0625 C1.725 7.3925 0.075 7.7225 -1.625 8.0625 C-1.955 11.0325 -2.285 14.0025 -2.625 17.0625 C-0.315 17.0625 1.995 17.0625 4.375 17.0625 C4.375 19.0425 4.375 21.0225 4.375 23.0625 C2.065 23.0625 -0.245 23.0625 -2.625 23.0625 C-2.625 31.9725 -2.625 40.8825 -2.625 50.0625 C-5.265 50.0625 -7.905 50.0625 -10.625 50.0625 C-10.625 41.1525 -10.625 32.2425 -10.625 23.0625 C-12.275 23.0625 -13.925 23.0625 -15.625 23.0625 C-15.625 21.0825 -15.625 19.1025 -15.625 17.0625 C-13.975 17.0625 -12.325 17.0625 -10.625 17.0625 C-10.67140625 16.24265625 -10.7178125 15.4228125 -10.765625 14.578125 C-10.80171875 13.50046875 -10.8378125 12.4228125 -10.875 11.3125 C-10.92140625 10.24515625 -10.9678125 9.1778125 -11.015625 8.078125 C-10.53765103 4.38816594 -9.49372822 3.33623274 -6.625 1.0625 C-4.21954362 -0.14022819 -2.67503047 -0.03821472 0 0 Z " fill="#F5F5F5" transform="translate(744.625,138.9375)"/>
<path d="M0 0 C0 2.31 0 4.62 0 7 C-0.83144531 6.98839844 -1.66289063 6.97679687 -2.51953125 6.96484375 C-4.14955078 6.95130859 -4.14955078 6.95130859 -5.8125 6.9375 C-7.43091797 6.92009766 -7.43091797 6.92009766 -9.08203125 6.90234375 C-12.06512169 6.86375234 -12.06512169 6.86375234 -15 8 C-15.93249614 10.79748841 -16.13476152 12.54320881 -16.125 15.4375 C-16.12757813 16.19933594 -16.13015625 16.96117187 -16.1328125 17.74609375 C-15.99938055 20.01051246 -15.81160703 21.87769425 -15 24 C-11.71480525 25.09506492 -9.26336585 25.09960608 -5.8125 25.0625 C-4.72582031 25.05347656 -3.63914062 25.04445312 -2.51953125 25.03515625 C-1.68808594 25.02355469 -0.85664062 25.01195312 0 25 C0.33 26.98 0.66 28.96 1 31 C-4.19840829 33.68304944 -9.63771426 33.98855936 -15.21875 32.34765625 C-19.31606171 30.56654873 -22.36614598 28.41664534 -24.37109375 24.25390625 C-25.94534905 18.61200994 -26.28614127 12.20714376 -24.08203125 6.7109375 C-18.50649841 -1.76964643 -9.18973472 -2.62563849 0 0 Z " fill="#F7F7F7" transform="translate(519,156)"/>
<path d="M0 0 C2.64 0 5.28 0 8 0 C8 2.64 8 5.28 8 8 C10.31 8 12.62 8 15 8 C15 9.98 15 11.96 15 14 C12.69 14 10.38 14 8 14 C8.33 20.27 8.66 26.54 9 33 C10.98 33.66 12.96 34.32 15 35 C15 36.98 15 38.96 15 41 C5.85833915 41.62805304 5.85833915 41.62805304 2.4375 39.125 C0.23590386 35.87046657 -0.12114635 34.11029375 -0.09765625 30.2109375 C-0.09282227 28.79941406 -0.09282227 28.79941406 -0.08789062 27.359375 C-0.07951172 26.37453125 -0.07113281 25.3896875 -0.0625 24.375 C-0.05798828 23.38242188 -0.05347656 22.38984375 -0.04882812 21.3671875 C-0.03702145 18.9113984 -0.020554 16.45572896 0 14 C-1.32 14 -2.64 14 -4 14 C-4 11.69 -4 9.38 -4 7 C-2.68 7 -1.36 7 0 7 C0 4.69 0 2.38 0 0 Z " fill="#F9F9F9" transform="translate(695,148)"/>
<path d="M0 0 C1.22589844 0.01353516 1.22589844 0.01353516 2.4765625 0.02734375 C3.41628906 0.04474609 3.41628906 0.04474609 4.375 0.0625 C4.375 2.3725 4.375 4.6825 4.375 7.0625 C3.78332031 7.02769531 3.19164062 6.99289062 2.58203125 6.95703125 C-2.31523752 6.78926185 -5.71379412 6.74390107 -9.625 10.0625 C-11.85263631 13.50010078 -11.92886467 16.53753782 -12.0390625 20.578125 C-12.09707031 22.45371094 -12.09707031 22.45371094 -12.15625 24.3671875 C-12.1871875 25.66914063 -12.218125 26.97109375 -12.25 28.3125 C-12.30800781 30.28863281 -12.30800781 30.28863281 -12.3671875 32.3046875 C-12.46146182 35.55715161 -12.5470675 38.80960996 -12.625 42.0625 C-14.935 42.0625 -17.245 42.0625 -19.625 42.0625 C-19.625 28.5325 -19.625 15.0025 -19.625 1.0625 C-17.315 1.0625 -15.005 1.0625 -12.625 1.0625 C-12.295 2.3825 -11.965 3.7025 -11.625 5.0625 C-10.84125 4.423125 -10.0575 3.78375 -9.25 3.125 C-5.80887672 0.42126028 -4.28431576 -0.06120451 0 0 Z " fill="#F7F8F8" transform="translate(513.625,417.9375)"/>
<path d="M0 0 C2.31 0 4.62 0 7 0 C7 18.15 7 36.3 7 55 C4.69 55 2.38 55 0 55 C0 36.85 0 18.7 0 0 Z " fill="#FDFDFD" transform="translate(967,405)"/>
<path d="M0 0 C2.1703142 2.70056359 3.62258187 5.16095841 4.82421875 8.40625 C5.13037109 9.23253906 5.43652344 10.05882812 5.75195312 10.91015625 C6.06068359 11.76480469 6.36941406 12.61945313 6.6875 13.5 C7.00783203 14.35464844 7.32816406 15.20929688 7.65820312 16.08984375 C9.10303317 20.03925124 10 22.72288522 10 27 C3.73 27 -2.54 27 -9 27 C-8.28865192 22.73191153 -7.66588373 19.71227246 -6.15234375 15.8203125 C-5.79462891 14.8921875 -5.43691406 13.9640625 -5.06835938 13.0078125 C-4.50858398 11.58082031 -4.50858398 11.58082031 -3.9375 10.125 C-3.37192383 8.66320312 -3.37192383 8.66320312 -2.79492188 7.171875 C-1.86835624 4.77922451 -0.93659209 2.38873946 0 0 Z " fill="#203835" transform="translate(214,413)"/>
<path d="M0 0 C1.90625 0.36328125 1.90625 0.36328125 4.40625 1.67578125 C6.86076244 6.07344937 6.6029896 10.45707326 5.90625 15.36328125 C4.40625 18.55078125 4.40625 18.55078125 1.90625 20.36328125 C-0.89347867 20.99436763 -3.32342088 21.14784711 -6.09375 20.36328125 C-8.96031358 18.21840533 -9.96885937 17.03915997 -10.625 13.48828125 C-10.6146875 12.45703125 -10.604375 11.42578125 -10.59375 10.36328125 C-10.6040625 9.33203125 -10.614375 8.30078125 -10.625 7.23828125 C-9.48913234 1.09123274 -5.68187024 -0.37101765 0 0 Z " fill="#1B2221" transform="translate(542.09375,161.63671875)"/>
<path d="M0 0 C2.91927604 1.3961755 4.72202996 2.72202996 7 5 C8.670625 5.4021875 8.670625 5.4021875 10.375 5.8125 C14.57130401 7.18715131 15.87041665 8.16674997 18 12 C18.5625 15.5 18.5625 15.5 18 19 C15.8272578 21.63016161 14.05326212 23.47336894 11 25 C6.87716907 25.23378885 2.7527292 25.22836531 -1.3762207 25.24023438 C-3.42635563 25.2499472 -5.47549074 25.28097445 -7.52539062 25.3125 C-8.81509766 25.31765625 -10.10480469 25.3228125 -11.43359375 25.328125 C-13.21334595 25.34214355 -13.21334595 25.34214355 -15.02905273 25.35644531 C-18 25 -18 25 -19.87915039 23.68652344 C-21.84155615 20.73372471 -21.46517021 18.43063029 -21 15 C-18.75 11.9375 -18.75 11.9375 -17.36328125 10.4765625 C-15.75271678 8.81629958 -15.75271678 8.81629958 -13.9375 5.8125 C-10.13678515 0.29533329 -6.70559048 -1.01317073 0 0 Z M-12 7 C-12.67863055 8.9959722 -13.34641919 10.99568551 -14 13 C-16.125 14.375 -16.125 14.375 -18 15 C-18.04254356 16.99954746 -18.04080783 19.00041636 -18 21 C-15.23291906 23.76708094 -6.91286232 22.28498625 -3.1875 22.3125 C-1.89005859 22.34150391 -0.59261719 22.37050781 0.74414062 22.40039062 C1.99001953 22.40876953 3.23589844 22.41714844 4.51953125 22.42578125 C6.23813354 22.44765503 6.23813354 22.44765503 7.99145508 22.4699707 C11.08907287 22.22718827 11.08907287 22.22718827 13.4050293 20.19604492 C15.34891884 17.97194535 15.34891884 17.97194535 15 14.4375 C14.28771326 11.02574724 14.28771326 11.02574724 12.25 9.125 C10.02230366 7.88569377 10.02230366 7.88569377 7.4375 7.5 C4.63445548 6.92501651 3.84353513 6.10689729 2 4 C-3.40643552 1.29678224 -8.08536665 2.74982665 -12 7 Z " fill="#89CCC5" transform="translate(464,180)"/>
<path d="M0 0 C5.6233202 -0.09892174 11.24613333 -0.17149342 16.87011719 -0.21972656 C18.78296735 -0.23983452 20.69575611 -0.26712507 22.60839844 -0.30175781 C25.35887811 -0.35031249 28.10854477 -0.37297658 30.859375 -0.390625 C31.71368103 -0.41127014 32.56798706 -0.43191528 33.44818115 -0.45318604 C39.39169909 -0.45542915 39.39169909 -0.45542915 42.42382812 1.81469727 C42.94396484 2.53584717 43.46410156 3.25699707 44 4 C44.42249023 4.5571167 44.84498047 5.1142334 45.28027344 5.68823242 C54.50313041 19.9377551 54.50313041 19.9377551 53 28 C52.34 28.66 51.68 29.32 51 30 C48.98822819 27.98822819 49.56336065 24.07522667 49.37890625 21.34765625 C49.20514276 18.81487227 49.20514276 18.81487227 47 17 C44.61519954 16.66868587 44.61519954 16.66868587 41.81591797 16.68115234 C40.73494843 16.66128265 39.65397888 16.64141296 38.54025269 16.62094116 C37.36939117 16.60938995 36.19852966 16.59783875 34.9921875 16.5859375 C33.79643097 16.56657135 32.60067444 16.5472052 31.36868286 16.5272522 C27.53752852 16.46732056 23.70634435 16.4210164 19.875 16.375 C17.28253875 16.33683276 14.69009034 16.29778179 12.09765625 16.2578125 C5.73188463 16.1616079 -0.63396395 16.07660039 -7 16 C-6.67 15.34 -6.34 14.68 -6 14 C11.16 14 28.32 14 46 14 C41.54671273 4.54965824 41.54671273 4.54965824 38 3 C35.0851463 2.84279903 32.19060364 2.74144346 29.2734375 2.68359375 C28.41062164 2.66281265 27.54780579 2.64203156 26.65884399 2.62062073 C23.89764507 2.55513966 21.13634962 2.49624702 18.375 2.4375 C16.50519828 2.3943134 14.63540638 2.35069907 12.765625 2.30664062 C8.17718272 2.19945976 3.58864317 2.09818825 -1 2 C-0.67 1.34 -0.34 0.68 0 0 Z " fill="#D0E7E5" transform="translate(429,138)"/>
<path d="M0 0 C3.04487596 0.26699472 3.96411238 0.66058428 6.5 2.5625 C8.63331382 7.00690379 8.76204098 10.8453646 8 15.6875 C6.5 18.8125 6.5 18.8125 4 20.6875 C0.98578837 21.36069415 -0.82360153 21.14127121 -4 20.6875 C-7.14893352 17.74172348 -7.91175013 14.62294857 -8.3125 10.375 C-7.8310768 4.69420622 -6.12326701 0.4112642 0 0 Z " fill="#1F2625" transform="translate(635,161.3125)"/>
<path d="M0 0 C1.16097702 0.00007553 2.32195404 0.00015106 3.51811218 0.00022888 C5.3979052 0.00797081 5.3979052 0.00797081 7.31567383 0.01586914 C8.59879959 0.01728409 9.88192535 0.01869904 11.20393372 0.02015686 C14.61190749 0.02397134 18.01983851 0.03379248 21.42779541 0.04486084 C24.90669171 0.05509796 28.38559493 0.05965941 31.86450195 0.06469727 C38.6880872 0.07541572 45.51164409 0.0924793 52.33520508 0.11352539 C52.33520508 0.44352539 52.33520508 0.77352539 52.33520508 1.11352539 C51.62332535 1.12383286 50.91144562 1.13414032 50.17799377 1.14476013 C43.48237681 1.24257437 36.7868499 1.34506543 30.09138584 1.45286465 C26.64884768 1.50812419 23.20630108 1.56154886 19.76367188 1.61083984 C15.80955982 1.6675334 11.85559563 1.73210034 7.90161133 1.79711914 C6.65996719 1.81383163 5.41832306 1.83054413 4.13905334 1.84776306 C2.99794601 1.86770828 1.85683868 1.8876535 0.68115234 1.90820312 C-0.32922592 1.92374741 -1.33960419 1.93929169 -2.38059998 1.95530701 C-4.63009381 1.85997269 -4.63009381 1.85997269 -5.66479492 3.11352539 C-5.8642136 5.18125273 -5.8642136 5.18125273 -5.85229492 7.55102539 C-5.86647461 8.35411133 -5.8806543 9.15719727 -5.89526367 9.98461914 C-5.86641848 12.32983172 -5.86641848 12.32983172 -3.66479492 14.11352539 C-0.94863628 14.48559893 -0.94863628 14.48559893 2.21801758 14.52758789 C3.38461914 14.56625977 4.5512207 14.60493164 5.75317383 14.64477539 C7.5881543 14.69118164 7.5881543 14.69118164 9.46020508 14.73852539 C10.69125977 14.77719727 11.92231445 14.81586914 13.19067383 14.85571289 C16.23869884 14.95022529 19.2867137 15.03578033 22.33520508 15.11352539 C22.33520508 15.77352539 22.33520508 16.43352539 22.33520508 17.11352539 C21.55806152 17.13334473 20.78091797 17.15316406 19.98022461 17.17358398 C16.47319817 17.26859548 12.96678714 17.37837098 9.46020508 17.48852539 C7.62522461 17.53493164 7.62522461 17.53493164 5.75317383 17.58227539 C4.58657227 17.62094727 3.4199707 17.65961914 2.21801758 17.69946289 C1.1392334 17.73088379 0.06044922 17.76230469 -1.05102539 17.79467773 C-3.82241146 17.86028861 -3.82241146 17.86028861 -5.66479492 20.11352539 C-5.94522476 22.28890223 -5.94522476 22.28890223 -5.85229492 24.67602539 C-5.84584961 25.48168945 -5.8394043 26.28735352 -5.83276367 27.11743164 C-5.88110404 29.11232424 -5.88110404 29.11232424 -4.66479492 30.11352539 C-3.03222735 30.27067193 -1.39344154 30.36437953 0.24536133 30.42993164 C1.72939453 30.49277344 1.72939453 30.49277344 3.2434082 30.55688477 C4.28432617 30.59620117 5.32524414 30.63551758 6.39770508 30.67602539 C7.44249023 30.71920898 8.48727539 30.76239258 9.5637207 30.80688477 C12.15407392 30.91333764 14.74452693 31.01535299 17.33520508 31.11352539 C17.33520508 32.10352539 17.33520508 33.09352539 17.33520508 34.11352539 C13.56451676 34.20051039 9.79408576 34.25391118 6.02270508 34.30102539 C4.95084961 34.32616211 3.87899414 34.35129883 2.7746582 34.37719727 C1.74663086 34.38686523 0.71860352 34.3965332 -0.34057617 34.40649414 C-1.28843994 34.42220459 -2.23630371 34.43791504 -3.21289062 34.45410156 C-5.66479492 34.11352539 -5.66479492 34.11352539 -7.47924805 32.7824707 C-9.33948479 30.16373545 -8.94892239 27.82894403 -8.85229492 24.67602539 C-8.82522461 23.54293945 -8.7981543 22.40985352 -8.77026367 21.24243164 C-8.73545898 20.20989258 -8.7006543 19.17735352 -8.66479492 18.11352539 C-8.66479492 16.79352539 -8.66479492 15.47352539 -8.66479492 14.11352539 C-8.66479492 9.78019206 -8.66479492 5.44685872 -8.66479492 1.11352539 C-5.51144666 0.0624093 -3.30967209 -0.00717933 0 0 Z " fill="#67A8A2" transform="translate(423.664794921875,170.886474609375)"/>
<path d="M0 0 C2.64 0 5.28 0 8 0 C8 10.56 8 21.12 8 32 C5.36 32 2.72 32 0 32 C0 21.44 0 10.88 0 0 Z " fill="#FEFEFE" transform="translate(716,156)"/>
<path d="M0 0 C5.12508778 0.04659171 5.12508778 0.04659171 7.5546875 1.56640625 C10.70056307 5.13111141 10.94705533 7.619832 11.75 12.4375 C3.83 12.4375 -4.09 12.4375 -12.25 12.4375 C-11.21075082 6.20200491 -10.70059307 5.33176894 -6.25 1.4375 C-4.52788662 -0.28461338 -2.3504671 0.10369708 0 0 Z " fill="#203735" transform="translate(540.25,423.5625)"/>
<path d="M0 0 C2.66708353 1.92442003 4.54433248 4.04870547 6 7 C6 8.65 6 10.3 6 12 C-1.92 12 -9.84 12 -18 12 C-16.96700133 5.80200795 -16.54430209 4.78691841 -12 1 C-7.90405313 -0.36531562 -4.2644192 -0.89204687 0 0 Z " fill="#203735" transform="translate(825,424)"/>
<path d="M0 0 C2.93423195 1.79646854 4.47205355 2.9441071 6 6 C6 7.98 6 9.96 6 12 C-1.59 12 -9.18 12 -17 12 C-16 5 -16 5 -13.5625 2.0625 C-9.43910086 -0.9453902 -4.8817898 -0.90313111 0 0 Z " fill="#1F3634" transform="translate(470,424)"/>
<path d="M0 0 C0.77085937 -0.01417969 1.54171875 -0.02835937 2.3359375 -0.04296875 C4.89358425 0.21454176 6.45028281 0.83413522 8.625 2.1875 C11.48395686 5.96540728 11.625 7.20582562 11.625 12.1875 C3.705 12.1875 -4.215 12.1875 -12.375 12.1875 C-11.2315811 6.47040548 -10.18417917 5.2753996 -6.375 1.1875 C-4.04904054 0.02452027 -2.58776769 0.02149309 0 0 Z " fill="#1E3633" transform="translate(865.375,423.8125)"/>
<path d="M0 0 C0.66 0.33 1.32 0.66 2 1 C4.84208026 1.15706331 7.66337307 1.2584957 10.5078125 1.31640625 C11.34843231 1.33718735 12.18905212 1.35796844 13.05514526 1.37937927 C15.74501235 1.44485439 18.43497843 1.5037502 21.125 1.5625 C22.94662489 1.60568716 24.76823971 1.64930152 26.58984375 1.69335938 C31.05979394 1.80053368 35.52984386 1.90180685 40 2 C40 2.33 40 2.66 40 3 C38.27499268 2.97474243 38.27499268 2.97474243 36.51513672 2.94897461 C32.23188182 2.89818782 27.95041165 2.90674292 23.66699219 2.93286133 C21.816363 2.935936 19.96563414 2.9231001 18.11523438 2.89379883 C7.64793917 2.26315725 7.64793917 2.26315725 -1.58105469 6.07470703 C-3.10444456 8.35979184 -4.17027376 10.38903568 -5 13 C-4.67 13.66 -4.34 14.32 -4 15 C13.49 15.33 30.98 15.66 49 16 C49 16.33 49 16.66 49 17 C48.2947821 17.00808685 47.58956421 17.01617371 46.86297607 17.02450562 C40.21237175 17.10249207 33.56196235 17.18979487 26.91161728 17.28752708 C23.49271441 17.33744294 20.07384172 17.38377312 16.65478516 17.421875 C12.72280523 17.46585076 8.7911375 17.52548319 4.859375 17.5859375 C3.02013458 17.60326431 3.02013458 17.60326431 1.14373779 17.62094116 C0.00285706 17.64081085 -1.13802368 17.66068054 -2.31347656 17.68115234 C-3.31719299 17.69447601 -4.32090942 17.70779968 -5.3550415 17.7215271 C-8.03570438 18.00375912 -9.70220784 18.63066255 -12 20 C-11.34701782 15.97327657 -9.25540628 12.8316419 -7.125 9.4375 C-6.77308594 8.86064453 -6.42117188 8.28378906 -6.05859375 7.68945312 C-4.27807489 4.82010395 -2.53938744 2.24392412 0 0 Z " fill="#87A8A5" transform="translate(427,138)"/>
<path d="M0 0 C1.875 0.8125 1.875 0.8125 3.875 2.8125 C2.2353125 3.18375 2.2353125 3.18375 0.5625 3.5625 C-3.28695474 4.86739991 -4.2469065 5.35285408 -6.125 8.8125 C-6.455 9.699375 -6.785 10.58625 -7.125 11.5 C-7.455 12.263125 -7.785 13.02625 -8.125 13.8125 C-9.115 14.1425 -10.105 14.4725 -11.125 14.8125 C-11.125 16.7925 -11.125 18.7725 -11.125 20.8125 C2.24 21.3075 2.24 21.3075 15.875 21.8125 C15.875 22.1425 15.875 22.4725 15.875 22.8125 C7.295 22.8125 -1.285 22.8125 -10.125 22.8125 C-10.125 23.4725 -10.125 24.1325 -10.125 24.8125 C-14 22.9375 -14 22.9375 -15.125 21.8125 C-15.64960677 17.35334242 -15.57404884 15.42370537 -12.875 11.75 C-12.41738281 11.26789063 -11.95976562 10.78578125 -11.48828125 10.2890625 C-9.87771678 8.62879958 -9.87771678 8.62879958 -8.0625 5.625 C-3.94755083 -0.34831331 -3.94755083 -0.34831331 0 0 Z " fill="#8DC5C0" transform="translate(458.125,180.1875)"/>
<path d="M0 0 C0.66 0.33 1.32 0.66 2 1 C1.98259766 1.95712891 1.98259766 1.95712891 1.96484375 2.93359375 C1.95582031 3.75988281 1.94679688 4.58617187 1.9375 5.4375 C1.92589844 6.26121094 1.91429687 7.08492187 1.90234375 7.93359375 C1.76732652 9.99163938 1.76732652 9.99163938 3 11 C4.63256758 11.15714654 6.27135338 11.25085414 7.91015625 11.31640625 C8.89951172 11.35830078 9.88886719 11.40019531 10.90820312 11.44335938 C11.94912109 11.48267578 12.99003906 11.52199219 14.0625 11.5625 C15.10728516 11.60568359 16.15207031 11.64886719 17.22851562 11.69335938 C19.81886884 11.79981225 22.40932186 11.9018276 25 12 C25 12.99 25 13.98 25 15 C21.22931168 15.086985 17.45888068 15.14038579 13.6875 15.1875 C12.61564453 15.21263672 11.54378906 15.23777344 10.43945312 15.26367188 C9.41142578 15.27333984 8.38339844 15.28300781 7.32421875 15.29296875 C6.37635498 15.3086792 5.42849121 15.32438965 4.4519043 15.34057617 C2 15 2 15 0.18774414 13.64819336 C-1.55536326 11.22934073 -1.3275692 9.31487285 -1.25 6.375 C-1.23453125 5.39273438 -1.2190625 4.41046875 -1.203125 3.3984375 C-1 1 -1 1 0 0 Z " fill="#53ABA3" transform="translate(416,190)"/>
<path d="M0 0 C7.92 0 15.84 0 24 0 C24 0.99 24 1.98 24 3 C15.75 3 7.5 3 -1 3 C-0.67 2.01 -0.34 1.02 0 0 Z " fill="#A2CAC6" transform="translate(449,174)"/>
<path d="M0 0 C7.92 0 15.84 0 24 0 C24 0.99 24 1.98 24 3 C16.08 3 8.16 3 0 3 C0 2.01 0 1.02 0 0 Z " fill="#B4D3D0" transform="translate(449,163)"/>
<path d="M0 0 C5.37404042 0.41338772 7.32524771 1.2104117 11 5 C12.175625 5.33 13.35125 5.66 14.5625 6 C18 7 18 7 19.9375 8.8125 C21.18689961 11.38479331 21.23546771 13.17438742 21 16 C20.34 16.33 19.68 16.66 19 17 C18.67 15.906875 18.34 14.81375 18 13.6875 C16.97294876 11.21255701 16.37149114 10.21249 14.01953125 8.8671875 C12.04580355 8.14756289 10.02370534 7.56398345 8 7 C8 6.34 8 5.68 8 5 C5.03 4.01 2.06 3.02 -1 2 C-0.67 1.34 -0.34 0.68 0 0 Z " fill="#AAD5D1" transform="translate(460,180)"/>
<path d="M0 0 C2.64 0 5.28 0 8 0 C8 2.97 8 5.94 8 9 C5.36 9 2.72 9 0 9 C0 6.03 0 3.06 0 0 Z " fill="#E7E8E7" transform="translate(716,142)"/>
<path d="M0 0 C1.875 0.6875 1.875 0.6875 2.875 1.6875 C3.0625 4.125 3.0625 4.125 2.875 6.6875 C2.215 7.3475 1.555 8.0075 0.875 8.6875 C-1.75 8.3125 -1.75 8.3125 -4.125 7.6875 C-4.455 5.7075 -4.785 3.7275 -5.125 1.6875 C-2.125 -0.3125 -2.125 -0.3125 0 0 Z " fill="#62A59F" transform="translate(425.125,174.3125)"/>
<path d="M0 0 C4.70588235 0.70588235 4.70588235 0.70588235 6 2 C6.125 4.5 6.125 4.5 6 7 C5 8 5 8 2.5625 8.1875 C0 8 0 8 -2 6 C-1.44444444 1.44444444 -1.44444444 1.44444444 0 0 Z " fill="#5DB9B0" transform="translate(422,191)"/>
<path d="M0 0 C2.4375 0.1875 2.4375 0.1875 3.4375 1.1875 C3.625 3.625 3.625 3.625 3.4375 6.1875 C2.7775 6.8475 2.1175 7.5075 1.4375 8.1875 C-1.1875 7.8125 -1.1875 7.8125 -3.5625 7.1875 C-4.1875 4.8125 -4.1875 4.8125 -4.5625 2.1875 C-2.5625 0.1875 -2.5625 0.1875 0 0 Z " fill="#79B0AB" transform="translate(424.5625,157.8125)"/>
<path d="M0 0 C0.66 1.32 1.32 2.64 2 4 C15.365 4.495 15.365 4.495 29 5 C29 5.33 29 5.66 29 6 C20.42 6 11.84 6 3 6 C3 6.66 3 7.32 3 8 C-0.875 6.25 -0.875 6.25 -2 4 C-1.34 4 -0.68 4 0 4 C0 2.68 0 1.36 0 0 Z " fill="#61938E" transform="translate(445,197)"/>
<path d="M0 0 C0.66 1.32 1.32 2.64 2 4 C1.360625 4.5775 0.72125 5.155 0.0625 5.75 C-1.98223868 7.98062401 -2.58205199 9.07436391 -3 12 C-3.66 12 -4.32 12 -5 12 C-5.35338623 9.03155565 -5.5417682 6.84401782 -3.88671875 4.265625 C-2.64496832 2.79651181 -1.32662082 1.39295186 0 0 Z " fill="#70B7B1" transform="translate(448,189)"/>
<path d="M0 0 C2.0625 0.4375 2.0625 0.4375 4 1 C3.67 2.65 3.34 4.3 3 6 C1.35 6 -0.3 6 -2 6 C-1.125 1.125 -1.125 1.125 0 0 Z " fill="#468781" transform="translate(422,191)"/>
<path d="M0 0 C0.33 0 0.66 0 1 0 C1.36923077 6.52307692 1.36923077 6.52307692 -0.5 8.9375 C-0.995 9.288125 -1.49 9.63875 -2 10 C-2.625 8.125 -2.625 8.125 -3 6 C-2.34 5.34 -1.68 4.68 -1 4 C-0.3574765 1.93125966 -0.3574765 1.93125966 0 0 Z " fill="#8AB0AD" transform="translate(481,192)"/>
<path d="M0 0 C0.66 0.33 1.32 0.66 2 1 C1.25 2.9375 1.25 2.9375 0 5 C-2.125 5.75 -2.125 5.75 -4 6 C-2.84826645 3.53199953 -1.95216435 1.95216435 0 0 Z " fill="#A3CBC7" transform="translate(427,138)"/>
<path d="M0 0 C1.41377341 2.63904371 2.37240135 5.07120629 3 8 C-0.875 6.25 -0.875 6.25 -2 4 C-1.34 4 -0.68 4 0 4 C0 2.68 0 1.36 0 0 Z " fill="#5FA49E" transform="translate(445,197)"/>
</svg>
